<svg xmlns="http://www.w3.org/2000/svg" viewBox="0 0 160 33.037">
  <g id="customer_page_valor_global_black" data-name="customer_page_valor global_black" transform="translate(0 0.099)">
    <path id="Path_502" data-name="Path 502" d="M938.485,170.5c-.039,5.923-3.656,9.53-9.5,9.481-5.619-.049-9.23-3.867-9.191-9.706.039-5.56,3.926-9.333,9.505-9.284A8.924,8.924,0,0,1,938.485,170.5Zm-12.994.074a7.908,7.908,0,0,0,.417,3.018,3.141,3.141,0,0,0,3.312,2.247,3.039,3.039,0,0,0,3.229-2.341,9.687,9.687,0,0,0,.093-5.771,3.159,3.159,0,0,0-3.342-2.586,3.227,3.227,0,0,0-3.391,2.537A9.756,9.756,0,0,0,925.491,170.575Z" transform="translate(-874.658 -153.184)"/>
    <path id="Path_503" data-name="Path 503" d="M405.577,178.686a2.063,2.063,0,0,1-2.527-1.5c-.3-.893-.766-.083-1.026.113a7.8,7.8,0,0,1-6.86,1.443,4.277,4.277,0,0,1-3.46-3.44,4.576,4.576,0,0,1,1.477-4.8c2.076-1.737,4.588-2.13,7.15-2.458.658-.083,1.821.662,1.933-.815a2.564,2.564,0,0,0-1.8-2.949,4.427,4.427,0,0,0-3.111.437,12.892,12.892,0,0,1-1.516.712,2.835,2.835,0,0,1-3.307-2.414c0-.437.378-.638.662-.834a11.7,11.7,0,0,1,8.6-2.12c3.42.515,5.285,2.993,5.57,6.419.29,3.484.186,6.963.24,10.442C407.643,178.937,407.834,178.652,405.577,178.686Zm-3.376-6.159c.456-1.462-.412-1.472-1.507-1.242-.726.152-1.477.2-2.184.412a2.17,2.17,0,0,0-1.664,1.673,1.387,1.387,0,0,0,.486,1.507,3.269,3.269,0,0,0,3.332.015C401.612,174.466,402.534,173.921,402.2,172.528Z" transform="translate(-372.34 -152.169)"/>
    <path id="Path_504" data-name="Path 504" d="M0,164.195c1.546,0,2.9.02,4.24,0A2.042,2.042,0,0,1,6.4,165.942c1.04,3.553,2.135,7.091,3.283,10.874,1.192-3.715,2.37-7.214,3.43-10.747a2.224,2.224,0,0,1,2.625-1.879c1.1.1,2.689-.476,3.195.216.53.731-.54,2.007-.932,3.033-1.781,4.7-3.621,9.373-5.4,14.074a1.454,1.454,0,0,1-1.595,1.134c-3.847-.015-3.852.025-5.236-3.543-.962-2.473-1.9-4.956-2.856-7.429C1.982,169.254,1.031,166.835,0,164.195Z" transform="translate(0 -156.103)"/>
    <path id="Path_505" data-name="Path 505" d="M773.161,13.2c0,4.053-.025,8.107.02,12.16.01.927-.28,1.222-1.188,1.163-1.389-.093-3.195.432-4.063-.26-.927-.736-.289-2.62-.3-4-.034-6.988.01-13.981-.044-20.968C767.577.161,767.92-.177,769-.084a20.705,20.705,0,0,0,3.072,0c.873-.059,1.1.27,1.094,1.114C773.141,5.093,773.161,9.146,773.161,13.2Z" transform="translate(-729.767)"/>
    <path id="Path_506" data-name="Path 506" d="M1338.576,163.14c.643-.584,1.212-1.124,1.811-1.634a4.755,4.755,0,0,1,3.033-1.261c1.84-.044,2.247.412,1.9,2.179-.034.182-.069.368-.1.55-.4,2.483-.4,2.483-2.817,2.493a3.218,3.218,0,0,0-3.46,3.464c0,2.984,0,5.962.039,8.946.015.829-.211,1.183-1.094,1.129-1.163-.069-2.331-.044-3.494,0-.687.025-1-.152-1-.923.03-5.545.015-11.09.02-16.635,0-.363-.044-.707.471-.869C1336.28,159.828,1337.978,160.75,1338.576,163.14Z" transform="translate(-1267.967 -152.473)"/>
    <g id="Group_207" data-name="Group 207" transform="translate(77.446 0.266)">
      <path id="Path_507" data-name="Path 507" d="M1593.711,167.34a15.251,15.251,0,0,1-5.609-.726,7.316,7.316,0,0,0-5.079.167,5.635,5.635,0,0,0-3.906,5.624,5.9,5.9,0,0,0,2.645,4.48c-2.591,2.346-2.738,3.587-.672,5.7-1.727.849-3.131,1.958-2.822,4.142.314,2.218,1.973,3.155,3.857,3.774a11.535,11.535,0,0,0,4.833.545c2.674-.29,5.148-1.075,6.693-3.494,1.825-2.861.564-5.786-2.743-6.5a20.854,20.854,0,0,0-4.456-.255,8.39,8.39,0,0,1-2.9-.343c-.545-.2-1.026-.476-1.08-1.143a1.686,1.686,0,0,1,.859-1.507c.476-.343.991-.015,1.487.039,5.447.594,8.911-3.047,7.513-7.626-.182-.589.029-.741.54-.795.324-.029.643-.108.967-.137.864-.074,1.031-.608,1-1.364C1594.8,167.021,1594.138,167.35,1593.711,167.34Zm-9.785,15.875c1.757.211,3.543-.123,5.29.285,1.016.236,2.086.442,2.247,1.722a2.588,2.588,0,0,1-1.614,2.684,7.483,7.483,0,0,1-3.788.761,7.331,7.331,0,0,1-3.656-.721,2.327,2.327,0,0,1-1.266-2.925A2.855,2.855,0,0,1,1583.926,183.215Zm1.928-7.439c-2.184,0-3.8-1.173-3.8-3.612,0-2.243,1.443-3.548,3.891-3.548,2.468,0,3.862,1.281,3.877,3.548C1589.839,174.48,1588.406,175.781,1585.854,175.776Z" transform="translate(-1578.225 -158.431)"/>
      <path id="Path_508" data-name="Path 508" d="M2488.072,15.264c-1.928.182-3.307,1.32-4.77,2.37-.044.054-.083.108-.127.162-.1-.1-.113-.2.02-.28-.24-3.018-.073-6.046-.083-9.068,0-.849-.211-1.217-1.089-1.094a4.452,4.452,0,0,1-1.114,0c-.8-.093-1.065.216-1.016,1.016.064,1.065.015,2.14.015,3.214,0,6.895.02,13.784-.02,20.679,0,.957.24,1.178,1.212,1.281,1.634.172,1.683-.977,1.929-2.061a7.112,7.112,0,0,0,11.9-2.645,13.223,13.223,0,0,0-.147-9.692A6.074,6.074,0,0,0,2488.072,15.264Zm3.705,12.96a4.916,4.916,0,0,1-7.1,2.375,2.7,2.7,0,0,1-1.609-2.812,27.793,27.793,0,0,0,.024-3.067v-2.65a4.256,4.256,0,0,1,3.641-4.176c2.478-.471,4.338.388,5.094,2.547A11.016,11.016,0,0,1,2491.777,28.224Z" transform="translate(-2435.64 -7.331)"/>
      <path id="Path_509" data-name="Path 509" d="M2091.836,167.334c-6.193-1.879-11.331,2.13-11.336,9.073.015.285.02.795.069,1.305a8.5,8.5,0,0,0,16.7,1.325,12.493,12.493,0,0,0,.28-3.891C2097.219,171.127,2095.177,168.35,2091.836,167.334Zm2.179,11.493c-.638,2.684-2.272,4.073-4.883,4.122a4.771,4.771,0,0,1-5.03-3.94,11.3,11.3,0,0,1,.147-6.2,5.058,5.058,0,0,1,9.432-.3,9.2,9.2,0,0,1,.6,3.7A10.544,10.544,0,0,1,2094.014,178.827Z" transform="translate(-2055.853 -159.042)"/>
      <path id="Path_510" data-name="Path 510" d="M2846.689,172.879c-.162-3.7-2.822-5.933-6.522-5.8a9.7,9.7,0,0,0-5.7,2.022c-.633.486-1.148.878-.476,1.767a1.29,1.29,0,0,0,2.031.29,13.718,13.718,0,0,1,1.433-.864c3.553-1.757,6.149-.142,6.213,3.788.015.937-.191,1.3-1.2,1.281a14.909,14.909,0,0,0-6.914,1.448,4.459,4.459,0,0,0-2.881,3.813c-.187,3.077,1.875,5.089,5.153,5.045a8.479,8.479,0,0,0,6.021-2.7c.172.731.255,1.188.388,1.634.294,1.006,1.153.726,1.86.79.594.054.677-.29.677-.78C2846.748,180.706,2846.861,176.786,2846.689,172.879Zm-5.123,9.775c-1.531.81-3.18,1.217-4.784.265a2.515,2.515,0,0,1,.226-4.294,12.169,12.169,0,0,1,6.075-1.276c.417,0,.584.167.574.574-.01.466-.005.932-.005,1.614C2844.122,181.158,2842.866,181.967,2841.566,182.654Z" transform="translate(-2771.105 -159.239)"/>
      <path id="Path_511" data-name="Path 511" d="M3197.318,20.762c0-4-.069-8.009.034-12.008.034-1.389-.717-1.232-1.561-1.2-.815.034-1.718-.353-1.7,1.192q.118,11.866,0,23.741c-.015,1.389.711,1.232,1.555,1.2.82-.029,1.747.344,1.7-1.2C3197.249,28.584,3197.318,24.673,3197.318,20.762Z" transform="translate(-3114.8 -7.524)"/>
      <path id="Path_512" data-name="Path 512" d="M1961.229,9.444c0-1.983,0-1.929-2.056-1.948-.952-.01-1.163.324-1.153,1.207.025,2,.034,4,.044,6V25.481c-.02,2.076-.034,4.151-.02,6.227.015,2.1-.471,1.879,2.041,1.963.932.029,1.178-.26,1.163-1.173-.025-1.438-.034-2.876-.039-4.313h.044V13.213h-.034Q1961.227,11.328,1961.229,9.444Z" transform="translate(-1939.379 -7.488)"/>
    </g>
  </g>
</svg>
