<svg id="team_icon" xmlns="http://www.w3.org/2000/svg" viewBox="0 0 87 87">
  <defs>
    <style>
      .cls-1, .cls-2, .cls-3 {
        fill: none;
        stroke: #fff;
        stroke-miterlimit: 10;
        stroke-width: 2px;
      }

      .cls-2 {
        stroke-linejoin: round;
      }

      .cls-3 {
        stroke-linecap: round;
      }
    </style>
  </defs>
  <path id="Path_326" data-name="Path 326" class="cls-1" d="M14.421,16.5v5.219L4.579,24.254A5.506,5.506,0,0,0,1,29.175v1.491H23.219" transform="translate(0 7.614)"/>
  <path id="Path_327" data-name="Path 327" class="cls-1" d="M18.818,16.6v5.07l10.14,2.535a5.234,5.234,0,0,1,3.281,4.921v1.491H13.3" transform="translate(6.042 7.663)"/>
  <path id="Path_328" data-name="Path 328" class="cls-1" d="M28.667,13.228c0,6.86-5.07,12.377-11.333,12.377S6,20.088,6,13.228C6,6.518,11.07,1,17.333,1S28.667,6.518,28.667,13.228Z" transform="translate(2.456)"/>
  <path id="Path_329" data-name="Path 329" class="cls-2" d="M28.419,8.439c-1.939,1.939-7.307,1.789-9.246-1.939C15.3,10.228,9.182,10.228,6.2,8.14" transform="translate(2.554 2.702)"/>
  <path id="Path_330" data-name="Path 330" class="cls-1" d="M46.421,16.5v5.219l-9.842,2.535A5.506,5.506,0,0,0,33,29.175v1.491H55.219" transform="translate(15.719 7.614)"/>
  <path id="Path_331" data-name="Path 331" class="cls-1" d="M50.818,16.6v5.07l10.14,2.535a5.234,5.234,0,0,1,3.281,4.921v1.491H45.3" transform="translate(21.761 7.663)"/>
  <path id="Path_332" data-name="Path 332" class="cls-1" d="M60.667,13.228c0,6.86-5.07,12.377-11.333,12.377S38,20.088,38,13.228C38,6.518,43.07,1,49.333,1S60.667,6.518,60.667,13.228Z" transform="translate(18.175)"/>
  <path id="Path_333" data-name="Path 333" class="cls-2" d="M60.419,8.439c-1.939,1.939-7.307,1.789-9.246-1.939C47.3,10.228,41.182,10.228,38.2,8.14" transform="translate(18.274 2.702)"/>
  <path id="Path_334" data-name="Path 334" class="cls-1" d="M29.523,48.2v5.219L19.979,56.1A5.308,5.308,0,0,0,16.4,60.875v1.939H37.128" transform="translate(7.565 23.186)"/>
  <path id="Path_335" data-name="Path 335" class="cls-1" d="M35.305,48.2v5.219L44.849,56.1a5.308,5.308,0,0,1,3.579,4.772v1.939H27.7" transform="translate(13.116 23.186)"/>
  <path id="Path_336" data-name="Path 336" class="cls-1" d="M44.067,45.028c0,6.86-5.07,12.377-11.333,12.377S21.4,51.888,21.4,45.028,26.47,32.8,32.733,32.8,44.067,38.318,44.067,45.028Z" transform="translate(10.021 15.621)"/>
  <path id="Path_337" data-name="Path 337" class="cls-2" d="M43.719,40.139c-1.939,1.939-7.158,1.939-9.246-1.939-3.728,3.728-9.842,3.728-12.974,1.64" transform="translate(10.07 18.274)"/>
  <line id="Line_157" data-name="Line 157" class="cls-3" x2="9.395" y2="9.395" transform="translate(12.632 44.693)"/>
  <line id="Line_158" data-name="Line 158" class="cls-3" x1="9.395" y2="9.395" transform="translate(63.482 44.693)"/>
</svg>
