<svg xmlns="http://www.w3.org/2000/svg" viewBox="0 0 175 37.935">
  <defs>
    <style>
      .cls-1 {
        fill: #000;
      }

      .cls-2 {
        fill: #fff;
      }
    </style>
  </defs>
  <g id="customer_page_psg_global_solutions_neon" data-name="customer_page_psg global solutions_neon" transform="translate(0)">
    <path id="Path_365" data-name="Path 365" class="cls-1" d="M37.955,18.957A18.978,18.978,0,1,1,18.773,0,19,19,0,0,1,37.955,18.957ZM2.842,18.916A16.145,16.145,0,1,0,19,2.781,16.152,16.152,0,0,0,2.842,18.916Z"/>
    <path id="Path_366" data-name="Path 366" class="cls-1" d="M292.541,66.332c-.409.45-.8.879-1.186,1.309-2.372-1.718-4.56-1.6-5.705.286a3.236,3.236,0,0,0,1.391,4.581c1.35.675,3.5.429,4.09-1.227h-2.618V69.543h4.744a5.015,5.015,0,0,1,.041.552,4.6,4.6,0,0,1-4.622,4.54,5.033,5.033,0,0,1-4.908-7.076C285.506,63.592,290.721,63.919,292.541,66.332Z" transform="translate(-225.404 -51.343)"/>
    <path id="Path_367" data-name="Path 367" class="cls-1" d="M363.841,71.365H361.2V69.688h4.785a10.643,10.643,0,0,1-.123,1.391,4.522,4.522,0,0,1-4.581,3.661,4.891,4.891,0,0,1-5.072-3.722,4.834,4.834,0,0,1,1.411-4.969,5.27,5.27,0,0,1,5.235-1.1,4.949,4.949,0,0,1,2.434,1.554c-.429.409-.838.818-1.166,1.125a13.885,13.885,0,0,0-2.352-1.022,3.147,3.147,0,0,0-3.5,1.575,3.183,3.183,0,0,0,.409,3.661,3.476,3.476,0,0,0,3.865.92A2.413,2.413,0,0,0,363.841,71.365Z" transform="translate(-283.228 -51.468)"/>
    <path id="Path_368" data-name="Path 368" class="cls-1" d="M470.938,73.862c-.02.225-.02.389-.041.593h-1.7V64.7h1.718v3.272a7.6,7.6,0,0,1,1.6-.675,3.124,3.124,0,0,1,3.579,1.82,4.009,4.009,0,0,1-.307,4.131C474.619,74.884,472.861,75.089,470.938,73.862Zm3.742-2.924a1.915,1.915,0,1,0-3.824,0,1.944,1.944,0,0,0,1.922,2.106A1.989,1.989,0,0,0,474.681,70.937Z" transform="translate(-373.25 -51.469)"/>
    <path id="Path_369" data-name="Path 369" class="cls-1" d="M515.672,78.016c.02-.225.02-.389.041-.613h1.759V84.4h-1.738c-.02-.164-.041-.348-.061-.593a3.279,3.279,0,0,1-2.7.777,3.36,3.36,0,0,1-2.249-1.6,4.187,4.187,0,0,1,.511-4.888C512.421,76.932,513.975,76.891,515.672,78.016Zm-3.7,2.863a1.908,1.908,0,1,0,1.881-2.045A1.923,1.923,0,0,0,511.971,80.879Z" transform="translate(-405.836 -61.41)"/>
    <path id="Path_370" data-name="Path 370" class="cls-1" d="M252.122,67.426a7.529,7.529,0,0,0-1.186-.838.764.764,0,0,0-1.022.266c-.245.368-.02.654.266.9.736.675,1.513,1.329,2.249,2a3.037,3.037,0,0,1,1.1,1.84,2.609,2.609,0,0,1-1.452,2.883,3.317,3.317,0,0,1-3.742-.634c-.286-.327-.532-.7-.838-1.125.552-.327,1.043-.634,1.554-.941a2.612,2.612,0,0,0,.491.634,3.311,3.311,0,0,0,1.084.593.822.822,0,0,0,1.022-.552,1.314,1.314,0,0,0-.245-1.022c-.491-.552-1.084-.982-1.616-1.472a11.26,11.26,0,0,1-1.1-1.1,2.36,2.36,0,0,1-.409-2.74,2.647,2.647,0,0,1,2.556-1.35,3.34,3.34,0,0,1,2.556,1.575C252.94,66.69,252.51,67.079,252.122,67.426Z" transform="translate(-196.887 -51.516)"/>
    <path id="Path_371" data-name="Path 371" class="cls-1" d="M217.22,71.279v4.049H215.4V65.819c1.391.082,2.781-.225,4.151.266a2.619,2.619,0,0,1,1.472,3.027,2.585,2.585,0,0,1-2.434,2.168C218.161,71.32,217.752,71.279,217.22,71.279Zm0-1.718c.736-.082,1.513.2,1.922-.532a1.15,1.15,0,0,0-.061-1c-.47-.593-1.166-.409-1.861-.409v1.943Z" transform="translate(-171.351 -52.343)"/>
    <path id="Path_372" data-name="Path 372" class="cls-1" d="M585.3,72.574c.511-.307,1-.613,1.513-.9.245.286.389.613.654.777a2.257,2.257,0,0,0,1.145.429.862.862,0,0,0,.634-1.493c-.409-.47-.941-.859-1.391-1.288-.389-.368-.818-.716-1.186-1.1a2.465,2.465,0,0,1-.532-3.19,2.711,2.711,0,0,1,3.436-.9,12.249,12.249,0,0,1,1.677,1.207c-.532.47-.961.859-1.452,1.309a2.683,2.683,0,0,0-.552-.613,1.646,1.646,0,0,0-.818-.368,1,1,0,0,0-.757.368.84.84,0,0,0,.184.757c.409.45.879.8,1.329,1.207a17.5,17.5,0,0,1,1.534,1.472,2.551,2.551,0,0,1,.368,2.822,2.6,2.6,0,0,1-2.372,1.575A3.2,3.2,0,0,1,585.3,72.574Z" transform="translate(-465.607 -51.408)"/>
    <path id="Path_373" data-name="Path 373" class="cls-1" d="M620.5,80.8a3.712,3.712,0,1,1,3.661,3.763A3.679,3.679,0,0,1,620.5,80.8Zm5.6.02a1.916,1.916,0,1,0-3.824.02,1.87,1.87,0,0,0,1.9,2.025A1.938,1.938,0,0,0,626.1,80.822Z" transform="translate(-493.608 -61.333)"/>
    <path id="Path_374" data-name="Path 374" class="cls-1" d="M432.963,80.8a3.732,3.732,0,1,1-7.464,0,3.732,3.732,0,0,1,7.464,0Zm-3.722,2.065a2.039,2.039,0,1,0-1.9-2.025A1.881,1.881,0,0,0,429.242,82.866Z" transform="translate(-338.486 -61.332)"/>
    <path id="Path_375" data-name="Path 375" class="cls-1" d="M759.02,80.921a3.712,3.712,0,1,1-3.742-3.722A3.706,3.706,0,0,1,759.02,80.921ZM753.4,80.88a1.9,1.9,0,0,0,1.881,2.065,2.039,2.039,0,0,0,.061-4.07A1.9,1.9,0,0,0,753.4,80.88Z" transform="translate(-597.897 -61.412)"/>
    <path id="Path_376" data-name="Path 376" class="cls-1" d="M795,77.387h1.738c.02.2.041.389.041.511a10.227,10.227,0,0,1,1.759-.654,2.184,2.184,0,0,1,2.679,2.106c.082,1.677.021,3.354.021,5.072H799.5c0-.2-.02-.409-.02-.613-.02-1.227-.02-2.474-.061-3.7-.02-.716-.348-1.125-.838-1.227a1.262,1.262,0,0,0-1.472.736,3.71,3.71,0,0,0-.307,1.329c-.041,1.145-.02,2.311-.02,3.476H795Z" transform="translate(-632.424 -61.415)"/>
    <path id="Path_377" data-name="Path 377" class="cls-1" d="M684.02,78.1H685.9c-.082,1.738-.082,3.456-.286,5.153-.143,1.227-1.207,1.963-2.638,2.106a2.817,2.817,0,0,1-3.149-1.9,2.637,2.637,0,0,1-.164-.8c-.02-1.493,0-3.006,0-4.54H681.4v1.534c.02.92.02,1.861.082,2.781a1.169,1.169,0,0,0,1.247,1.247,1.153,1.153,0,0,0,1.247-1.227c.061-1.288.041-2.577.061-3.885A3.467,3.467,0,0,1,684.02,78.1Z" transform="translate(-540.667 -62.129)"/>
    <path id="Path_378" data-name="Path 378" class="cls-1" d="M836.21,78.013c-.511.491-.859.859-1.186,1.166a4.545,4.545,0,0,0-1.1-.532c-.225-.061-.491.164-.736.245.143.2.225.47.429.593.573.368,1.207.613,1.738,1.022a2.1,2.1,0,0,1-.368,3.62,3.055,3.055,0,0,1-3.783-.982c.348-.368.7-.757,1-1.1.429.245.818.491,1.227.675a.721.721,0,0,0,1-.307c.2-.409-.164-.634-.45-.818-.389-.225-.8-.409-1.166-.634-1.207-.716-1.656-1.718-1.227-2.72a2.359,2.359,0,0,1,2.945-1.166A14.5,14.5,0,0,1,836.21,78.013Z" transform="translate(-661.221 -61.203)"/>
    <path id="Path_379" data-name="Path 379" class="cls-1" d="M717.638,68.036H718.7V69.57c-.327.02-.654.041-1.022.082v5.44h-1.82v-5.44c-.307-.02-.552-.041-.859-.082V68.077c.245-.02.511-.041.838-.061V65.5h1.779C717.638,66.338,717.638,67.156,717.638,68.036Z" transform="translate(-568.784 -52.105)"/>
    <path id="Path_380" data-name="Path 380" class="cls-1" d="M664.638,74.555H662.9V64.8h1.738Z" transform="translate(-527.338 -51.549)"/>
    <path id="Path_381" data-name="Path 381" class="cls-1" d="M412.759,74.555H411V64.8h1.759Z" transform="translate(-326.951 -51.549)"/>
    <path id="Path_382" data-name="Path 382" class="cls-1" d="M553.9,64.8h1.738v9.734H553.9Z" transform="translate(-440.629 -51.549)"/>
    <path id="Path_383" data-name="Path 383" class="cls-1" d="M738.638,85.135H736.9V78.1h1.738Z" transform="translate(-586.206 -62.129)"/>
    <path id="Path_384" data-name="Path 384" class="cls-1" d="M736.666,66.031a1.17,1.17,0,0,1-1.166-1.186,1.157,1.157,0,0,1,1.145-1.145,1.2,1.2,0,0,1,1.166,1.186A1.143,1.143,0,0,1,736.666,66.031Z" transform="translate(-585.092 -50.673)"/>
    <path id="Path_385" data-name="Path 385" class="cls-2" d="M13.9,29.735A16.145,16.145,0,1,1,29.867,45.89,16.064,16.064,0,0,1,13.9,29.735Zm26.83,2.331c.061,1.247-.348,1.8-1.431,2.065a4.143,4.143,0,0,1-.859.123c-.429.02-.613.184-.593.634.02.941,0,.941.92.92a3.836,3.836,0,0,0,1.084-.123c2.29-.675,3.538-2.065,3.374-4.315-.184-2.372-.368-4.724-.573-7.1-.061-.7-.47-.92-1.084-.573a3.049,3.049,0,0,0-.409.307.744.744,0,0,1-.982.1,3.83,3.83,0,0,0-4.438.716,5.335,5.335,0,0,0,.389,7.382,3.2,3.2,0,0,0,1.309.675A3.248,3.248,0,0,0,40.726,32.066ZM20.051,34.459c.716,0,1.329.02,1.943,0a4.064,4.064,0,0,0,3.763-2.986,6.014,6.014,0,0,0-.082-3.129,3.771,3.771,0,0,0-4.663-2.965,13.348,13.348,0,0,0-1.718.634,1.028,1.028,0,0,0-.736-.266c-.429.02-.838.143-1.247.184-.429.041-.613.164-.552.634.184,1.922.327,3.845.511,5.746.143,1.616.286,3.231.47,4.826.02.164.225.429.327.409.716-.041,1.431-.143,2.188-.225C20.153,36.34,20.112,35.44,20.051,34.459Zm12.8-7.75c-.041-.613-.143-1.145-.123-1.677,0-.47-.184-.634-.613-.613-.9.02-1.82,0-2.72.1A2.915,2.915,0,0,0,26.8,28.3a2,2,0,0,0,1.718,1.636c.409.061.838.041,1.268.082a6.932,6.932,0,0,1,1.309.143.921.921,0,0,1,.552.552.8.8,0,0,1-.368.7,2.517,2.517,0,0,1-1.186.368c-1.084-.041-2.168-.184-3.313-.286.041.45.123,1,.164,1.534a.688.688,0,0,0,.634.675,9.156,9.156,0,0,0,3.5.1,2.844,2.844,0,0,0,2.658-2.352c.45-2.229-.7-3.538-2.72-3.517a6.646,6.646,0,0,1-1.554-.123.892.892,0,0,1-.593-.552c-.041-.164.266-.552.47-.593a9.335,9.335,0,0,1,1.984-.2C31.851,26.5,32.3,26.626,32.853,26.708Z" transform="translate(-11.053 -10.819)"/>
    <path id="Path_386" data-name="Path 386" class="cls-1" d="M120.728,70.816a3.264,3.264,0,0,1-3.252.838,3.2,3.2,0,0,1-1.309-.675,5.3,5.3,0,0,1-.389-7.382,3.825,3.825,0,0,1,4.438-.716.771.771,0,0,0,.982-.1,1.945,1.945,0,0,1,.409-.307c.613-.348,1.022-.123,1.084.573.184,2.372.389,4.724.573,7.1.164,2.249-1.084,3.64-3.374,4.315a3.836,3.836,0,0,1-1.084.123c-.92.02-.9,0-.92-.92,0-.45.164-.613.593-.634a4.143,4.143,0,0,0,.859-.123C120.4,72.636,120.789,72.064,120.728,70.816Zm-.2-2.658c-.082-.92-.143-1.9-.245-2.863a.7.7,0,0,0-.225-.368,1.741,1.741,0,0,0-1.8-.2,2.362,2.362,0,0,0-1.227,2.413,2.485,2.485,0,0,0,1.8,2.352A1.422,1.422,0,0,0,120.523,68.158Z" transform="translate(-91.055 -49.569)"/>
    <path id="Path_387" data-name="Path 387" class="cls-1" d="M31.01,79.979c.061.982.1,1.881.164,2.883-.757.082-1.472.184-2.188.225-.1,0-.307-.266-.327-.409-.164-1.616-.327-3.211-.47-4.826-.164-1.922-.307-3.845-.511-5.746-.041-.47.123-.613.552-.634.429-.041.838-.164,1.247-.184a1.166,1.166,0,0,1,.736.266,9.168,9.168,0,0,1,1.718-.634,3.762,3.762,0,0,1,4.663,2.965,6.02,6.02,0,0,1,.082,3.129A4.024,4.024,0,0,1,32.912,80C32.339,79.979,31.725,79.979,31.01,79.979Zm3.333-4.213a11.586,11.586,0,0,0-.491-1.7,1.953,1.953,0,0,0-3.006-.777,1.036,1.036,0,0,0-.368.757c.041,1.166.123,2.352.245,3.517a.614.614,0,0,0,.327.389C32.789,78.691,34.261,77.71,34.343,75.767Z" transform="translate(-22.012 -56.34)"/>
    <path id="Path_388" data-name="Path 388" class="cls-1" d="M82.973,68.943a10.715,10.715,0,0,0-1.452-.2,9.336,9.336,0,0,0-1.984.2c-.2.041-.511.429-.47.593a.85.85,0,0,0,.593.552,7.723,7.723,0,0,0,1.554.123c2.025-.02,3.149,1.288,2.72,3.517a2.844,2.844,0,0,1-2.658,2.352,9.584,9.584,0,0,1-3.5-.1.673.673,0,0,1-.634-.675c-.041-.552-.123-1.084-.164-1.534,1.145.1,2.229.245,3.313.286a2.307,2.307,0,0,0,1.186-.368.914.914,0,0,0,.368-.7.873.873,0,0,0-.552-.552,5.582,5.582,0,0,0-1.309-.143c-.429-.041-.859-.02-1.268-.082A1.932,1.932,0,0,1,77,70.579,2.908,2.908,0,0,1,79.6,66.8c.9-.1,1.8-.082,2.72-.1.429-.02.613.143.613.613A5.574,5.574,0,0,0,82.973,68.943Z" transform="translate(-61.174 -53.053)"/>
    <path id="Path_389" data-name="Path 389" class="cls-2" d="M130.349,76.933a1.42,1.42,0,0,1-1.718,1.329,2.485,2.485,0,0,1-1.8-2.352,2.362,2.362,0,0,1,1.227-2.413,1.787,1.787,0,0,1,1.8.2.7.7,0,0,1,.225.368C130.206,75.031,130.267,76.013,130.349,76.933Z" transform="translate(-100.881 -58.344)"/>
    <path id="Path_390" data-name="Path 390" class="cls-2" d="M45.185,83.7a2.252,2.252,0,0,1-3.313,2.168.614.614,0,0,1-.327-.389c-.1-1.166-.2-2.352-.245-3.517a1.115,1.115,0,0,1,.368-.757,1.976,1.976,0,0,1,3.006.777A10.943,10.943,0,0,1,45.185,83.7Z" transform="translate(-32.854 -64.275)"/>
  </g>
</svg>
