<svg xmlns="http://www.w3.org/2000/svg" xmlns:xlink="http://www.w3.org/1999/xlink" viewBox="0 0 334.55 273.948">
  <defs>
    <style>
      .cls-1, .cls-2 {
        fill: none;
        stroke: #fff;
        stroke-miterlimit: 10;
      }

      .cls-1 {
        stroke-width: 5px;
      }

      .cls-2 {
        stroke-width: 2px;
      }

      .cls-3 {
        fill: #fff;
      }

      .cls-4 {
        fill: #87c930;
      }

      .cls-5 {
        filter: url(#Path_37);
      }

      .cls-6 {
        filter: url(#Rectangle_27);
      }

      .cls-7 {
        filter: url(#Rectangle_26);
      }

      .cls-8 {
        filter: url(#Rectangle_25);
      }

      .cls-9 {
        filter: url(#Rectangle_24);
      }

      .cls-10 {
        filter: url(#Rectangle_23);
      }

      .cls-11 {
        filter: url(#Rectangle_22);
      }

      .cls-12 {
        filter: url(#Path_36);
      }

      .cls-13 {
        filter: url(#Path_35);
      }

      .cls-14 {
        filter: url(#Path_34);
      }

      .cls-15 {
        filter: url(#Path_33);
      }

      .cls-16 {
        filter: url(#Path_32);
      }

      .cls-17 {
        filter: url(#Path_31);
      }

      .cls-18 {
        filter: url(#Path_30);
      }

      .cls-19 {
        filter: url(#Path_28);
      }

      .cls-20 {
        filter: url(#Line_16);
      }

      .cls-21 {
        filter: url(#Line_15);
      }

      .cls-22 {
        filter: url(#Line_14);
      }

      .cls-23 {
        filter: url(#Path_27);
      }

      .cls-24 {
        filter: url(#Path_26);
      }

      .cls-25 {
        filter: url(#Path_25);
      }

      .cls-26 {
        filter: url(#Path_24);
      }

      .cls-27 {
        filter: url(#Line_11);
      }

      .cls-28 {
        filter: url(#Line_10);
      }

      .cls-29 {
        filter: url(#Line_9);
      }

      .cls-30 {
        filter: url(#Path_23);
      }

      .cls-31 {
        filter: url(#Path_22);
      }

      .cls-32 {
        filter: url(#Path_21);
      }

      .cls-33 {
        filter: url(#Path_20);
      }

      .cls-34 {
        filter: url(#Line_8);
      }

      .cls-35 {
        filter: url(#Line_7);
      }

      .cls-36 {
        filter: url(#Line_6);
      }

      .cls-37 {
        filter: url(#Line_5);
      }

      .cls-38 {
        filter: url(#Path_19);
      }

      .cls-39 {
        filter: url(#Path_18);
      }

      .cls-40 {
        filter: url(#Path_17);
      }

      .cls-41 {
        filter: url(#Path_16);
      }

      .cls-42 {
        filter: url(#Line_3);
      }

      .cls-43 {
        filter: url(#Rectangle_21);
      }

      .cls-44 {
        filter: url(#Rectangle_20);
      }

      .cls-45 {
        filter: url(#Rectangle_19);
      }

      .cls-46 {
        filter: url(#Rectangle_18);
      }

      .cls-47 {
        filter: url(#Rectangle_17);
      }

      .cls-48 {
        filter: url(#Path_14);
      }

      .cls-49 {
        filter: url(#Path_13);
      }

      .cls-50 {
        filter: url(#Path_12);
      }

      .cls-51 {
        filter: url(#Path_11);
      }

      .cls-52 {
        filter: url(#Path_10);
      }

      .cls-53 {
        filter: url(#Path_9);
      }
    </style>
    <filter id="Path_9" x="114.051" y="185.447" width="105.999" height="71.001" filterUnits="userSpaceOnUse">
      <feOffset dy="3" input="SourceAlpha"/>
      <feGaussianBlur stdDeviation="5" result="blur"/>
      <feFlood flood-color="#ad5dc2"/>
      <feComposite operator="in" in2="blur"/>
      <feComposite in="SourceGraphic"/>
    </filter>
    <filter id="Path_10" x="122.448" y="163.116" width="97.602" height="73.333" filterUnits="userSpaceOnUse">
      <feOffset dy="3" input="SourceAlpha"/>
      <feGaussianBlur stdDeviation="5" result="blur-2"/>
      <feFlood flood-color="#ad5dc2"/>
      <feComposite operator="in" in2="blur-2"/>
      <feComposite in="SourceGraphic"/>
    </filter>
    <filter id="Path_11" x="114.051" y="37.048" width="105.999" height="71.001" filterUnits="userSpaceOnUse">
      <feOffset dy="3" input="SourceAlpha"/>
      <feGaussianBlur stdDeviation="5" result="blur-3"/>
      <feFlood flood-color="#ad5dc2"/>
      <feComposite operator="in" in2="blur-3"/>
      <feComposite in="SourceGraphic"/>
    </filter>
    <filter id="Path_12" x="122.448" y="57.048" width="97.602" height="73.333" filterUnits="userSpaceOnUse">
      <feOffset dy="3" input="SourceAlpha"/>
      <feGaussianBlur stdDeviation="5" result="blur-4"/>
      <feFlood flood-color="#ad5dc2"/>
      <feComposite operator="in" in2="blur-4"/>
      <feComposite in="SourceGraphic"/>
    </filter>
    <filter id="Path_13" x="153.05" y="2.948" width="105" height="50.5" filterUnits="userSpaceOnUse">
      <feOffset input="SourceAlpha"/>
      <feGaussianBlur stdDeviation="5" result="blur-5"/>
      <feFlood flood-color="#ad5dc2"/>
      <feComposite operator="in" in2="blur-5"/>
      <feComposite in="SourceGraphic"/>
    </filter>
    <filter id="Path_14" x="239.188" y="10.487" width="65.323" height="62.096" filterUnits="userSpaceOnUse">
      <feOffset input="SourceAlpha"/>
      <feGaussianBlur stdDeviation="5" result="blur-6"/>
      <feFlood flood-color="#ad5dc2"/>
      <feComposite operator="in" in2="blur-6"/>
      <feComposite in="SourceGraphic"/>
    </filter>
    <filter id="Rectangle_17" x="90.55" y="125.448" width="121.5" height="70" filterUnits="userSpaceOnUse">
      <feOffset input="SourceAlpha"/>
      <feGaussianBlur stdDeviation="10" result="blur-7"/>
      <feFlood flood-color="#87c930"/>
      <feComposite operator="in" in2="blur-7"/>
      <feComposite in="SourceGraphic"/>
    </filter>
    <filter id="Rectangle_18" x="67.55" y="108.948" width="145" height="70" filterUnits="userSpaceOnUse">
      <feOffset input="SourceAlpha"/>
      <feGaussianBlur stdDeviation="10" result="blur-8"/>
      <feFlood flood-color="#87c930"/>
      <feComposite operator="in" in2="blur-8"/>
      <feComposite in="SourceGraphic"/>
    </filter>
    <filter id="Rectangle_19" x="96.55" y="91.948" width="116" height="70" filterUnits="userSpaceOnUse">
      <feOffset input="SourceAlpha"/>
      <feGaussianBlur stdDeviation="10" result="blur-9"/>
      <feFlood flood-color="#87c930"/>
      <feComposite operator="in" in2="blur-9"/>
      <feComposite in="SourceGraphic"/>
    </filter>
    <filter id="Rectangle_20" x="20.355" y="100.096" width="56.749" height="56.749" filterUnits="userSpaceOnUse">
      <feOffset input="SourceAlpha"/>
      <feGaussianBlur stdDeviation="3" result="blur-10"/>
      <feFlood flood-color="#87c930"/>
      <feComposite operator="in" in2="blur-10"/>
      <feComposite in="SourceGraphic"/>
    </filter>
    <filter id="Rectangle_21" x="21.355" y="179.096" width="56.749" height="56.749" filterUnits="userSpaceOnUse">
      <feOffset input="SourceAlpha"/>
      <feGaussianBlur stdDeviation="3" result="blur-11"/>
      <feFlood flood-color="#87c930"/>
      <feComposite operator="in" in2="blur-11"/>
      <feComposite in="SourceGraphic"/>
    </filter>
    <filter id="Line_3" x="39.35" y="71.848" width="20" height="34.9" filterUnits="userSpaceOnUse">
      <feOffset input="SourceAlpha"/>
      <feGaussianBlur stdDeviation="3" result="blur-12"/>
      <feFlood flood-color="#ad5dc2"/>
      <feComposite operator="in" in2="blur-12"/>
      <feComposite in="SourceGraphic"/>
    </filter>
    <filter id="Path_16" x="25.969" y="0" width="46.848" height="42.303" filterUnits="userSpaceOnUse">
      <feOffset input="SourceAlpha"/>
      <feGaussianBlur stdDeviation="5" result="blur-13"/>
      <feFlood flood-color="#ad5dc2"/>
      <feComposite operator="in" in2="blur-13"/>
      <feComposite in="SourceGraphic"/>
    </filter>
    <filter id="Path_17" x="56.782" y="26.781" width="42.203" height="46.836" filterUnits="userSpaceOnUse">
      <feOffset input="SourceAlpha"/>
      <feGaussianBlur stdDeviation="5" result="blur-14"/>
      <feFlood flood-color="#ad5dc2"/>
      <feComposite operator="in" in2="blur-14"/>
      <feComposite in="SourceGraphic"/>
    </filter>
    <filter id="Path_18" x="26.782" y="56.781" width="46.836" height="42.203" filterUnits="userSpaceOnUse">
      <feOffset input="SourceAlpha"/>
      <feGaussianBlur stdDeviation="5" result="blur-15"/>
      <feFlood flood-color="#ad5dc2"/>
      <feComposite operator="in" in2="blur-15"/>
      <feComposite in="SourceGraphic"/>
    </filter>
    <filter id="Path_19" x="0" y="25.967" width="42.317" height="46.849" filterUnits="userSpaceOnUse">
      <feOffset input="SourceAlpha"/>
      <feGaussianBlur stdDeviation="5" result="blur-16"/>
      <feFlood flood-color="#ad5dc2"/>
      <feComposite operator="in" in2="blur-16"/>
      <feComposite in="SourceGraphic"/>
    </filter>
    <filter id="Line_5" x="12.846" y="43.938" width="42.007" height="41.921" filterUnits="userSpaceOnUse">
      <feOffset input="SourceAlpha"/>
      <feGaussianBlur stdDeviation="5" result="blur-17"/>
      <feFlood flood-color="#ad5dc2"/>
      <feComposite operator="in" in2="blur-17"/>
      <feComposite in="SourceGraphic"/>
    </filter>
    <filter id="Line_6" x="43.939" y="43.345" width="41.921" height="42.007" filterUnits="userSpaceOnUse">
      <feOffset input="SourceAlpha"/>
      <feGaussianBlur stdDeviation="5" result="blur-18"/>
      <feFlood flood-color="#ad5dc2"/>
      <feComposite operator="in" in2="blur-18"/>
      <feComposite in="SourceGraphic"/>
    </filter>
    <filter id="Line_7" x="12.846" y="12.338" width="42.007" height="41.921" filterUnits="userSpaceOnUse">
      <feOffset input="SourceAlpha"/>
      <feGaussianBlur stdDeviation="5" result="blur-19"/>
      <feFlood flood-color="#ad5dc2"/>
      <feComposite operator="in" in2="blur-19"/>
      <feComposite in="SourceGraphic"/>
    </filter>
    <filter id="Line_8" x="49.942" y="101.141" width="29.914" height="29.914" filterUnits="userSpaceOnUse">
      <feOffset dy="3" input="SourceAlpha"/>
      <feGaussianBlur stdDeviation="3" result="blur-20"/>
      <feFlood flood-color="#ad5dc2"/>
      <feComposite operator="in" in2="blur-20"/>
      <feComposite in="SourceGraphic"/>
    </filter>
    <filter id="Path_20" x="25.982" y="79.313" width="46.836" height="42.203" filterUnits="userSpaceOnUse">
      <feOffset input="SourceAlpha"/>
      <feGaussianBlur stdDeviation="5" result="blur-21"/>
      <feFlood flood-color="#ad5dc2"/>
      <feComposite operator="in" in2="blur-21"/>
      <feComposite in="SourceGraphic"/>
    </filter>
    <filter id="Path_21" x="56.769" y="105.993" width="42.203" height="46.923" filterUnits="userSpaceOnUse">
      <feOffset input="SourceAlpha"/>
      <feGaussianBlur stdDeviation="5" result="blur-22"/>
      <feFlood flood-color="#ad5dc2"/>
      <feComposite operator="in" in2="blur-22"/>
      <feComposite in="SourceGraphic"/>
    </filter>
    <filter id="Path_22" x="26.796" y="135.981" width="46.822" height="42.189" filterUnits="userSpaceOnUse">
      <feOffset input="SourceAlpha"/>
      <feGaussianBlur stdDeviation="5" result="blur-23"/>
      <feFlood flood-color="#ad5dc2"/>
      <feComposite operator="in" in2="blur-23"/>
      <feComposite in="SourceGraphic"/>
    </filter>
    <filter id="Path_23" x="0.001" y="105.181" width="42.303" height="46.848" filterUnits="userSpaceOnUse">
      <feOffset input="SourceAlpha"/>
      <feGaussianBlur stdDeviation="5" result="blur-24"/>
      <feFlood flood-color="#ad5dc2"/>
      <feComposite operator="in" in2="blur-24"/>
      <feComposite in="SourceGraphic"/>
    </filter>
    <filter id="Line_9" x="12.842" y="123.141" width="42.014" height="42.014" filterUnits="userSpaceOnUse">
      <feOffset input="SourceAlpha"/>
      <feGaussianBlur stdDeviation="5" result="blur-25"/>
      <feFlood flood-color="#ad5dc2"/>
      <feComposite operator="in" in2="blur-25"/>
      <feComposite in="SourceGraphic"/>
    </filter>
    <filter id="Line_10" x="43.942" y="122.641" width="41.914" height="41.914" filterUnits="userSpaceOnUse">
      <feOffset input="SourceAlpha"/>
      <feGaussianBlur stdDeviation="5" result="blur-26"/>
      <feFlood flood-color="#ad5dc2"/>
      <feComposite operator="in" in2="blur-26"/>
      <feComposite in="SourceGraphic"/>
    </filter>
    <filter id="Line_11" x="12.842" y="91.541" width="42.014" height="42.014" filterUnits="userSpaceOnUse">
      <feOffset input="SourceAlpha"/>
      <feGaussianBlur stdDeviation="5" result="blur-27"/>
      <feFlood flood-color="#ad5dc2"/>
      <feComposite operator="in" in2="blur-27"/>
      <feComposite in="SourceGraphic"/>
    </filter>
    <filter id="Path_24" x="25.969" y="158.5" width="46.848" height="42.303" filterUnits="userSpaceOnUse">
      <feOffset input="SourceAlpha"/>
      <feGaussianBlur stdDeviation="5" result="blur-28"/>
      <feFlood flood-color="#ad5dc2"/>
      <feComposite operator="in" in2="blur-28"/>
      <feComposite in="SourceGraphic"/>
    </filter>
    <filter id="Path_25" x="56.782" y="185.281" width="42.203" height="46.836" filterUnits="userSpaceOnUse">
      <feOffset input="SourceAlpha"/>
      <feGaussianBlur stdDeviation="5" result="blur-29"/>
      <feFlood flood-color="#ad5dc2"/>
      <feComposite operator="in" in2="blur-29"/>
      <feComposite in="SourceGraphic"/>
    </filter>
    <filter id="Path_26" x="26.782" y="215.281" width="46.836" height="42.203" filterUnits="userSpaceOnUse">
      <feOffset input="SourceAlpha"/>
      <feGaussianBlur stdDeviation="5" result="blur-30"/>
      <feFlood flood-color="#ad5dc2"/>
      <feComposite operator="in" in2="blur-30"/>
      <feComposite in="SourceGraphic"/>
    </filter>
    <filter id="Path_27" x="0" y="184.467" width="42.317" height="46.849" filterUnits="userSpaceOnUse">
      <feOffset input="SourceAlpha"/>
      <feGaussianBlur stdDeviation="5" result="blur-31"/>
      <feFlood flood-color="#ad5dc2"/>
      <feComposite operator="in" in2="blur-31"/>
      <feComposite in="SourceGraphic"/>
    </filter>
    <filter id="Line_14" x="12.846" y="202.438" width="42.007" height="41.921" filterUnits="userSpaceOnUse">
      <feOffset input="SourceAlpha"/>
      <feGaussianBlur stdDeviation="5" result="blur-32"/>
      <feFlood flood-color="#ad5dc2"/>
      <feComposite operator="in" in2="blur-32"/>
      <feComposite in="SourceGraphic"/>
    </filter>
    <filter id="Line_15" x="43.939" y="201.845" width="41.921" height="42.007" filterUnits="userSpaceOnUse">
      <feOffset input="SourceAlpha"/>
      <feGaussianBlur stdDeviation="5" result="blur-33"/>
      <feFlood flood-color="#ad5dc2"/>
      <feComposite operator="in" in2="blur-33"/>
      <feComposite in="SourceGraphic"/>
    </filter>
    <filter id="Line_16" x="12.846" y="170.838" width="42.007" height="41.921" filterUnits="userSpaceOnUse">
      <feOffset input="SourceAlpha"/>
      <feGaussianBlur stdDeviation="5" result="blur-34"/>
      <feFlood flood-color="#ad5dc2"/>
      <feComposite operator="in" in2="blur-34"/>
      <feComposite in="SourceGraphic"/>
    </filter>
    <filter id="Path_28" x="21.35" y="32.948" width="56.7" height="44.9" filterUnits="userSpaceOnUse">
      <feOffset input="SourceAlpha"/>
      <feGaussianBlur stdDeviation="3" result="blur-35"/>
      <feFlood flood-color="#87c930"/>
      <feComposite operator="in" in2="blur-35"/>
      <feComposite in="SourceGraphic"/>
    </filter>
    <filter id="Path_30" x="169.55" y="170.948" width="71" height="103" filterUnits="userSpaceOnUse">
      <feOffset input="SourceAlpha"/>
      <feGaussianBlur stdDeviation="10" result="blur-36"/>
      <feFlood flood-color="#87c930"/>
      <feComposite operator="in" in2="blur-36"/>
      <feComposite in="SourceGraphic"/>
    </filter>
    <filter id="Path_31" x="198.55" y="160.648" width="91" height="102.7" filterUnits="userSpaceOnUse">
      <feOffset input="SourceAlpha"/>
      <feGaussianBlur stdDeviation="10" result="blur-37"/>
      <feFlood flood-color="#87c930"/>
      <feComposite operator="in" in2="blur-37"/>
      <feComposite in="SourceGraphic"/>
    </filter>
    <filter id="Path_32" x="221.25" y="137.948" width="102.8" height="91" filterUnits="userSpaceOnUse">
      <feOffset input="SourceAlpha"/>
      <feGaussianBlur stdDeviation="10" result="blur-38"/>
      <feFlood flood-color="#87c930"/>
      <feComposite operator="in" in2="blur-38"/>
      <feComposite in="SourceGraphic"/>
    </filter>
    <filter id="Path_33" x="231.55" y="108.948" width="103" height="71" filterUnits="userSpaceOnUse">
      <feOffset input="SourceAlpha"/>
      <feGaussianBlur stdDeviation="10" result="blur-39"/>
      <feFlood flood-color="#87c930"/>
      <feComposite operator="in" in2="blur-39"/>
      <feComposite in="SourceGraphic"/>
    </filter>
    <filter id="Path_34" x="236.25" y="74.948" width="72.8" height="61" filterUnits="userSpaceOnUse">
      <feOffset input="SourceAlpha"/>
      <feGaussianBlur stdDeviation="5" result="blur-40"/>
      <feFlood flood-color="#ad5dc2"/>
      <feComposite operator="in" in2="blur-40"/>
      <feComposite in="SourceGraphic"/>
    </filter>
    <filter id="Path_35" x="198.55" y="25.548" width="91" height="102.7" filterUnits="userSpaceOnUse">
      <feOffset input="SourceAlpha"/>
      <feGaussianBlur stdDeviation="10" result="blur-41"/>
      <feFlood flood-color="#ad5dc2"/>
      <feComposite operator="in" in2="blur-41"/>
      <feComposite in="SourceGraphic"/>
    </filter>
    <filter id="Path_36" x="169.55" y="14.948" width="71" height="103" filterUnits="userSpaceOnUse">
      <feOffset input="SourceAlpha"/>
      <feGaussianBlur stdDeviation="10" result="blur-42"/>
      <feFlood flood-color="#ad5dc2"/>
      <feComposite operator="in" in2="blur-42"/>
      <feComposite in="SourceGraphic"/>
    </filter>
    <filter id="Rectangle_22" x="211.375" y="208.067" width="26.306" height="33.746" filterUnits="userSpaceOnUse">
      <feOffset input="SourceAlpha"/>
      <feGaussianBlur stdDeviation="3" result="blur-43"/>
      <feFlood flood-color="#87c930"/>
      <feComposite operator="in" in2="blur-43"/>
      <feComposite in="SourceGraphic"/>
    </filter>
    <filter id="Rectangle_23" x="247.219" y="187.539" width="31.921" height="32.351" filterUnits="userSpaceOnUse">
      <feOffset input="SourceAlpha"/>
      <feGaussianBlur stdDeviation="3" result="blur-44"/>
      <feFlood flood-color="#87c930"/>
      <feComposite operator="in" in2="blur-44"/>
      <feComposite in="SourceGraphic"/>
    </filter>
    <filter id="Rectangle_24" x="269.173" y="151.528" width="33.798" height="26.958" filterUnits="userSpaceOnUse">
      <feOffset input="SourceAlpha"/>
      <feGaussianBlur stdDeviation="3" result="blur-45"/>
      <feFlood flood-color="#87c930"/>
      <feComposite operator="in" in2="blur-45"/>
      <feComposite in="SourceGraphic"/>
    </filter>
    <filter id="Rectangle_25" x="269.067" y="108.549" width="33.761" height="26.448" filterUnits="userSpaceOnUse">
      <feOffset input="SourceAlpha"/>
      <feGaussianBlur stdDeviation="3" result="blur-46"/>
      <feFlood flood-color="#87c930"/>
      <feComposite operator="in" in2="blur-46"/>
      <feComposite in="SourceGraphic"/>
    </filter>
    <filter id="Rectangle_26" x="240.87" y="58.939" width="44.077" height="44.206" filterUnits="userSpaceOnUse">
      <feOffset input="SourceAlpha"/>
      <feGaussianBlur stdDeviation="5" result="blur-47"/>
      <feFlood flood-color="#ad5dc2"/>
      <feComposite operator="in" in2="blur-47"/>
      <feComposite in="SourceGraphic"/>
    </filter>
    <filter id="Rectangle_27" x="212.091" y="39.266" width="39.793" height="45.807" filterUnits="userSpaceOnUse">
      <feOffset input="SourceAlpha"/>
      <feGaussianBlur stdDeviation="5" result="blur-48"/>
      <feFlood flood-color="#ad5dc2"/>
      <feComposite operator="in" in2="blur-48"/>
      <feComposite in="SourceGraphic"/>
    </filter>
    <filter id="Path_37" x="224.55" y="63.948" width="99.5" height="87" filterUnits="userSpaceOnUse">
      <feOffset input="SourceAlpha"/>
      <feGaussianBlur stdDeviation="10" result="blur-49"/>
      <feFlood flood-color="#87c930"/>
      <feComposite operator="in" in2="blur-49"/>
      <feComposite in="SourceGraphic"/>
    </filter>
  </defs>
  <g id="home_page_block_3_speed_gauge_icon_glow" data-name="home_page_block 3_speed gauge icon_glow" transform="translate(15.05 15.048)">
    <g id="Group_3" data-name="Group 3">
      <g class="cls-53" transform="matrix(1, 0, 0, 1, -15.05, -15.05)">
        <path id="Path_9-2" data-name="Path 9" class="cls-1" d="M190,220.9a92.236,92.236,0,0,1-74-37" transform="translate(15.05 15.05)"/>
      </g>
      <g class="cls-52" transform="matrix(1, 0, 0, 1, -15.05, -15.05)">
        <path id="Path_10-2" data-name="Path 10" class="cls-2" d="M190,202.4a73.9,73.9,0,0,1-66.7-41.9" transform="translate(15.05 15.05)"/>
      </g>
      <g class="cls-51" transform="matrix(1, 0, 0, 1, -15.05, -15.05)">
        <path id="Path_11-2" data-name="Path 11" class="cls-1" d="M190,36.5a92.236,92.236,0,0,0-74,37" transform="translate(15.05 15.05)"/>
      </g>
      <g class="cls-50" transform="matrix(1, 0, 0, 1, -15.05, -15.05)">
        <path id="Path_12-2" data-name="Path 12" class="cls-2" d="M190,55a73.9,73.9,0,0,0-66.7,41.9" transform="translate(15.05 15.05)"/>
      </g>
      <g class="cls-49" transform="matrix(1, 0, 0, 1, -15.05, -15.05)">
        <path id="Path_13-2" data-name="Path 13" class="cls-1" d="M222,20.9H159a3.543,3.543,0,0,1-3.5-3.5V8.9A3.543,3.543,0,0,1,159,5.4h63a3.543,3.543,0,0,1,3.5,3.5v8.5A3.478,3.478,0,0,1,222,20.9Z" transform="translate(15.05 15.05)"/>
      </g>
      <g class="cls-48" transform="matrix(1, 0, 0, 1, -15.05, -15.05)">
        <path id="Path_14-2" data-name="Path 14" class="cls-1" d="M261.2,39.4,243.1,26.6a3.508,3.508,0,0,1-.8-4.9l5.2-7.3a3.508,3.508,0,0,1,4.9-.8l18.1,12.8a3.508,3.508,0,0,1,.8,4.9l-5.2,7.3A3.6,3.6,0,0,1,261.2,39.4Z" transform="translate(15.05 15.05)"/>
      </g>
    </g>
    <g id="Group_4" data-name="Group 4">
      <path id="Path_15" data-name="Path 15" class="cls-3" d="M191.8,134.3a5.478,5.478,0,1,1-6.1-9.1c2.5-1.7,29.2-13,29.2-13S194.4,132.6,191.8,134.3Z"/>
    </g>
    <g id="Speed_streaks" data-name="Speed streaks">
      <g class="cls-47" transform="matrix(1, 0, 0, 1, -15.05, -15.05)">
        <rect id="Rectangle_17-2" data-name="Rectangle 17" class="cls-4" width="61.5" height="10" transform="translate(120.55 155.45)"/>
      </g>
      <g class="cls-46" transform="matrix(1, 0, 0, 1, -15.05, -15.05)">
        <rect id="Rectangle_18-2" data-name="Rectangle 18" class="cls-4" width="85" height="10" transform="translate(97.55 138.95)"/>
      </g>
      <g class="cls-45" transform="matrix(1, 0, 0, 1, -15.05, -15.05)">
        <rect id="Rectangle_19-2" data-name="Rectangle 19" class="cls-4" width="56" height="10" transform="translate(126.55 121.95)"/>
      </g>
    </g>
    <g id="Fill_up_Bar_1_">
      <g class="cls-44" transform="matrix(1, 0, 0, 1, -15.05, -15.05)">
        <rect id="Rectangle_20-2" data-name="Rectangle 20" class="cls-4" width="27.4" height="27.4" transform="translate(48.73 109.1) rotate(45)"/>
      </g>
      <g class="cls-43" transform="matrix(1, 0, 0, 1, -15.05, -15.05)">
        <rect id="Rectangle_21-2" data-name="Rectangle 21" class="cls-4" width="27.4" height="27.4" transform="translate(49.73 188.1) rotate(45)"/>
      </g>
      <g class="cls-42" transform="matrix(1, 0, 0, 1, -15.05, -15.05)">
        <line id="Line_3-2" data-name="Line 3" class="cls-2" y2="16.9" transform="translate(49.35 80.85)"/>
      </g>
      <g id="Group_6" data-name="Group 6">
        <line id="Line_4" data-name="Line 4" class="cls-2" x2="10.5" y2="10.6" transform="translate(44.6 13.5)"/>
        <g id="Group_5" data-name="Group 5">
          <g class="cls-41" transform="matrix(1, 0, 0, 1, -15.05, -15.05)">
            <path id="Path_16-2" data-name="Path 16" class="cls-1" d="M27.7,10.5l6.9-7L41,9.9" transform="translate(15.05 15.05)"/>
          </g>
          <g class="cls-40" transform="matrix(1, 0, 0, 1, -15.05, -15.05)">
            <path id="Path_17-2" data-name="Path 17" class="cls-1" d="M58.5,28.5l6.9,6.9L59,41.8" transform="translate(15.05 15.05)"/>
          </g>
          <g class="cls-39" transform="matrix(1, 0, 0, 1, -15.05, -15.05)">
            <path id="Path_18-2" data-name="Path 18" class="cls-1" d="M41.8,58.5l-6.9,6.9L28.5,59" transform="translate(15.05 15.05)"/>
          </g>
          <g class="cls-38" transform="matrix(1, 0, 0, 1, -15.05, -15.05)">
            <path id="Path_19-2" data-name="Path 19" class="cls-1" d="M10.5,41l-7-7,6.4-6.3" transform="translate(15.05 15.05)"/>
          </g>
          <g class="cls-37" transform="matrix(1, 0, 0, 1, -15.05, -15.05)">
            <line id="Line_5-2" data-name="Line 5" class="cls-2" x2="10.6" y2="10.5" transform="translate(28.55 59.65)"/>
          </g>
          <g class="cls-36" transform="matrix(1, 0, 0, 1, -15.05, -15.05)">
            <line id="Line_6-2" data-name="Line 6" class="cls-2" x1="10.5" y2="10.6" transform="translate(59.65 59.05)"/>
          </g>
          <g class="cls-35" transform="matrix(1, 0, 0, 1, -15.05, -15.05)">
            <line id="Line_7-2" data-name="Line 7" class="cls-2" x1="10.6" y2="10.5" transform="translate(28.55 28.05)"/>
          </g>
        </g>
      </g>
      <g id="Group_8" data-name="Group 8">
        <g class="cls-34" transform="matrix(1, 0, 0, 1, -15.05, -15.05)">
          <line id="Line_8-2" data-name="Line 8" class="cls-2" x2="10.5" y2="10.5" transform="translate(59.65 107.85)"/>
        </g>
        <g id="Group_7" data-name="Group 7">
          <g class="cls-33" transform="matrix(1, 0, 0, 1, -15.05, -15.05)">
            <path id="Path_20-2" data-name="Path 20" class="cls-1" d="M27.7,89.7l6.9-6.9L41,89.2" transform="translate(15.05 15.05)"/>
          </g>
          <g class="cls-32" transform="matrix(1, 0, 0, 1, -15.05, -15.05)">
            <path id="Path_21-2" data-name="Path 21" class="cls-1" d="M58.5,107.7l6.9,7L59,121.1" transform="translate(15.05 15.05)"/>
          </g>
          <g class="cls-31" transform="matrix(1, 0, 0, 1, -15.05, -15.05)">
            <path id="Path_22-2" data-name="Path 22" class="cls-1" d="M41.8,137.7l-6.9,6.9-6.4-6.3" transform="translate(15.05 15.05)"/>
          </g>
          <g class="cls-30" transform="matrix(1, 0, 0, 1, -15.05, -15.05)">
            <path id="Path_23-2" data-name="Path 23" class="cls-1" d="M10.5,120.2l-7-6.9,6.4-6.4" transform="translate(15.05 15.05)"/>
          </g>
          <g class="cls-29" transform="matrix(1, 0, 0, 1, -15.05, -15.05)">
            <line id="Line_9-2" data-name="Line 9" class="cls-2" x2="10.6" y2="10.6" transform="translate(28.55 138.85)"/>
          </g>
          <g class="cls-28" transform="matrix(1, 0, 0, 1, -15.05, -15.05)">
            <line id="Line_10-2" data-name="Line 10" class="cls-2" x1="10.5" y2="10.5" transform="translate(59.65 138.35)"/>
          </g>
          <g class="cls-27" transform="matrix(1, 0, 0, 1, -15.05, -15.05)">
            <line id="Line_11-2" data-name="Line 11" class="cls-2" x1="10.6" y2="10.6" transform="translate(28.55 107.25)"/>
          </g>
        </g>
      </g>
      <line id="Line_12" data-name="Line 12" class="cls-2" y2="16.9" transform="translate(34.3 145.1)"/>
      <g id="Group_10" data-name="Group 10">
        <line id="Line_13" data-name="Line 13" class="cls-2" x2="10.5" y2="10.6" transform="translate(44.6 172)"/>
        <g id="Group_9" data-name="Group 9">
          <g class="cls-26" transform="matrix(1, 0, 0, 1, -15.05, -15.05)">
            <path id="Path_24-2" data-name="Path 24" class="cls-1" d="M27.7,169l6.9-7,6.4,6.4" transform="translate(15.05 15.05)"/>
          </g>
          <g class="cls-25" transform="matrix(1, 0, 0, 1, -15.05, -15.05)">
            <path id="Path_25-2" data-name="Path 25" class="cls-1" d="M58.5,187l6.9,6.9L59,200.3" transform="translate(15.05 15.05)"/>
          </g>
          <g class="cls-24" transform="matrix(1, 0, 0, 1, -15.05, -15.05)">
            <path id="Path_26-2" data-name="Path 26" class="cls-1" d="M41.8,217l-6.9,6.9-6.4-6.4" transform="translate(15.05 15.05)"/>
          </g>
          <g class="cls-23" transform="matrix(1, 0, 0, 1, -15.05, -15.05)">
            <path id="Path_27-2" data-name="Path 27" class="cls-1" d="M10.5,199.5l-7-7,6.4-6.3" transform="translate(15.05 15.05)"/>
          </g>
          <g class="cls-22" transform="matrix(1, 0, 0, 1, -15.05, -15.05)">
            <line id="Line_14-2" data-name="Line 14" class="cls-2" x2="10.6" y2="10.5" transform="translate(28.55 218.15)"/>
          </g>
          <g class="cls-21" transform="matrix(1, 0, 0, 1, -15.05, -15.05)">
            <line id="Line_15-2" data-name="Line 15" class="cls-2" x1="10.5" y2="10.6" transform="translate(59.65 217.55)"/>
          </g>
          <g class="cls-20" transform="matrix(1, 0, 0, 1, -15.05, -15.05)">
            <line id="Line_16-2" data-name="Line 16" class="cls-2" x1="10.6" y2="10.5" transform="translate(28.55 186.55)"/>
          </g>
        </g>
      </g>
      <g class="cls-19" transform="matrix(1, 0, 0, 1, -15.05, -15.05)">
        <path id="Path_28-2" data-name="Path 28" class="cls-4" d="M22.8,26.9l-7.5,7.5L34.7,53.8,54,34.4l-7.5-7.5Z" transform="translate(15.05 15.05)"/>
      </g>
    </g>
    <path id="Path_29" data-name="Path 29" d="M189.5,43.9"/>
    <g id="Gauge_1_">
      <g class="cls-18" transform="matrix(1, 0, 0, 1, -15.05, -15.05)">
        <path id="Path_30-2" data-name="Path 30" class="cls-4" d="M186.8,185.9h-2.3v43h11v-43h-2.4" transform="translate(15.05 15.05)"/>
      </g>
      <g class="cls-17" transform="matrix(1, 0, 0, 1, -15.05, -15.05)">
        <path id="Path_31-2" data-name="Path 31" class="cls-4" d="M215.5,179.9l-2,1.2L235,218.3l9.5-5.5L223,175.6l-2,1.2" transform="translate(15.05 15.05)"/>
      </g>
      <g class="cls-16" transform="matrix(1, 0, 0, 1, -15.05, -15.05)">
        <path id="Path_32-2" data-name="Path 32" class="cls-4" d="M237.4,160.4l-1.2,2,37.3,21.5,5.5-9.5-37.3-21.5-1.2,2.1" transform="translate(15.05 15.05)"/>
      </g>
      <g class="cls-15" transform="matrix(1, 0, 0, 1, -15.05, -15.05)">
        <path id="Path_33-2" data-name="Path 33" class="cls-4" d="M246.5,132.6v2.3h43v-11h-43v2.4" transform="translate(15.05 15.05)"/>
      </g>
      <g class="cls-14" transform="matrix(1, 0, 0, 1, -15.05, -15.05)">
        <path id="Path_34-2" data-name="Path 34" class="cls-3" d="M240.6,103.9l1.1,2L279,84.4l-5.5-9.5L236.2,96.4l1.2,2.1" transform="translate(15.05 15.05)"/>
      </g>
      <g class="cls-13" transform="matrix(1, 0, 0, 1, -15.05, -15.05)">
        <path id="Path_35-2" data-name="Path 35" class="cls-3" d="M221.1,82.1l1.9,1.1L244.5,46,235,40.5,213.5,77.7l2.1,1.2" transform="translate(15.05 15.05)"/>
      </g>
      <g class="cls-12" transform="matrix(1, 0, 0, 1, -15.05, -15.05)">
        <path id="Path_36-2" data-name="Path 36" class="cls-3" d="M193.2,72.9h2.3v-43h-11v43h2.4" transform="translate(15.05 15.05)"/>
      </g>
      <g class="cls-11" transform="matrix(1, 0, 0, 1, -15.05, -15.05)">
        <rect id="Rectangle_22-2" data-name="Rectangle 22" class="cls-4" width="5" height="15" transform="translate(220.38 218.21) rotate(-13.26)"/>
      </g>
      <g class="cls-10" transform="matrix(1, 0, 0, 1, -15.05, -15.05)">
        <rect id="Rectangle_23-2" data-name="Rectangle 23" class="cls-4" width="5" height="15" transform="matrix(0.73, -0.69, 0.69, 0.73, 256.22, 199.97)"/>
      </g>
      <g class="cls-9" transform="matrix(1, 0, 0, 1, -15.05, -15.05)">
        <rect id="Rectangle_24-2" data-name="Rectangle 24" class="cls-4" width="5" height="15" transform="translate(278.17 165.33) rotate(-73.92)"/>
      </g>
      <g class="cls-8" transform="matrix(1, 0, 0, 1, -15.05, -15.05)">
        <rect id="Rectangle_25-2" data-name="Rectangle 25" class="cls-4" width="15" height="5" transform="translate(278.07 121.14) rotate(-13.86)"/>
      </g>
      <g class="cls-7" transform="matrix(1, 0, 0, 1, -15.05, -15.05)">
        <rect id="Rectangle_26-2" data-name="Rectangle 26" class="cls-3" width="15" height="5" transform="translate(255.87 84.64) rotate(-45.52)"/>
      </g>
      <g class="cls-6" transform="matrix(1, 0, 0, 1, -15.05, -15.05)">
        <rect id="Rectangle_27-2" data-name="Rectangle 27" class="cls-3" width="15" height="5" transform="matrix(0.34, -0.94, 0.94, 0.34, 227.09, 68.38)"/>
      </g>
      <g class="cls-5" transform="matrix(1, 0, 0, 1, -15.05, -15.05)">
        <path id="Path_37-2" data-name="Path 37" class="cls-4" d="M239.5,100.9l2.2,5L279,84.4l-3.5-5.5" transform="translate(15.05 15.05)"/>
      </g>
    </g>
  </g>
</svg>
