<svg xmlns="http://www.w3.org/2000/svg" viewBox="0 0 180 58.662">
  <defs>
    <style>
      .cls-1 {
        fill: #fff;
      }

      .cls-2 {
        fill: #87c930;
      }
    </style>
  </defs>
  <g id="customer_page_hgs_logo_black" data-name="customer page_hgs logo_black" transform="translate(0.011 -0.01)">
    <path id="Path_437" data-name="Path 437" class="cls-1" d="M438.365,2.859c-2.692,15.208-5.383,30.333-8.063,45.494H414.411c1.042-5.808,2.083-11.58,3.136-17.446h-.761c-5.289,0-10.567.012-15.856-.012-.62,0-.819.188-.924.777-.948,5.407-1.931,10.814-2.89,16.221-.058.342-.152.507-.538.495q-7.407-.018-14.8-.012a2.491,2.491,0,0,1-.375-.047c.375-2.109.737-4.194,1.1-6.279q3.388-19.225,6.764-38.438c.105-.624.3-.813.948-.813,4.7.035,9.4.024,14.1.024h.784c-1.006,5.513-1.989,10.944-3,16.433h17.448c.281-1.567.562-3.122.843-4.677.667-3.77,1.346-7.527,2-11.3.059-.318.164-.471.527-.459q7.548.018,15.1.012A.979.979,0,0,1,438.365,2.859Z" transform="translate(-336.779 -2.462)"/>
    <path id="Path_438" data-name="Path 438" class="cls-1" d="M902.411,11.092c-3.651,1.732-7.244,3.44-10.883,5.171-.222-.353-.421-.683-.644-1a9.171,9.171,0,0,0-7.161-4.111c-6.647-.648-12.3,5.042-13.586,9.942a20.551,20.551,0,0,0-.491,9.718,7.669,7.669,0,0,0,6.495,6.349,13,13,0,0,0,12.416-4.005,9.611,9.611,0,0,0,2.13-3.734H879.148c.55-3.11,1.088-6.114,1.627-9.153h22.912c-.058.872-.082,1.708-.187,2.544a27.3,27.3,0,0,1-12.486,20.2,22.706,22.706,0,0,1-10.707,3.452,27.341,27.341,0,0,1-10.157-.7,17.508,17.508,0,0,1-12.4-14.371c-1.112-9.365,2.024-17.1,8.893-23.407A26.125,26.125,0,0,1,883.4,1.126a22.059,22.059,0,0,1,9.221,1.1,17.226,17.226,0,0,1,9.607,8.505A1.29,1.29,0,0,1,902.411,11.092Z" transform="translate(-757.189 -0.929)"/>
    <path id="Path_439" data-name="Path 439" class="cls-1" d="M1231.6,39.188c2.27-2.969,4.517-5.9,6.822-8.906.8.883,1.556,1.72,2.294,2.58A10.371,10.371,0,0,0,1245.174,36a6.782,6.782,0,0,0,8.215-3.251c.866-1.849.7-3.84-1.5-4.865a25.322,25.322,0,0,0-3.651-1.39,28.048,28.048,0,0,1-7.279-3.428c-2.071-1.331-2.762-3.393-2.914-5.737-.644-9.589,6.26-15.29,12.86-16.739a19.487,19.487,0,0,1,15.037,2.274c.515.318.995.683,1.533,1.048l-5.231,8.635c-.515-.424-.995-.789-1.439-1.19a8.763,8.763,0,0,0-5.113-2.25c-2.025-.188-4.014.071-5.43,1.8a4.508,4.508,0,0,0-.878,1.755,2.528,2.528,0,0,0,1.521,3.192,21.576,21.576,0,0,0,3.288,1.213,31.244,31.244,0,0,1,7,2.933,7.5,7.5,0,0,1,3.967,6.856,17.262,17.262,0,0,1-4.657,12.734,18.682,18.682,0,0,1-11.5,5.737,22.434,22.434,0,0,1-9.444-.589A17.892,17.892,0,0,1,1231.6,39.188Z" transform="translate(-1087.489)"/>
    <path id="Path_440" data-name="Path 440" d="M156.515,266.723c.023.035.059.082.082.118.4.9.784,1.779,1.182,2.674l-.012-.012c.105.471.2.954.316,1.425.105.436.047.7-.468.789-2.2.377-4.4.789-6.6,1.178-.585.106-1.17.2-1.744.306l.012.012a11.65,11.65,0,0,1-2.153-4.948c-.152-.53.058-.66.515-.695,1.276-.082,2.574-.106,3.838-.271,1.439-.189,2.867-.507,4.306-.742A2.142,2.142,0,0,1,156.515,266.723Z" transform="translate(-129.88 -235.145)"/>
    <path id="Path_441" data-name="Path 441" class="cls-1" d="M1425.569,454.86H1424.2v-5.466a1.6,1.6,0,0,1,2,.73c.573.966,1.3,1.849,1.955,2.78v-3.522h1.369v5.407c-1.006.283-1.346.177-1.919-.613-.679-.942-1.357-1.9-2.06-2.874C1425.557,452.493,1425.569,453.647,1425.569,454.86Z" transform="translate(-1257.552 -396.377)"/>
    <path id="Path_442" data-name="Path 442" class="cls-1" d="M474.267,449.249h1.357v5.466a1.6,1.6,0,0,1-2.024-.766c-.562-.954-1.264-1.814-1.931-2.756v3.546H470.3v-5.4a1.375,1.375,0,0,1,1.9.565c.679.942,1.357,1.9,2.071,2.9Z" transform="translate(-415.276 -396.267)"/>
    <path id="Path_443" data-name="Path 443" class="cls-1" d="M757.676,449.605a5.13,5.13,0,0,0-.62.318.732.732,0,0,1-.971-.059,1.879,1.879,0,0,0-1.252-.212,1.232,1.232,0,0,0-.995,1.166,1.841,1.841,0,0,0,.6,1.967,1.4,1.4,0,0,0,1.6.059,3.219,3.219,0,0,0,.7-.683,1.3,1.3,0,0,1-.094-.177c-.456-.024-.9-.047-1.392-.083v-1.037h2.82a2.643,2.643,0,0,1-1.884,3.157,2.944,2.944,0,1,1,1.486-4.417Z" transform="translate(-664.281 -395.492)"/>
    <path id="Path_444" data-name="Path 444" class="cls-1" d="M857.7,454.219a2.91,2.91,0,1,1,2.914-2.9A2.886,2.886,0,0,1,857.7,454.219Zm1.439-2.886a1.492,1.492,0,1,0-2.961-.012,1.492,1.492,0,1,0,2.961.012Z" transform="translate(-754.693 -395.571)"/>
    <path id="Path_445" data-name="Path 445" class="cls-1" d="M532.9,454.578V448.9a23.8,23.8,0,0,1,3.242.318,2.453,2.453,0,0,1,1.685,2.709,2.4,2.4,0,0,1-2.013,2.462C534.889,454.531,533.93,454.519,532.9,454.578Zm1.428-4.359V452.7a.884.884,0,0,0,.012.353c.058.118.176.259.293.271a1.418,1.418,0,0,0,1.708-1.4C536.422,450.69,535.755,450.09,534.328,450.219Z" transform="translate(-470.551 -396.012)"/>
    <path id="Path_446" data-name="Path 446" class="cls-1" d="M1361.836,454.307a2.9,2.9,0,1,1,2.973-2.886A2.906,2.906,0,0,1,1361.836,454.307Zm1.5-2.886a1.576,1.576,0,0,0-1.474-1.7,1.592,1.592,0,0,0-1.487,1.7,1.49,1.49,0,1,0,2.961,0Z" transform="translate(-1199.892 -395.659)"/>
    <path id="Path_447" data-name="Path 447" class="cls-1" d="M1126.937,454.307a2.9,2.9,0,1,1,2.937-2.91A2.882,2.882,0,0,1,1126.937,454.307Zm1.486-2.886a1.489,1.489,0,1,0-2.949,0,1.485,1.485,0,1,0,2.949,0Z" transform="translate(-992.481 -395.658)"/>
    <path id="Path_448" data-name="Path 448" class="cls-1" d="M384.587,451.885V449.8h1.428v5.478H384.6v-2.2h-2.06v2.2H381.1V449.8h1.4v2.085Z" transform="translate(-336.514 -396.806)"/>
    <path id="Path_449" data-name="Path 449" class="cls-1" d="M919.735,454.666c-.012-.236-.035-.342-.035-.46V449c1.1.071,2.165.106,3.206.236a1.214,1.214,0,0,1,.257,2.215c-.07.035-.117.094-.222.165a1.371,1.371,0,0,1,1.065,1.213,1.356,1.356,0,0,1-1.194,1.649C921.83,454.619,920.812,454.607,919.735,454.666Zm1.322-1.85c0,.707,0,.707.515.707.737,0,1.042-.177,1.053-.636s-.281-.612-1.03-.66C921.057,452.2,921.011,452.475,921.057,452.817Zm.152-2.8c-.07.071-.14.153-.21.224.082.353.058.813.269,1,.164.141.655-.024.948-.165a.749.749,0,0,0,.105-.6A10.459,10.459,0,0,0,921.21,450.013Z" transform="translate(-812.087 -396.1)"/>
    <path id="Path_450" data-name="Path 450" class="cls-1" d="M589.909,449.8h1.381v2.415c0,.353,0,.707.035,1.06.058.66.351.954.936.966.62,0,.948-.306.971-.99.035-1,.023-2,.023-3,0-.13.023-.271.035-.436h1.5c-.07,1.461-.14,2.921-.211,4.37a.658.658,0,0,1-.082.224c-.374.836-1.346,1.19-2.82,1.037-1.006-.106-1.685-.589-1.744-1.508C589.839,452.568,589.909,451.2,589.909,449.8Z" transform="translate(-520.866 -396.806)"/>
    <path id="Path_451" data-name="Path 451" class="cls-1" d="M1234.1,449.8h1.334c0,1.414.082,2.8-.024,4.182-.082,1.025-.936,1.473-2.329,1.473s-2.246-.448-2.329-1.461c-.117-1.378-.023-2.768-.023-4.194h1.357v2.427c0,.33,0,.672.024,1,.059.707.351,1,.971,1.013s.936-.306.971-1c.035-.942.023-1.885.023-2.827A5.579,5.579,0,0,1,1234.1,449.8Z" transform="translate(-1086.692 -396.806)"/>
    <path id="Path_452" data-name="Path 452" class="cls-1" d="M685.664,455.06c-.316,0-.562-.024-.819,0-.445.047-.76-.047-.807-.565-.023-.342-.234-.471-.562-.436a3.908,3.908,0,0,1-.527,0c-.725-.024-1.521-.177-1.486.978H680c.176-.518.339-1,.5-1.472.41-1.2.831-2.4,1.229-3.616a.554.554,0,0,1,.632-.448c1.393,0,1.393-.024,1.837,1.284C684.693,452.186,685.172,453.587,685.664,455.06Zm-2.048-2.1c-.257-.848-.492-1.626-.772-2.568-.281.954-.5,1.732-.749,2.568Z" transform="translate(-600.437 -396.541)"/>
    <path id="Path_453" data-name="Path 453" class="cls-1" d="M971.252,455.018c-.351,0-.585-.024-.807,0-.445.047-.761-.047-.8-.565-.024-.33-.222-.471-.562-.436a4.362,4.362,0,0,1-.878,0c-.585-.071-1.03.024-1.112.742-.012.094-.234.236-.363.247-.351.035-.7.012-1.135.012.2-.577.374-1.107.55-1.637.4-1.166.807-2.332,1.194-3.5a.531.531,0,0,1,.585-.424c1.416-.024,1.416-.035,1.872,1.319C970.269,452.155,970.749,453.534,971.252,455.018Zm-3.593-2.1h1.533c-.257-.836-.491-1.614-.772-2.568C968.139,451.319,967.905,452.1,967.66,452.921Z" transform="translate(-852.616 -396.499)"/>
    <path id="Path_454" data-name="Path 454" class="cls-1" d="M1483.3,453.442c.187-.318.386-.648.585-.966a5.172,5.172,0,0,0,.983.589c.4.141.854.165,1.042-.33.187-.518-.187-.742-.609-.872-.222-.071-.445-.13-.667-.212a1.373,1.373,0,0,1-1.077-1.59,1.676,1.676,0,0,1,1.31-1.543,2.8,2.8,0,0,1,2.177.448c-.129.295-.269.613-.4.931a3.614,3.614,0,0,0-1.007-.306.872.872,0,0,0-.679.377c-.175.342.152.507.445.613.234.082.479.141.725.224a1.424,1.424,0,0,1,1.17,1.3,1.836,1.836,0,0,1-.878,1.908A2.658,2.658,0,0,1,1483.3,453.442Z" transform="translate(-1309.736 -395.618)"/>
    <path id="Path_455" data-name="Path 455" class="cls-1" d="M1077.9,453.249c.187-.318.386-.648.6-1.013a3.01,3.01,0,0,0,.538.4,2.232,2.232,0,0,0,.924.259.775.775,0,0,0,.562-.459.834.834,0,0,0-.339-.648,3.754,3.754,0,0,0-.924-.342,1.368,1.368,0,0,1-1.112-1.4,1.671,1.671,0,0,1,1.124-1.685,2.658,2.658,0,0,1,2.375.353c-.152.353-.293.66-.409.942a4.862,4.862,0,0,0-1.1-.306c-.2,0-.41.259-.62.4.141.188.234.436.421.554a3.965,3.965,0,0,0,.819.283,1.432,1.432,0,0,1,1.158,1.437,1.837,1.837,0,0,1-1.03,1.826A2.633,2.633,0,0,1,1077.9,453.249Z" transform="translate(-951.775 -395.413)"/>
    <path id="Path_456" data-name="Path 456" class="cls-1" d="M1288.6,451.1c-.41.023-.772.035-1.205.059v4.206h-1.463V451.16c-.445-.023-.819-.047-1.229-.071V449.9h3.885C1288.6,450.3,1288.6,450.666,1288.6,451.1Z" transform="translate(-1134.375 -396.894)"/>
    <path id="Path_457" data-name="Path 457" class="cls-1" d="M818.24,454.141h1.849v1.225H816.8V449.9h1.439Z" transform="translate(-721.229 -396.894)"/>
    <path id="Path_458" data-name="Path 458" class="cls-1" d="M1189.2,455.278V449.8h1.416v4.241h1.849v1.249C1191.388,455.278,1190.312,455.278,1189.2,455.278Z" transform="translate(-1050.051 -396.806)"/>
    <path id="Path_459" data-name="Path 459" class="cls-1" d="M1025.5,449.8h1.4v3.487c0,.766,0,.766.76.766h1.088v1.225H1025.5Z" transform="translate(-905.507 -396.806)"/>
    <path id="Path_460" data-name="Path 460" class="cls-1" d="M642.1,454.671c.269-.247.5-.471.69-.648.269.13.5.224.725.33a2.892,2.892,0,0,0,.281-.766c.035-1.213.012-2.427.012-3.687h1.439c0,1.461.047,2.91-.023,4.347a1.377,1.377,0,0,1-1.194,1.272A1.759,1.759,0,0,1,642.1,454.671Z" transform="translate(-566.972 -396.894)"/>
    <path id="Path_461" data-name="Path 461" class="cls-1" d="M1333.192,455.289H1331.8V449.8h1.393Z" transform="translate(-1175.964 -396.806)"/>
    <path id="Path_462" data-name="Path 462" class="cls-1" d="M442.2,455.289h-1.4V449.8h1.4Z" transform="translate(-389.228 -396.806)"/>
    <g id="Group_202" data-name="Group 202" transform="translate(-0.011 0.316)">
      <path id="Path_463" data-name="Path 463" class="cls-2" d="M44.329,25.314a9.661,9.661,0,0,0-3.71-6.078,14.729,14.729,0,0,0-4.54-2.132c-.55-.165-1.112-.318-1.7-.483,1.077.613,2.165,1.119,3.136,1.791a5.061,5.061,0,0,1,1.6,6.667,11.645,11.645,0,0,1-3.534,3.946,22.6,22.6,0,0,1-2.223,1.461,32.377,32.377,0,0,1-11.8,3.923,35.546,35.546,0,0,1-5.395.259,1.02,1.02,0,0,0,0-.377c-.445-1.873-1.018-3.711-1.346-5.6a30.822,30.822,0,0,1,.41-13.594,14.371,14.371,0,0,1,2.972-6A5.435,5.435,0,0,1,25.7,8.233a13.149,13.149,0,0,1,2.177,1.944c.749.813,1.381,1.732,2.106,2.662a1.626,1.626,0,0,0-.07-.318,23.075,23.075,0,0,0-3.23-5.772C24.6,4.1,22.06,2.472,18.526,2.625a7.57,7.57,0,0,0-6.319,3.2,20.961,20.961,0,0,0-1.989,3.581A29.582,29.582,0,0,0,8.029,20.189a.943.943,0,0,1-.5.872,49.341,49.341,0,0,0-4.248,3A7.974,7.974,0,0,0,.013,30.956c.035.483-.07.99,0,1.472a8.692,8.692,0,0,0,.515,2.144,7.01,7.01,0,0,0,3.16,3.122,16.353,16.353,0,0,0,2.258,1.048h0S7.76,39.85,12.3,40.274a18.429,18.429,0,0,0,5.079,6.467,6.756,6.756,0,0,0,7.009.872c.269-.118.538-.224.819-.318,3.791-1.3,5.231-4.512,6.471-7.9a6.022,6.022,0,0,0-.386.565,26.353,26.353,0,0,1-2.165,2.91A4.906,4.906,0,0,1,24,44.15a8.126,8.126,0,0,1-4.1-2.98,7.068,7.068,0,0,1-.5-.8c-.14,0-.269-.012-.41-.024.211-.012.433-.024.655-.047,10.005-.707,15.879-4.217,15.879-4.217h0c.456-.236.913-.483,1.357-.742A20.454,20.454,0,0,0,42.807,30.6,6.206,6.206,0,0,0,44.329,25.314ZM7.947,32.947A9.611,9.611,0,0,1,5.829,31.51,4.962,4.962,0,0,1,5,24.336a38.9,38.9,0,0,1,2.8-3.11c.07.047.14.082.211.13a50.615,50.615,0,0,0,1.6,12.263A14.482,14.482,0,0,1,7.947,32.947Z" transform="translate(0.011 -2.616)"/>
      <path id="Path_464" data-name="Path 464" class="cls-2" d="M165.8,323a.011.011,0,0,0,.012.012h.012A.041.041,0,0,1,165.8,323Z" transform="translate(-146.397 -285.259)"/>
    </g>
  </g>
</svg>
