<svg xmlns="http://www.w3.org/2000/svg" viewBox="0 0 60 60"><defs><style>.cls-1{fill:none;stroke:#87c930;stroke-linecap:round;stroke-linejoin:round;stroke-width:2px;}</style></defs><title>Asset 138</title><g id="Layer_2" data-name="Layer 2"><g id="Layer_3" data-name="Layer 3"><path class="cls-1" d="M25,37.6s-3.8-1.3-3.8-7.6c-2.1,0-2.1-5,0-5,0-.9-3.8-10.1,2.5-8.9,1.3-5,15.1-5,16.4,0s-1.3,8.2-1.3,8.9c2.1,0,2.1,5,0,5,0,6.3-3.8,7.6-3.8,7.6v6.3c6.3,2.3,12.5,4.3,15.6,6.5A29,29,0,1,0,1,30,28.7,28.7,0,0,0,9.4,50.4c3.3-2.3,10-4.4,15.6-6.5Z"/><path class="cls-1" d="M9.4,50.4a29,29,0,0,0,41.2,0"/></g></g></svg>