<svg xmlns="http://www.w3.org/2000/svg" viewBox="0 0 21 18.917">
  <defs>
    <style>
      .cls-1, .cls-2 {
        fill: none;
        stroke: #fff;
        stroke-miterlimit: 10;
      }

      .cls-1 {
        stroke-linecap: round;
        stroke-linejoin: round;
      }

      .cls-2 {
        fill-rule: evenodd;
      }
    </style>
  </defs>
  <g id="career_page_block_1_culture_icon" data-name="career_page_block 1_culture icon" transform="translate(28.5 29.5)">
    <line id="Line_172" data-name="Line 172" class="cls-1" y1="0.417" x2="0.417" transform="translate(-23.521 -19.688)"/>
    <line id="Line_173" data-name="Line 173" class="cls-1" y1="1.771" x2="1.792" transform="translate(-26.625 -17.958)"/>
    <line id="Line_174" data-name="Line 174" class="cls-1" y1="1.438" x2="1.458" transform="translate(-26.625 -19.688)"/>
    <line id="Line_175" data-name="Line 175" class="cls-1" y1="1.438" x2="1.458" transform="translate(-16.292 -14.167)"/>
    <line id="Line_176" data-name="Line 176" class="cls-1" y1="0.063" x2="0.063" transform="translate(-24.208 -18.646)"/>
    <path id="Path_360" data-name="Path 360" class="cls-1" d="M78.1,106.347a1.3,1.3,0,0,1,1.292,0l1.1.688a1.3,1.3,0,0,0,1.292,0l1.1-.687a1.3,1.3,0,0,1,1.292,0l1.1.688a1.3,1.3,0,0,0,1.292,0l1.1-.687a1.3,1.3,0,0,1,1.292,0l1.1.688a1.3,1.3,0,0,0,1.292,0l1.1-.687" transform="translate(-106.1 -128.264)"/>
    <path id="Path_361" data-name="Path 361" class="cls-2" d="M78.746,73H91.933a.649.649,0,0,1,.646.646v2.1h2.5A3.023,3.023,0,0,1,98.1,78.771V82.4a3.023,3.023,0,0,1-3.021,3.021h-2.5v2.917A2.6,2.6,0,0,1,90,90.917H80.683A2.6,2.6,0,0,1,78.1,88.333V73.646A.649.649,0,0,1,78.746,73Zm13.833,9.646h1.958a.791.791,0,0,0,.792-.792V79.313a.791.791,0,0,0-.792-.792H92.579Z" transform="translate(-106.1 -102)"/>
  </g>
</svg>
