<svg xmlns="http://www.w3.org/2000/svg" xmlns:xlink="http://www.w3.org/1999/xlink" viewBox="0 0 72 71.637">
  <defs>
    <style>
      .cls-1 {
        fill: #fff;
      }

      .cls-2 {
        fill: none;
        stroke: #fff;
        stroke-linecap: round;
        stroke-linejoin: round;
        stroke-miterlimit: 10;
        stroke-width: 2px;
      }

      .cls-3 {
        filter: url(#Line_161);
      }

      .cls-4 {
        filter: url(#Line_160);
      }

      .cls-5 {
        filter: url(#Line_159);
      }

      .cls-6 {
        filter: url(#Path_341);
      }
    </style>
    <filter id="Path_341" x="0" y="0" width="72" height="67.556" filterUnits="userSpaceOnUse">
      <feOffset dy="1" input="SourceAlpha"/>
      <feGaussianBlur stdDeviation="5" result="blur"/>
      <feFlood flood-color="#ad5dc2"/>
      <feComposite operator="in" in2="blur"/>
      <feComposite in="SourceGraphic"/>
    </filter>
    <filter id="Line_159" x="10.37" y="13.333" width="51.259" height="32" filterUnits="userSpaceOnUse">
      <feOffset dy="1" input="SourceAlpha"/>
      <feGaussianBlur stdDeviation="5" result="blur-2"/>
      <feFlood flood-color="#ad5dc2"/>
      <feComposite operator="in" in2="blur-2"/>
      <feComposite in="SourceGraphic"/>
    </filter>
    <filter id="Line_160" x="10.37" y="17.777" width="51.259" height="32" filterUnits="userSpaceOnUse">
      <feOffset dy="1" input="SourceAlpha"/>
      <feGaussianBlur stdDeviation="5" result="blur-3"/>
      <feFlood flood-color="#ad5dc2"/>
      <feComposite operator="in" in2="blur-3"/>
      <feComposite in="SourceGraphic"/>
    </filter>
    <filter id="Line_161" x="16.296" y="8.889" width="39.407" height="32" filterUnits="userSpaceOnUse">
      <feOffset dy="1" input="SourceAlpha"/>
      <feGaussianBlur stdDeviation="5" result="blur-4"/>
      <feFlood flood-color="#ad5dc2"/>
      <feComposite operator="in" in2="blur-4"/>
      <feComposite in="SourceGraphic"/>
    </filter>
  </defs>
  <g id="career_page_block_1_floating_message_icon" data-name="career_page_block_1_floating message icon" transform="translate(-647 -547.444)">
    <path id="Path_340" data-name="Path 340" class="cls-1" d="M101.5,327.3l-10-10h20Z" transform="translate(581.5 291.781)"/>
    <g id="Group_165" data-name="Group 165" transform="translate(662 561.444)">
      <g class="cls-6" transform="matrix(1, 0, 0, 1, -15, -14)">
        <path id="Path_341-2" data-name="Path 341" class="cls-2" d="M41,3.963v23.7a2.972,2.972,0,0,1-2.963,2.963H26.185L21,36.556,15.815,30.63H3.963A2.972,2.972,0,0,1,1,27.667V3.963A2.972,2.972,0,0,1,3.963,1H38.037A2.972,2.972,0,0,1,41,3.963Z" transform="translate(15 14)"/>
      </g>
      <g class="cls-5" transform="matrix(1, 0, 0, 1, -15, -14)">
        <line id="Line_159-2" data-name="Line 159" class="cls-2" x2="19.259" transform="translate(26.37 28.33)"/>
      </g>
      <g class="cls-4" transform="matrix(1, 0, 0, 1, -15, -14)">
        <line id="Line_160-2" data-name="Line 160" class="cls-2" x2="19.259" transform="translate(26.37 32.78)"/>
      </g>
      <g class="cls-3" transform="matrix(1, 0, 0, 1, -15, -14)">
        <line id="Line_161-2" data-name="Line 161" class="cls-2" x2="7.407" transform="translate(32.3 23.89)"/>
      </g>
    </g>
  </g>
</svg>
