<svg xmlns="http://www.w3.org/2000/svg" viewBox="0 0 21 16.663">
  <defs>
    <style>
      .cls-1 {
        fill: none;
        stroke: #fff;
        stroke-linecap: round;
        stroke-linejoin: round;
        stroke-miterlimit: 10;
      }
    </style>
  </defs>
  <g id="career_page_block_1_hirign_icon" data-name="career_page_block_1_hirign icon" transform="translate(0.5 0.5)">
    <path id="Path_350" data-name="Path 350" class="cls-1" d="M67.561,88.662H74.2V84.869c0-.436-2.65-1.887-4.828-2.759V80.386s.853-.29.853-2.16c.6,0,.871-1.742.036-1.742a3.69,3.69,0,0,0,.4-2.178c-.436-1.742-4.773-1.742-5.209,0-1.833-.381-.436,1.924-.436,2.178-.871,0-.6,1.742,0,1.742,0,1.869.907,2.16.907,2.16v1.724c-2.178.871-4.828,2.323-4.828,2.759v3.793Z" transform="translate(-61.1 -73)"/>
    <path id="Path_351" data-name="Path 351" class="cls-1" d="M131.15,100.04h4.828v-3.9c0-.436-2.4-.908-4.138-1.6V93.161a1.726,1.726,0,0,0,1.089-1.8c.49,0,.672-1.742,0-1.742,0-.145.708-.926.435-1.742-.435-1.307-3.9-1.307-4.337,0-1.47-.29-.436,1.543-.436,1.742-.69,0-.49,1.742,0,1.742a1.747,1.747,0,0,0,1.18,1.8V94.2" transform="translate(-115.977 -84.377)"/>
  </g>
</svg>
