<svg xmlns="http://www.w3.org/2000/svg" xmlns:xlink="http://www.w3.org/1999/xlink" viewBox="0 0 50.862 46.537">
  <defs>
    <style>
      .cls-1, .cls-2 {
        fill: none;
        stroke: #fff;
        stroke-linecap: round;
        stroke-linejoin: round;
        stroke-miterlimit: 10;
      }

      .cls-2 {
        fill-rule: evenodd;
      }

      .cls-3 {
        filter: url(#Path_364);
      }

      .cls-4 {
        filter: url(#Path_363);
      }

      .cls-5 {
        filter: url(#Path_362);
      }
    </style>
    <filter id="Path_362" x="16.916" y="14.13" width="21.016" height="21.13" filterUnits="userSpaceOnUse">
      <feOffset dy="3" input="SourceAlpha"/>
      <feGaussianBlur stdDeviation="3" result="blur"/>
      <feFlood flood-opacity="0.161"/>
      <feComposite operator="in" in2="blur"/>
      <feComposite in="SourceGraphic"/>
    </filter>
    <filter id="Path_363" x="0" y="0" width="46.903" height="38.146" filterUnits="userSpaceOnUse">
      <feOffset input="SourceAlpha"/>
      <feGaussianBlur stdDeviation="5" result="blur-2"/>
      <feFlood flood-color="#87c930"/>
      <feComposite operator="in" in2="blur-2"/>
      <feComposite in="SourceGraphic"/>
    </filter>
    <filter id="Path_364" x="2.621" y="6.848" width="48.241" height="39.689" filterUnits="userSpaceOnUse">
      <feOffset input="SourceAlpha"/>
      <feGaussianBlur stdDeviation="5" result="blur-3"/>
      <feFlood flood-color="#87c930"/>
      <feComposite operator="in" in2="blur-3"/>
      <feComposite in="SourceGraphic"/>
    </filter>
  </defs>
  <g id="career_page_block_1_where_are_we_icon" data-name="career_page_block_1_where are we icon" transform="translate(14.362 12.431)">
    <g class="cls-5" transform="matrix(1, 0, 0, 1, -14.36, -12.43)">
      <path id="Path_362-2" data-name="Path 362" class="cls-1" d="M35.073,23.062a.921.921,0,0,1-1.172.9c-1.034-.414-1.207-1.931,0-2.069A1.281,1.281,0,0,1,35.073,23.062Z" transform="translate(-6.64 -1.25)"/>
    </g>
    <g class="cls-4" transform="matrix(1, 0, 0, 1, -14.36, -12.43)">
      <path id="Path_363-2" data-name="Path 363" class="cls-2" d="M17.124,7A2.317,2.317,0,0,1,16.09,9.759c-1.276.621-3.621.448-3.793-1.379a1.29,1.29,0,0,0-2.414-.69c-.931,1.483-1.138,3-4.138,2.759-1.448-.1-1.9,1.69-2.414,2.759-.517,1.1-1.552,1.241-1.931.345" transform="translate(14.1 8.5)"/>
    </g>
    <g class="cls-3" transform="matrix(1, 0, 0, 1, -14.36, -12.43)">
      <path id="Path_364-2" data-name="Path 364" class="cls-2" d="M26.241,27.962a6.156,6.156,0,0,0-3.793-1.034c-1.9.276-2.517,1.621-2.414,3.793a2.31,2.31,0,0,1-2.069,2.414c-.9.172-2.586-.31-2.069-2.759.448-2.138-2.1-2.241-3.793-1.379-2.172,1.1-1.483,3.207-.345,4.138,1.31,1.069,1.448,2.241-.345,2.414A4.019,4.019,0,0,1,9,34.859" transform="translate(9.12 -4.53)"/>
    </g>
    <circle id="Ellipse_26" data-name="Ellipse 26" class="cls-1" cx="10" cy="10" r="10" transform="translate(1 1)"/>
  </g>
</svg>
