<svg xmlns="http://www.w3.org/2000/svg" xmlns:xlink="http://www.w3.org/1999/xlink" viewBox="0 0 231.998 111.679">
  <defs>
    <style>
      .cls-1, .cls-2 {
        fill: none;
        stroke-miterlimit: 10;
        stroke-width: 2px;
      }

      .cls-1 {
        stroke: #86c830;
      }

      .cls-2 {
        stroke: #fff;
      }

      .cls-3 {
        filter: url(#Path_249);
      }

      .cls-4 {
        filter: url(#Path_248);
      }

      .cls-5 {
        filter: url(#Path_247);
      }

      .cls-6 {
        filter: url(#Path_246);
      }

      .cls-7 {
        filter: url(#Path_245);
      }

      .cls-8 {
        filter: url(#Path_244);
      }

      .cls-9 {
        filter: url(#Path_243);
      }

      .cls-10 {
        filter: url(#Path_242);
      }

      .cls-11 {
        filter: url(#Path_241);
      }

      .cls-12 {
        filter: url(#Path_240);
      }

      .cls-13 {
        filter: url(#Path_239);
      }

      .cls-14 {
        filter: url(#Path_238);
      }

      .cls-15 {
        filter: url(#Path_237);
      }

      .cls-16 {
        filter: url(#Path_236);
      }

      .cls-17 {
        filter: url(#Path_235);
      }
    </style>
    <filter id="Path_235" x="116.98" y="29.818" width="52.776" height="62.53" filterUnits="userSpaceOnUse">
      <feOffset dy="1" input="SourceAlpha"/>
      <feGaussianBlur stdDeviation="5" result="blur"/>
      <feFlood flood-color="#87c930"/>
      <feComposite operator="in" in2="blur"/>
      <feComposite in="SourceGraphic"/>
    </filter>
    <filter id="Path_236" x="180.663" y="19.635" width="51.336" height="64.753" filterUnits="userSpaceOnUse">
      <feOffset dy="1" input="SourceAlpha"/>
      <feGaussianBlur stdDeviation="5" result="blur-2"/>
      <feFlood flood-color="#87c930"/>
      <feComposite operator="in" in2="blur-2"/>
      <feComposite in="SourceGraphic"/>
    </filter>
    <filter id="Path_237" x="15.622" y="56.144" width="87.869" height="55.535" filterUnits="userSpaceOnUse">
      <feOffset dy="1" input="SourceAlpha"/>
      <feGaussianBlur stdDeviation="5" result="blur-3"/>
      <feFlood flood-color="#87c930"/>
      <feComposite operator="in" in2="blur-3"/>
      <feComposite in="SourceGraphic"/>
    </filter>
    <filter id="Path_238" x="139.828" y="30.208" width="51.263" height="54.773" filterUnits="userSpaceOnUse">
      <feOffset dy="1" input="SourceAlpha"/>
      <feGaussianBlur stdDeviation="5" result="blur-4"/>
      <feFlood flood-color="#87c930"/>
      <feComposite operator="in" in2="blur-4"/>
      <feComposite in="SourceGraphic"/>
    </filter>
    <filter id="Path_239" x="25.162" y="1.798" width="78.45" height="56.615" filterUnits="userSpaceOnUse">
      <feOffset dy="1" input="SourceAlpha"/>
      <feGaussianBlur stdDeviation="5" result="blur-5"/>
      <feFlood flood-color="#87c930"/>
      <feComposite operator="in" in2="blur-5"/>
      <feComposite in="SourceGraphic"/>
    </filter>
    <filter id="Path_240" x="161.441" y="29.79" width="49.119" height="55.277" filterUnits="userSpaceOnUse">
      <feOffset dy="1" input="SourceAlpha"/>
      <feGaussianBlur stdDeviation="5" result="blur-6"/>
      <feFlood flood-color="#87c930"/>
      <feComposite operator="in" in2="blur-6"/>
      <feComposite in="SourceGraphic"/>
    </filter>
    <filter id="Path_241" x="15.743" y="30.816" width="34.991" height="53.633" filterUnits="userSpaceOnUse">
      <feOffset dy="1" input="SourceAlpha"/>
      <feGaussianBlur stdDeviation="5" result="blur-7"/>
      <feFlood flood-color="#87c930"/>
      <feComposite operator="in" in2="blur-7"/>
      <feComposite in="SourceGraphic"/>
    </filter>
    <filter id="Path_242" x="15.658" y="8.345" width="37.432" height="49.61" filterUnits="userSpaceOnUse">
      <feOffset dy="1" input="SourceAlpha"/>
      <feGaussianBlur stdDeviation="5" result="blur-8"/>
      <feFlood flood-color="#87c930"/>
      <feComposite operator="in" in2="blur-8"/>
      <feComposite in="SourceGraphic"/>
    </filter>
    <filter id="Path_243" x="93.946" y="19.452" width="54.572" height="65.2" filterUnits="userSpaceOnUse">
      <feOffset dy="1" input="SourceAlpha"/>
      <feGaussianBlur stdDeviation="5" result="blur-9"/>
      <feFlood flood-color="#ad5dc2"/>
      <feComposite operator="in" in2="blur-9"/>
      <feComposite in="SourceGraphic"/>
    </filter>
    <filter id="Path_244" x="60.762" y="29.435" width="51.636" height="55.686" filterUnits="userSpaceOnUse">
      <feOffset dy="1" input="SourceAlpha"/>
      <feGaussianBlur stdDeviation="5" result="blur-10"/>
      <feFlood flood-color="#ad5dc2"/>
      <feComposite operator="in" in2="blur-10"/>
      <feComposite in="SourceGraphic"/>
    </filter>
    <filter id="Path_245" x="45.312" y="23.579" width="47.143" height="61.93" filterUnits="userSpaceOnUse">
      <feOffset dy="1" input="SourceAlpha"/>
      <feGaussianBlur stdDeviation="5" result="blur-11"/>
      <feFlood flood-color="#ad5dc2"/>
      <feComposite operator="in" in2="blur-11"/>
      <feComposite in="SourceGraphic"/>
    </filter>
    <filter id="Path_246" x="82.343" y="19.55" width="42.054" height="65.446" filterUnits="userSpaceOnUse">
      <feOffset dy="1" input="SourceAlpha"/>
      <feGaussianBlur stdDeviation="5" result="blur-12"/>
      <feFlood flood-color="#ad5dc2"/>
      <feComposite operator="in" in2="blur-12"/>
      <feComposite in="SourceGraphic"/>
    </filter>
    <filter id="Path_247" x="0" y="0" width="56.214" height="57.744" filterUnits="userSpaceOnUse">
      <feOffset dy="1" input="SourceAlpha"/>
      <feGaussianBlur stdDeviation="5" result="blur-13"/>
      <feFlood flood-color="#ad5dc2"/>
      <feComposite operator="in" in2="blur-13"/>
      <feComposite in="SourceGraphic"/>
    </filter>
    <filter id="Path_248" x="0.065" y="26.852" width="56.124" height="56.521" filterUnits="userSpaceOnUse">
      <feOffset dy="1" input="SourceAlpha"/>
      <feGaussianBlur stdDeviation="5" result="blur-14"/>
      <feFlood flood-color="#ad5dc2"/>
      <feComposite operator="in" in2="blur-14"/>
      <feComposite in="SourceGraphic"/>
    </filter>
    <filter id="Path_249" x="0.065" y="52.5" width="56.124" height="56.438" filterUnits="userSpaceOnUse">
      <feOffset dy="1" input="SourceAlpha"/>
      <feGaussianBlur stdDeviation="5" result="blur-15"/>
      <feFlood flood-color="#ad5dc2"/>
      <feComposite operator="in" in2="blur-15"/>
      <feComposite in="SourceGraphic"/>
    </filter>
  </defs>
  <g id="home_page_footer_talkpush_logo" transform="translate(14.709 13.584)">
    <g id="Group_111" data-name="Group 111" transform="translate(16.913 3.198)">
      <g id="Group_110" data-name="Group 110">
        <g class="cls-17" transform="matrix(1, 0, 0, 1, -31.62, -16.78)">
          <path id="Path_235-2" data-name="Path 235" class="cls-1" d="M200.3,72.6a1.7,1.7,0,0,0-.182,1.033v6.563c0,.729,0,.79-.79.79h-4.618c-.911,0-.911,0-.911-.972V52.664c0-1.215.061-1.033.972-1.215a30.365,30.365,0,0,1,10.452-.851,10.208,10.208,0,0,1,9.236,9.419,17.1,17.1,0,0,1-.547,6.806,9.26,9.26,0,0,1-4.557,5.773,7.78,7.78,0,0,1-1.884.668,10.86,10.86,0,0,1-5.226,0C201.517,73.082,200.849,73.142,200.3,72.6Zm-.182-11V66.64a.878.878,0,0,0,.668.972,8.07,8.07,0,0,0,2.674.547A3.935,3.935,0,0,0,207.715,65a10.781,10.781,0,0,0,.3-3.95,7.126,7.126,0,0,0-1.155-3.464,4.329,4.329,0,0,0-2.613-1.762,9.154,9.154,0,0,0-3.4,0c-.668.122-.729.122-.729.79C200.059,58.316,200.12,59.956,200.12,61.6Z" transform="translate(-60.82 -5.63)"/>
        </g>
        <g class="cls-16" transform="matrix(1, 0, 0, 1, -31.62, -16.78)">
          <path id="Path_236-2" data-name="Path 236" class="cls-1" d="M305.1,44.273c.365-.061.668-.182,1.033-.243a11.856,11.856,0,0,1,7.11.547,7.2,7.2,0,0,1,4.314,5.59,18.551,18.551,0,0,1,.365,3.646V65.845c.061.425-.122.608-.547.608h-5.165c-.486,0-.608-.243-.608-.668V54.421a10.4,10.4,0,0,0-.365-3.038,2.641,2.641,0,0,0-1.458-1.945,5.776,5.776,0,0,0-3.038-.365c-1.823.3-1.762.3-1.762,2.066V65.42c0,.911,0,.911-.911.972h-4.557c-.911,0-.911,0-.911-.911V35.523c0-.911,0-.911.972-1.094,1.458-.243,2.856-.486,4.314-.668a2.958,2.958,0,0,1,.729-.061c.243,0,.365.122.365.3v9.358C304.98,43.787,304.92,44.03,305.1,44.273Z" transform="translate(-101.94 0.93)"/>
        </g>
        <g class="cls-15" transform="matrix(1, 0, 0, 1, -31.62, -16.78)">
          <path id="Path_237-2" data-name="Path 237" class="cls-1" d="M53.616,109.523c1.458-1.945,2.917-3.95,4.436-5.894.972-1.337.547-1.155,2.188-.972,4.254.486,8.447.911,12.7,1.4.668.061,1.337.122,2.005.243a2.7,2.7,0,0,0,3.16-2.37,7.748,7.748,0,0,0,.061-1.215V94.453c0-.729,0-.729.79-.668,1.094.061,2.127.122,3.221.182.668.061.668,0,.668.668,0,2.552.061,5.1,0,7.657a6.9,6.9,0,0,1-3.95,6.137,7.028,7.028,0,0,1-4.314.547c-4.436-.547-8.811-1.155-13.247-1.7a.816.816,0,0,0-.911.425c-1.641,2.248-3.4,4.436-5.044,6.684-.668.911-1.4,1.823-2.127,2.734-.182.182-.3.243-.547.122-.851-.425-1.7-.851-2.491-1.215-.547-.243-.547-.668-.547-1.155v-8.264c0-.729,0-.729-.729-.851-2.674-.365-5.347-.729-7.96-1.033-3.16-.425-6.32-.79-9.48-1.215a2.756,2.756,0,0,1-1.276-.608,8.564,8.564,0,0,1-2.674-3.221,7.348,7.348,0,0,1-.486-2.066C27,96.883,27,96.094,27,95.3c0-.365.122-.486.486-.486a1.683,1.683,0,0,1,.547.061c.608.061,1.337-.061,1.762.3s.122,1.094.182,1.7a2.736,2.736,0,0,0,2.674,2.856l9.662,1.094c3.464.365,6.867.729,10.33,1.155.729.061.79.122.79.851v6.745A.223.223,0,0,1,53.616,109.523Z" transform="translate(4.62 -22.63)"/>
        </g>
        <g class="cls-14" transform="matrix(1, 0, 0, 1, -31.62, -16.78)">
          <path id="Path_238-2" data-name="Path 238" class="cls-1" d="M250.6,61.916V70c0,.668,0,1.276.061,1.945,0,.486-.122.729-.668.851a32.64,32.64,0,0,1-11.363.911,6.983,6.983,0,0,1-3.464-1.033,8.112,8.112,0,0,1-3.342-4.983,15.184,15.184,0,0,1-.425-3.281V51.89c0-.729,0-.729.79-.79h4.8c.729,0,.729,0,.729.79V63.01a13.269,13.269,0,0,0,.243,2.674,3.149,3.149,0,0,0,3.342,2.8,14.71,14.71,0,0,0,2.309-.122c.668-.122.668-.122.668-.79V52.012c0-.851,0-.851.851-.851h4.74c.668,0,.729.061.729.729V61.916Z" transform="translate(-75.57 -5.89)"/>
        </g>
        <g class="cls-13" transform="matrix(1, 0, 0, 1, -31.62, -16.78)">
          <path id="Path_239-2" data-name="Path 239" class="cls-1" d="M42.7,14.152V10.567c0-.365.3-.365.608-.425,1.58-.243,3.1-.486,4.679-.729,3.1-.486,6.2-.972,9.358-1.4,3.828-.547,7.657-1.155,11.424-1.7,3.889-.608,7.839-1.155,11.728-1.823a7.962,7.962,0,0,1,4.618.365,6.524,6.524,0,0,1,4.011,6.2c.061,3.4,0,6.745,0,10.148v6.806c0,.729,0,.729-.729.729a18.736,18.736,0,0,0-3.221.182c-.729.122-.79.061-.79-.729V17.13c0-1.458-.061-2.917,0-4.314a6.259,6.259,0,0,0-.365-2.127,2.2,2.2,0,0,0-1.276-1.276,3.382,3.382,0,0,0-2.309-.182c-5.287.729-10.573,1.4-15.86,2.066-4.861.668-9.723,1.337-14.584,1.945-2.309.3-4.618.608-6.867.911Z" transform="translate(-1.54 12.46)"/>
        </g>
        <g class="cls-12" transform="matrix(1, 0, 0, 1, -31.62, -16.78)">
          <path id="Path_240-2" data-name="Path 240" class="cls-1" d="M274.583,73.675a18.912,18.912,0,0,1-5.408-.608c-.547-.182-1.155-.122-1.7-.3-.486-.182-.547-.425-.486-.79.3-1.4.608-2.734.851-4.132.122-.486.3-.486.729-.365a16.561,16.561,0,0,0,3.4.911,13.97,13.97,0,0,0,4.5.122,1.612,1.612,0,0,0,1.215-.729,1.481,1.481,0,0,0-.729-2.005c-1.4-.608-2.8-1.215-4.254-1.7a9.722,9.722,0,0,1-4.375-3.221,5.255,5.255,0,0,1-.79-2.552,7.155,7.155,0,0,1,.668-4.193,6.891,6.891,0,0,1,5.044-3.4,19.846,19.846,0,0,1,9.236.608c.608.182.608.243.486.851-.243,1.215-.547,2.37-.79,3.585-.122.608-.182.608-.79.486-1.033-.122-1.945-.608-3.038-.729a10.612,10.612,0,0,0-3.4.122,1.456,1.456,0,0,0-1.215,1.7,1.375,1.375,0,0,0,.668,1.033,11.173,11.173,0,0,0,2.431,1.155,30.624,30.624,0,0,1,3.828,1.7,5.855,5.855,0,0,1,3.221,3.95,7.936,7.936,0,0,1,0,3.585,5.664,5.664,0,0,1-3.707,4.132A16.176,16.176,0,0,1,274.583,73.675Z" transform="translate(-89.53 -5.62)"/>
        </g>
        <g class="cls-11" transform="matrix(1, 0, 0, 1, -31.62, -16.78)">
          <path id="Path_241-2" data-name="Path 241" class="cls-1" d="M30.178,62.916v9.966c0,.851,0,.851-.851.851-.547,0-1.094-.122-1.641-.122-.365,0-.486-.182-.486-.547V52.951c0-.668,0-.668.668-.729.608-.061,1.215-.061,1.823-.122.365,0,.547.122.486.486v10.33Z" transform="translate(4.54 -6.28)"/>
        </g>
        <g class="cls-10" transform="matrix(1, 0, 0, 1, -31.62, -16.78)">
          <path id="Path_242-2" data-name="Path 242" class="cls-1" d="M27.083,26.778c0-1.58-.061-3.16,0-4.8a7.455,7.455,0,0,1,3.038-6.016,5.085,5.085,0,0,1,1.762-.79c.365-.122.608,0,.608.425v2.917c0,.3-.122.425-.425.486a2.816,2.816,0,0,0-1.945,2.978c-.061,3.16,0,6.32,0,9.48V32c.061.425-.122.608-.547.608-.608,0-1.155.122-1.762.122-.668,0-.668,0-.668-.668-.061-1.7-.061-3.524-.061-5.287Z" transform="translate(4.6 8.22)"/>
        </g>
      </g>
    </g>
    <g id="Group_121" data-name="Group 121" transform="translate(1.289 1.459)">
      <g id="Group_120" data-name="Group 120">
        <g class="cls-9" transform="matrix(1, 0, 0, 1, -16, -15.04)">
          <path id="Path_243-2" data-name="Path 243" class="cls-2" d="M162.581,51.691l.608-.608a38.908,38.908,0,0,0,2.552-2.978c.486-.608,1.033-1.094,1.519-1.7s.972-1.276,1.458-1.823a1.082,1.082,0,0,1,1.033-.486h7.535c-2.978,3.464-5.955,6.745-9.176,9.844a54.145,54.145,0,0,1,9.3,12.457c-.182.3-.425.182-.608.182h-6.32a1.237,1.237,0,0,1-1.215-.729,63.623,63.623,0,0,0-4.071-5.894c-.79-.972-1.7-1.823-2.674-2.917v8.75c0,.729,0,.729-.668.729h-5.165c-.911,0-.79,0-.79-.79V34.858c0-.3.122-.425.425-.486.851-.122,1.7-.3,2.552-.425,1.155-.182,2.37-.365,3.707-.547V51.691Z" transform="translate(-45.95 1.05)"/>
        </g>
        <g class="cls-8" transform="matrix(1, 0, 0, 1, -16, -15.04)">
          <path id="Path_244-2" data-name="Path 244" class="cls-2" d="M104.268,56.375c-.243-1.7-.547-3.342-.79-4.983-.061-.486.243-.608.547-.668,1.033-.243,2.127-.425,3.16-.608a21.092,21.092,0,0,1,5.53-.182,10.391,10.391,0,0,1,4.983,1.519,6.557,6.557,0,0,1,2.8,4.132,13.516,13.516,0,0,1,.425,3.464V71.506c0,.851,0,.851-.79,1.033a37.915,37.915,0,0,1-11.424.851,9.952,9.952,0,0,1-3.95-.972,5.99,5.99,0,0,1-2.674-2.674,8,8,0,0,1-.061-6.867,4.961,4.961,0,0,1,2.37-2.491,15.034,15.034,0,0,1,6.867-1.458,11.117,11.117,0,0,1,2.8.243c.486.122.608,0,.486-.425a3.358,3.358,0,0,0-2.127-2.856,9.192,9.192,0,0,0-4.254-.243A12.894,12.894,0,0,0,104.268,56.375Zm10.27,9.48h0v-.911c0-1.276,0-1.337-1.276-1.458a9.191,9.191,0,0,0-3.646.243,2.085,2.085,0,0,0-1.641,2.188c0,1.276.668,2.005,2.127,2.248a15.221,15.221,0,0,0,4.071,0c.365,0,.425-.243.365-.486Z" transform="translate(-24.52 -5.39)"/>
        </g>
        <g class="cls-7" transform="matrix(1, 0, 0, 1, -16, -15.04)">
          <path id="Path_245-2" data-name="Path 245" class="cls-2" d="M90.223,63.7c.243,1.4.486,2.674.729,4.011.243,1.276.243,1.276-1.033,1.7a15.969,15.969,0,0,1-7.17.608,7.584,7.584,0,0,1-3.038-.851,7.378,7.378,0,0,1-2.734-2.734,11.714,11.714,0,0,1-1.094-5.712c-.061-6.2,0-12.4,0-18.655,0-.668.061-.729.668-.851,1.945-.3,3.95-.608,5.894-.911.243.243.122.486.122.729v4.922c0,1.033-.122.972.911.972h5.955c.729,0,.79,0,.79.729v4.071c0,.851.061.79-.851.79H83.3c-.79,0-.79,0-.79.729v6.927a15.028,15.028,0,0,0,.3,2.309,2.612,2.612,0,0,0,2.309,1.884A13.3,13.3,0,0,0,90.223,63.7Z" transform="translate(-14.55 -1.65)"/>
        </g>
        <g class="cls-6" transform="matrix(1, 0, 0, 1, -16, -15.04)">
          <path id="Path_246-2" data-name="Path 246" class="cls-2" d="M143.363,33.583a3.319,3.319,0,0,1,.061,1.094V57.342c0,.668.061,1.276.122,1.945a2.287,2.287,0,0,0,1.58,1.945,1.774,1.774,0,0,0,.547.122c.425.122,1.033-.061,1.155.3a3.234,3.234,0,0,1-.122,1.276l-.547,3.281c-.182.851-.182.79-.972.79a15.778,15.778,0,0,1-3.4-.365,4.88,4.88,0,0,1-3.1-1.641,4.422,4.422,0,0,0-.547-.486,2.015,2.015,0,0,1-.608-.851,11.828,11.828,0,0,1-.729-4.375V35.223c0-.668,0-.729.668-.79,1.762-.3,3.524-.547,5.287-.851A2.025,2.025,0,0,1,143.363,33.583Z" transform="translate(-38.46 0.99)"/>
        </g>
        <g class="cls-5" transform="matrix(1, 0, 0, 1, -16, -15.04)">
          <path id="Path_247-2" data-name="Path 247" class="cls-2" d="M20.923,22.023a14.851,14.851,0,0,1-.061-2.309c0-.182.061-.365.3-.365h.182c1.519-.3,1.884-.79,1.945-2.37V7.2a9.153,9.153,0,0,0-.061-1.823A1.108,1.108,0,0,0,21.774,4.4C16.183,5.434,10.532,6.406,4.942,7.439c-1.033.061-1.4.425-1.519,1.337a3.737,3.737,0,0,0-.061.851V19.714c.061,1.094.486,1.458,1.58,1.337,1.4-.122,2.856-.243,4.254-.486A1.814,1.814,0,0,1,11.322,21.6c.061.122.182.243.3.486a2.578,2.578,0,0,0,.122-1.337c0-.3.061-.486.365-.486,1.215-.122,2.37-.243,3.585-.425.3-.061.486.061.425.365v1.823c0,.3-.122.425-.425.425-.486,0-.911.122-1.4.122-.425,0-.547.182-.547.547v2.734c0,.425-.122.668-.486.79-.061,0-.122.061-.182.061-.425.122-.79.608-1.276.425-.486-.122-.425-.668-.668-1.033A25.855,25.855,0,0,1,9.5,23.3c-.182-.365-.425-.3-.668-.3-1.215.122-2.37.243-3.585.3-.425.061-.851.061-1.276.122a2.081,2.081,0,0,1-1.641-.729,2.867,2.867,0,0,1-.972-1.945c0-3.16-.061-6.32-.061-9.48a17.741,17.741,0,0,1,.182-3.585c.243-.425.547-.911.851-1.4A3.965,3.965,0,0,1,5.063,4.7c5.1-.911,10.148-1.884,15.192-2.856a7.065,7.065,0,0,0,1.094-.243c1.945-.547,3.342.486,3.95,2.309a4.626,4.626,0,0,1,.182,1.276c0,4.011.061,8.021,0,12.092a4.868,4.868,0,0,1-2.248,4.193A4.2,4.2,0,0,1,20.923,22.023Z" transform="translate(14.71 13.58)"/>
        </g>
        <g class="cls-4" transform="matrix(1, 0, 0, 1, -16, -15.04)">
          <path id="Path_248-2" data-name="Path 248" class="cls-2" d="M3.338,57.623v3.828h0a2.315,2.315,0,0,0,.182.608,1.116,1.116,0,0,0,1.155.79c1.519,0,3.1.122,4.618.122A1.88,1.88,0,0,1,11.3,64.246a3.889,3.889,0,0,0,.365.668c.061-.3.061-.486.122-.668.425-1.094.668-1.215,1.884-1.155.668,0,1.337.061,2.066.061.365,0,.486.122.486.486,0,.729-.061,1.4-.122,2.127H14.337c-.365,0-.486.122-.486.486v2.734a.7.7,0,0,1-.608.79c-.425.122-.911.425-1.276.3-.425-.122-.425-.729-.668-1.094a12.657,12.657,0,0,1-1.641-3.1c-.122-.365-.425-.3-.668-.3-1.458-.061-2.917-.182-4.375-.182a2.68,2.68,0,0,1-2.248-.972,3.705,3.705,0,0,1-.911-2.188c-.122-4.071-.061-8.143,0-12.214a3.968,3.968,0,0,1,1.155-2.491,2.758,2.758,0,0,1,2.127-.911c4.5-.243,8.933-.547,13.429-.79,1.215-.061,2.431-.122,3.585-.243a3.072,3.072,0,0,1,3.038,1.641,4.839,4.839,0,0,1,.729,2.613V61.633a4.722,4.722,0,0,1-1.033,3.038,3.38,3.38,0,0,1-3.342,1.276c-.243,0-.3-.122-.3-.365V63.638c0-.3.182-.486.425-.425,1.094.182,1.519-.486,1.884-1.276l.061-.061-.061-.061c0-1.215.061-2.37.061-3.585V50.817h0V50.27h0a1.937,1.937,0,0,0-.608-1.58,1.806,1.806,0,0,0-1.276-.425l-14.888.729c-.608,0-1.155.061-1.762.061-.911.061-1.215.3-1.337,1.155A13.163,13.163,0,0,0,3.278,52.4V56.65a5.916,5.916,0,0,1,.061.972Z" transform="translate(14.67 -3.73)"/>
        </g>
        <g class="cls-3" transform="matrix(1, 0, 0, 1, -16, -15.04)">
          <path id="Path_249-2" data-name="Path 249" class="cls-2" d="M3.345,97.335v2.188a.387.387,0,0,0,0,.365v.79a17.077,17.077,0,0,0,.061,1.762,1.594,1.594,0,0,0,1.519,1.58c1.58.243,3.16.547,4.74.729a1.907,1.907,0,0,1,1.519,1.155,3.57,3.57,0,0,0,.608.972c-.122-.729.486-1.033.729-1.519.061-.182.3-.182.486-.122,2.8.425,5.53.851,8.325,1.337,1.337.243,1.884-.182,1.945-1.519.061-.668,0-1.337,0-2.005,0-.182-.061-.365.122-.547.547.061,1.155.122,1.7.182.3.061.425.182.425.486a18.343,18.343,0,0,1-.182,3.646,4.268,4.268,0,0,1-1.215,2.005,3.064,3.064,0,0,1-2.613.608c-2.37-.425-4.679-.79-7.049-1.215-.182-.061-.365,0-.608-.061a8.8,8.8,0,0,0-.061,2.188v1.094c0,.365-.122.486-.486.547l-.911.182a.584.584,0,0,1-.79-.365c-.3-.608-.608-1.276-.911-1.884-.365-.729-.79-1.519-1.155-2.248a.877.877,0,0,0-.668-.425c-1.519-.243-3.038-.547-4.557-.729a2.977,2.977,0,0,1-2.188-1.58,4.984,4.984,0,0,1-.729-2.917c0-3.768,0-7.535.061-11.3a2.786,2.786,0,0,1,3.16-2.917c5.1.365,10.148.729,15.252,1.033.608.061,1.215.122,1.823.122a3.27,3.27,0,0,1,2.8,1.641,5.517,5.517,0,0,1,.972,3.342v2.127c0,.425-.122.608-.608.365s-1.094,0-1.641-.243h0a11.067,11.067,0,0,1-.061-2.005,3.565,3.565,0,0,0-.243-1.4,1.645,1.645,0,0,0-1.4-1.094L8.206,90.59c-1.155-.122-2.248-.182-3.4-.3-1.033-.061-1.4.243-1.519,1.215-.061.486,0,.911-.061,1.4h0v3.707C3.284,96.849,3.284,97.092,3.345,97.335Z" transform="translate(14.67 -20.29)"/>
        </g>
      </g>
    </g>
  </g>
</svg>
