<svg xmlns="http://www.w3.org/2000/svg" viewBox="0 0 305 338.1"><defs><style>.cls-1,.cls-2{fill:none;stroke-miterlimit:10;stroke-width:5px;}.cls-1{stroke:#86c830;}.cls-2{stroke:#fff;}</style></defs><title>Talkpush Logo Icon_WO_neon_Web</title><g id="Layer_2" data-name="Layer 2"><g id="Layer_1-2" data-name="Layer 1"><g id="Talkpush_Logo_Icon" data-name="Talkpush Logo Icon"><g id="Group_134" data-name="Group 134"><path id="Path_258" data-name="Path 258" class="cls-1" d="M282.6,240.3v26.3a29.1,29.1,0,0,1-.3,5.1,11.5,11.5,0,0,1-13,9.9h-.2c-2.8-.3-5.6-.8-8.4-1-17.8-1.8-35.4-3.9-53.2-5.9-6.9-.7-4.8-1.5-9.2,4.1-6.1,8.1-12.2,16.5-18.5,24.7-.3,0-.5-.3-.8-.3V275c0-3.1-.2-3.3-3.3-3.6-14.5-1.5-28.8-3.1-43.3-4.8s-27-2.8-40.5-4.6a11.8,11.8,0,0,1-11.2-12c0-2.3,1.1-5.6-.7-7.1s-4.8-1-7.4-1.3a6,6,0,0,1-2.3-.2c-1.5-.3-2,.5-2,2,0,3.3,0,6.4.2,9.7a21.4,21.4,0,0,0,2.1,8.6,33.4,33.4,0,0,0,11.2,13.5,15.4,15.4,0,0,0,5.3,2.6c13.3,1.8,26.5,3.3,39.7,5.1l33.4,4.3c3,.5,3,.5,3,3.6v34.6c0,2,0,3.8,2.3,4.8s7.1,3.3,10.5,5.1a1.6,1.6,0,0,0,2.2-.4h0c3.1-3.8,6.2-7.7,9-11.5,6.8-9.4,14.2-18.6,21.1-28a3.5,3.5,0,0,1,3.8-1.8c18.3,2.6,36.9,4.9,55.5,7.2a29.2,29.2,0,0,0,34.1-23,27.3,27.3,0,0,0,.5-5c.5-10.7.3-21.4,0-32.1V80c0-14.3.3-28.3,0-42.5a27.1,27.1,0,0,0-16.8-26A31.2,31.2,0,0,0,266.1,10l-49.2,7.6c-16,2.6-32,4.8-47.8,7.1-13,2.1-26,4.1-39.2,5.9l-19.6,3c-1.3.3-2.6.3-2.6,1.8v15c.8,0,1.3.3,1.6,0L138,46.6c20.4-2.8,40.7-5.6,61.1-8.1,22.2-3.1,44.3-5.9,66.4-8.7a16,16,0,0,1,9.7.8,10,10,0,0,1,5.4,5.3,33.9,33.9,0,0,1,1.5,8.9c-.3,6.2,0,12,0,18.1v46.4Z"/><path id="Path_259" data-name="Path 259" class="cls-1" d="M81,176.7v41.8c0,3.5,0,3.5-3.6,3.5s-4.5-.5-6.8-.5-2.1-.7-2.1-2.3V135c0-2.8,0-2.8,2.8-3.1s5.1-.2,7.7-.5,2.3.5,2,2Z"/><path id="Path_260" data-name="Path 260" class="cls-1" d="M68.3,86.1c0-6.6-.3-13.2,0-20.1A31.2,31.2,0,0,1,81,40.8a19.8,19.8,0,0,1,7.4-3.3c1.5-.5,2.5,0,2.5,1.8V51.5c0,1.2-.5,1.8-1.8,2A11.8,11.8,0,0,0,81,66c-.3,13.2,0,26.5,0,39.7V108c.3,1.8-.5,2.5-2.3,2.5s-4.8.5-7.4.5-2.8,0-2.8-2.8c-.2-7.1-.2-14.7-.2-22.1Z"/></g><g id="Group_139" data-name="Group 139"><path id="Path_261" data-name="Path 261" class="cls-2" d="M84.8,88.6a61.6,61.6,0,0,1-.2-9.6c0-.8.2-1.6,1.2-1.6h.8c6.4-1.2,7.9-3.3,8.1-9.9v-41a38.6,38.6,0,0,0-.2-7.6,4.6,4.6,0,0,0-5-4.3l-1.1.2L17.9,27.5c-4.4.3-5.9,1.8-6.4,5.6a21.9,21.9,0,0,0-.3,3.6V79c.3,4.5,2.1,6.1,6.7,5.6s11.9-1.1,17.8-2.1a7.7,7.7,0,0,1,8.9,4.4,17.6,17.6,0,0,1,1.3,2,11.8,11.8,0,0,0,.5-5.6c0-1.3.2-2,1.5-2l15-1.8c1.3-.3,2.1.2,1.8,1.5v7.6c0,1.3-.5,1.8-1.8,1.8s-3.8.5-5.8.5-2.3.8-2.3,2.3v11.5c0,1.8-.5,2.8-2.1,3.3l-.7.2c-1.8.5-3.3,2.6-5.4,1.8s-1.7-2.8-2.8-4.3A114.7,114.7,0,0,1,37,94c-.8-1.5-1.8-1.3-2.8-1.3-5.1.5-10,1-15,1.3-1.8.2-3.6.2-5.4.5a8.9,8.9,0,0,1-6.9-3.1,11.9,11.9,0,0,1-4-8.1c0-13.2-.3-26.5-.3-39.7a75.1,75.1,0,0,1,.7-15c1.1-1.8,2.3-3.9,3.6-5.9a16.7,16.7,0,0,1,11.5-6.6C39.8,12.3,60.9,8.2,82,4.1a23.6,23.6,0,0,0,4.6-1c8.1-2.3,14,2,16.5,9.7a18.9,18.9,0,0,1,.8,5.3c0,16.8.2,33.6,0,50.7a20.5,20.5,0,0,1-9.4,17.5A17.4,17.4,0,0,1,84.8,88.6Z"/><path id="Path_262" data-name="Path 262" class="cls-2" d="M11,165.3v16h0a10.3,10.3,0,0,0,.7,2.5,4.8,4.8,0,0,0,4.9,3.3c6.4,0,13,.6,19.3.6a7.7,7.7,0,0,1,8.4,5.3,15.6,15.6,0,0,0,1.6,2.8,14.3,14.3,0,0,1,.5-2.8c1.7-4.6,2.8-5.1,7.8-4.8l8.7.2c1.5,0,2,.5,2,2.1s-.2,5.8-.5,8.9H57.1c-1.6,0-2.1.5-2.1,2v11.5a2.9,2.9,0,0,1-2.4,3.3h-.1c-1.8.5-3.8,1.7-5.4,1.2s-1.7-3-2.8-4.5a53.7,53.7,0,0,1-6.8-13c-.5-1.6-1.8-1.3-2.8-1.3-6.1-.3-12.2-.8-18.4-.8a11,11,0,0,1-9.4-4,15.7,15.7,0,0,1-3.8-9.2c-.5-17-.2-34.1,0-51.1A16.5,16.5,0,0,1,7.9,123a11.8,11.8,0,0,1,9-3.8c18.8-1,37.4-2.3,56.2-3.3,5.1-.3,10.2-.5,15-1a13,13,0,0,1,12.8,6.8,20.3,20.3,0,0,1,3,11v49.4a19.5,19.5,0,0,1-4.3,12.7,14.1,14.1,0,0,1-14,5.3c-1,0-1.3-.5-1.3-1.5v-8.1c0-1.3.8-2.1,1.8-1.8,4.6.7,6.4-2.1,7.9-5.4l.2-.2-.2-.3c0-5.1.2-9.9.2-15V136.7h0v-2.2h0a8.3,8.3,0,0,0-2.5-6.7,7.5,7.5,0,0,0-5.4-1.7l-62.3,3c-2.6,0-4.9.3-7.4.3s-5.1,1.2-5.6,4.8a70.7,70.7,0,0,0-.3,9.2v17.8A27.3,27.3,0,0,1,11,165.3Z"/><path id="Path_263" data-name="Path 263" class="cls-2" d="M11,262.2v9.2a1.4,1.4,0,0,0,0,1.5v3.3a60.2,60.2,0,0,0,.3,7.4,6.5,6.5,0,0,0,6.3,6.6c6.6,1.1,13.3,2.3,19.9,3.1a8,8,0,0,1,6.4,4.8,15.5,15.5,0,0,0,2.5,4.1c-.5-3.1,2.1-4.3,3.1-6.4s1.2-.7,2-.5c11.7,1.8,23.2,3.6,34.9,5.6,5.6,1,7.8-.7,8.1-6.4a78.5,78.5,0,0,0,0-8.4,2.9,2.9,0,0,1,.5-2.3l7.2.8c1.2.3,1.7.7,1.7,2a78.1,78.1,0,0,1-.7,15.3,18.7,18.7,0,0,1-5.1,8.4,13.2,13.2,0,0,1-11,2.6l-29.5-5.1c-.7-.3-1.5,0-2.5-.3a35.3,35.3,0,0,0-.3,9.2v4.6c0,1.5-.5,2-2,2.2l-3.8.8a2.5,2.5,0,0,1-3.3-1.3v-.2c-1.3-2.6-2.6-5.4-3.9-7.9s-3.3-6.4-4.8-9.4a3.6,3.6,0,0,0-2.8-1.8c-6.4-1-12.7-2.3-19.1-3.1A12.5,12.5,0,0,1,5.9,294a20.8,20.8,0,0,1-3-12.2c0-15.8,0-31.6.2-47.3a11.7,11.7,0,0,1,11.1-12.3h2.1c21.4,1.5,42.6,3,63.9,4.3a66.4,66.4,0,0,0,7.7.5A13.8,13.8,0,0,1,99.6,234a23.2,23.2,0,0,1,4,14v8.9c0,1.8-.5,2.5-2.5,1.5s-4.6,0-6.9-1h0A47.2,47.2,0,0,1,94,249a17,17,0,0,0-1-5.9,6.8,6.8,0,0,0-5.9-4.5L31.3,234l-14.2-1.3c-4.3-.2-5.9,1-6.4,5.1-.2,2,0,3.8-.2,5.9h0v15.5C10.7,260.2,10.7,261.2,11,262.2Z"/></g></g></g></g></svg>