<svg xmlns="http://www.w3.org/2000/svg" xmlns:xlink="http://www.w3.org/1999/xlink" viewBox="0 0 50 43.333">
  <defs>
    <style>
      .cls-1 {
        fill: none;
        stroke: #87c930;
        stroke-linecap: round;
        stroke-linejoin: round;
        stroke-miterlimit: 10;
        stroke-width: 2px;
      }

      .cls-2 {
        filter: url(#Path_543);
      }

      .cls-3 {
        filter: url(#Path_542);
      }

      .cls-4 {
        filter: url(#Path_541);
      }

      .cls-5 {
        filter: url(#Path_540);
      }

      .cls-6 {
        filter: url(#Path_539);
      }

      .cls-7 {
        filter: url(#Ellipse_32);
      }
    </style>
    <filter id="Ellipse_32" x="11.111" y="7.777" width="27.778" height="27.777" filterUnits="userSpaceOnUse">
      <feOffset input="SourceAlpha"/>
      <feGaussianBlur stdDeviation="3" result="blur"/>
      <feFlood flood-color="#87c930"/>
      <feComposite operator="in" in2="blur"/>
      <feComposite in="SourceGraphic"/>
    </filter>
    <filter id="Path_539" x="2.222" y="2.223" width="23.333" height="23.333" filterUnits="userSpaceOnUse">
      <feOffset input="SourceAlpha"/>
      <feGaussianBlur stdDeviation="3" result="blur-2"/>
      <feFlood flood-color="#87c930"/>
      <feComposite operator="in" in2="blur-2"/>
      <feComposite in="SourceGraphic"/>
    </filter>
    <filter id="Path_540" x="24.444" y="2.223" width="23.333" height="23.333" filterUnits="userSpaceOnUse">
      <feOffset input="SourceAlpha"/>
      <feGaussianBlur stdDeviation="3" result="blur-3"/>
      <feFlood flood-color="#87c930"/>
      <feComposite operator="in" in2="blur-3"/>
      <feComposite in="SourceGraphic"/>
    </filter>
    <filter id="Path_541" x="2.222" y="17.777" width="23.333" height="23.333" filterUnits="userSpaceOnUse">
      <feOffset input="SourceAlpha"/>
      <feGaussianBlur stdDeviation="3" result="blur-4"/>
      <feFlood flood-color="#87c930"/>
      <feComposite operator="in" in2="blur-4"/>
      <feComposite in="SourceGraphic"/>
    </filter>
    <filter id="Path_542" x="24.444" y="17.777" width="23.333" height="23.333" filterUnits="userSpaceOnUse">
      <feOffset input="SourceAlpha"/>
      <feGaussianBlur stdDeviation="3" result="blur-5"/>
      <feFlood flood-color="#87c930"/>
      <feComposite operator="in" in2="blur-5"/>
      <feComposite in="SourceGraphic"/>
    </filter>
    <filter id="Path_543" x="0" y="0" width="50" height="43.333" filterUnits="userSpaceOnUse">
      <feOffset input="SourceAlpha"/>
      <feGaussianBlur stdDeviation="3" result="blur-6"/>
      <feFlood flood-color="#87c930"/>
      <feComposite operator="in" in2="blur-6"/>
      <feComposite in="SourceGraphic"/>
    </filter>
  </defs>
  <g id="customer_page_record_everything" data-name="customer_page_record everything" transform="translate(9 9)">
    <g class="cls-7" transform="matrix(1, 0, 0, 1, -9, -9)">
      <circle id="Ellipse_32-2" data-name="Ellipse 32" class="cls-1" cx="3.889" cy="3.889" r="3.889" transform="translate(21.11 17.78)"/>
    </g>
    <g class="cls-6" transform="matrix(1, 0, 0, 1, -9, -9)">
      <path id="Path_539-2" data-name="Path 539" class="cls-1" d="M5,8.333V5H8.333" transform="translate(7.22 7.22)"/>
    </g>
    <g class="cls-5" transform="matrix(1, 0, 0, 1, -9, -9)">
      <path id="Path_540-2" data-name="Path 540" class="cls-1" d="M45,5h3.333V8.333" transform="translate(-10.56 7.22)"/>
    </g>
    <g class="cls-4" transform="matrix(1, 0, 0, 1, -9, -9)">
      <path id="Path_541-2" data-name="Path 541" class="cls-1" d="M5,33v3.333H8.333" transform="translate(7.22 -5.22)"/>
    </g>
    <g class="cls-3" transform="matrix(1, 0, 0, 1, -9, -9)">
      <path id="Path_542-2" data-name="Path 542" class="cls-1" d="M45,36.333h3.333V33" transform="translate(-10.56 -5.22)"/>
    </g>
    <g class="cls-2" transform="matrix(1, 0, 0, 1, -9, -9)">
      <path id="Path_543-2" data-name="Path 543" class="cls-1" d="M29.889,24.333H2.111A1.114,1.114,0,0,1,1,23.222V2.111A1.114,1.114,0,0,1,2.111,1H29.889A1.114,1.114,0,0,1,31,2.111V23.222A1.114,1.114,0,0,1,29.889,24.333Z" transform="translate(9 9)"/>
    </g>
  </g>
</svg>
