<svg xmlns="http://www.w3.org/2000/svg" xmlns:xlink="http://www.w3.org/1999/xlink" viewBox="0 0 188 66.309">
  <defs>
    <style>
      .cls-1 {
        fill: #000;
      }

      .cls-2 {
        fill: #000;
      }

      <!-- .cls-3 {
        filter: url(#Path_154);
      } -->
    </style>
    <filter id="Path_154" x="96.117" y="0" width="41.522" height="47.091" filterUnits="userSpaceOnUse">
      <feOffset dy="1" input="SourceAlpha"/>
      <feGaussianBlur stdDeviation="5" result="blur"/>
      <feFlood flood-color="#87c930"/>
      <feComposite operator="in" in2="blur"/>
      <feComposite in="SourceGraphic"/>
    </filter>
  </defs>
  <g id="customers_page_alorica_logo_neon" data-name="customers_page_alorica logo_neon" transform="translate(0.101 13.887)">
    <path id="Path_147" data-name="Path 147" class="cls-1" d="M410.526,162.2a16.519,16.519,0,0,1-13.744,16.191,18.033,18.033,0,0,1-14.366-3.135,15.549,15.549,0,0,1-6.469-12.58,16.475,16.475,0,0,1,14.683-16.826,18.244,18.244,0,0,1,10.86,1.693A16.028,16.028,0,0,1,410.526,162.2Zm-10.728.079a6.969,6.969,0,0,0-.556-2.976,6.325,6.325,0,0,0-5.344-4.167,6.03,6.03,0,0,0-5.926,2.606,7.8,7.8,0,0,0,.146,8.929,6.4,6.4,0,0,0,8.215,1.865C398.806,167.2,399.705,164.947,399.8,162.275Z" transform="translate(-326.297 -126.3)"/>
    <path id="Path_148" data-name="Path 148" class="cls-1" d="M1219.475,168.573c0,3.73-.013,6.773.013,9.815,0,.6-.159.807-.78.794-3.148-.026-6.31-.026-9.458,0-.635,0-.807-.225-.767-.807.04-.529.013-1.058,0-1.587,0-.185.079-.45-.119-.542s-.331.159-.463.291a11.321,11.321,0,0,1-6.164,3.109,12.238,12.238,0,0,1-9.352-1.839,8.377,8.377,0,0,1-3.532-6.178c-.3-2.818.026-5.516,1.945-7.791a10.571,10.571,0,0,1,6.323-3.426,22.507,22.507,0,0,1,10.649.6c.741.212.741.212.741-.529,0-2.566-1.719-4.352-4.524-4.709a20.152,20.152,0,0,0-9.471,1.31c-.86.317-.847.317-1.1-.542l-1.825-6.35c-.106-.357-.185-.648.3-.833a30.316,30.316,0,0,1,18.731-1.429c5.027,1.283,7.977,4.961,8.612,10.133C1219.687,161.787,1219.316,165.53,1219.475,168.573Zm-10.821-1.111c0-1.283,0-1.283-1.244-1.627-.317-.079-.635-.172-.966-.225a8.018,8.018,0,0,0-5.093.489,3.639,3.639,0,0,0-1.918,3.929,3.334,3.334,0,0,0,2.963,2.778A5.145,5.145,0,0,0,1208.654,167.461Z" transform="translate(-1031.589 -127.505)"/>
    <path id="Path_149" data-name="Path 149" class="cls-1" d="M30.509,168.052c0,3.9-.013,7.13.013,10.344,0,.622-.172.833-.82.833q-4.663-.04-9.326,0c-.582,0-.794-.172-.754-.754s.013-1.151,0-1.72c0-.172.079-.4-.132-.476s-.3.145-.423.251a11.23,11.23,0,0,1-6.2,3.148c-3.453.529-6.733.145-9.6-2.05a8.571,8.571,0,0,1-3.294-6.323,9.665,9.665,0,0,1,1.825-7.249,10.547,10.547,0,0,1,6.5-3.625,22.92,22.92,0,0,1,10.583.582c.767.212.78.212.767-.569a4.654,4.654,0,0,0-4.5-4.67,20.485,20.485,0,0,0-9.471,1.3c-.886.317-.873.331-1.138-.6-.608-2.117-1.2-4.233-1.839-6.35-.146-.463-.026-.661.41-.833a32.147,32.147,0,0,1,13.532-2.169,19.681,19.681,0,0,1,6.588,1.27A10.852,10.852,0,0,1,30.3,157.88C30.747,161.518,30.39,165.142,30.509,168.052Zm-14.763-2.58a5.978,5.978,0,0,0-3.73.979,3.538,3.538,0,0,0-1.429,3.664,3.159,3.159,0,0,0,2.593,2.659,5.8,5.8,0,0,0,1.971.093,4.947,4.947,0,0,0,4.405-3.453,9.171,9.171,0,0,0,.238-2.619.635.635,0,0,0-.516-.714A12.541,12.541,0,0,0,15.746,165.473Z" transform="translate(0 -127.54)"/>
    <path id="Path_150" data-name="Path 150" class="cls-1" d="M951.98,162.723a16.219,16.219,0,0,1,14.736-16.6A15.846,15.846,0,0,1,978.86,149.3a15.133,15.133,0,0,1,2.963,3.267c.251.37.238.608-.132.873q-3.294,2.441-6.561,4.921c-.384.291-.6.185-.86-.159a6.492,6.492,0,0,0-5.344-2.818,5.817,5.817,0,0,0-5.238,3.135c-1.746,2.976-1.111,7.527,1.323,9.643a6.328,6.328,0,0,0,8.453-.291,15,15,0,0,0,1.124-1.124.515.515,0,0,1,.794-.093c2.183,1.6,4.365,3.214,6.574,4.8.37.265.265.476.053.754a15.091,15.091,0,0,1-10.3,6.535,17,17,0,0,1-11.456-1.852,16.02,16.02,0,0,1-8.109-11.932A11.311,11.311,0,0,1,951.98,162.723Z" transform="translate(-826.135 -126.589)"/>
    <path id="Path_151" data-name="Path 151" class="cls-1" d="M266.1,25.948V1.092c0-.979,0-.979.952-.979,3.082,0,6.164.013,9.26-.013.582,0,.754.185.754.754q-.02,25.081,0,50.175c0,.622-.225.78-.807.78-3.135-.026-6.257-.026-9.392,0-.622,0-.767-.212-.767-.807Q266.12,38.462,266.1,25.948Z" transform="translate(-230.988)"/>
    <path id="Path_152" data-name="Path 152" class="cls-1" d="M673.5,153.388a13.169,13.169,0,0,1,2.738-4.048,8.813,8.813,0,0,1,6.535-2.368c.384.013.5.185.5.529V158.15c0,.437-.238.489-.6.5a15.047,15.047,0,0,0-3.082.318,7.437,7.437,0,0,0-5.648,5.622,15.7,15.7,0,0,0-.582,4.511v9.128c0,.9,0,.9-.926.9-3.135,0-6.257-.013-9.392.013-.582,0-.754-.159-.754-.754q.02-15.08,0-30.16c0-.6.212-.741.767-.741q4.762.04,9.524,0c.609,0,.807.185.78.794-.04,1.455-.013,2.91-.013,4.365A1.2,1.2,0,0,0,673.5,153.388Z" transform="translate(-574.777 -127.44)"/>
    <path id="Path_153" data-name="Path 153" class="cls-1" d="M852.893,166.647v14.869c0,.926,0,.926-.952.926-3.082,0-6.164-.013-9.26.013-.622,0-.78-.2-.78-.794q.02-15.04,0-30.081c0-.622.212-.78.807-.78q4.722.04,9.458,0c.6,0,.754.2.741.767C852.879,156.594,852.893,161.621,852.893,166.647Z" transform="translate(-730.619 -130.765)"/>
    <g class="cls-3" transform="matrix(1, 0, 0, 1, -0.1, -13.89)">
      <path id="Path_154-2" data-name="Path 154" class="cls-2" d="M839.979.2c.728.7,1.376,1.323,2.011,1.945q4.484,4.405,8.956,8.784a1.473,1.473,0,0,1,.476,1.151c-.027,1.548-.027,3.082,0,4.63,0,.4-.066.582-.529.582q-5.219-.02-10.437,0c-.357,0-.555-.04-.555-.489q.02-8.135.013-16.258C839.913.491,839.94.425,839.979.2Z" transform="translate(-728.78 13.8)"/>
    </g>
  </g>
</svg>
