<svg xmlns="http://www.w3.org/2000/svg" viewBox="0 0 21 18.241">
  <defs>
    <style>
      .cls-1 {
        fill: none;
        stroke: #87c930;
        stroke-miterlimit: 10;
      }
    </style>
  </defs>
  <g id="join_our_team_icon" data-name="join our team_icon" transform="translate(-0.5 -0.5)">
    <path id="Path_654" data-name="Path 654" class="cls-1" d="M1,19v2.414c0,.724-.034,1.724.69,1.724v3.448H4.448V23.138c.724,0,.69-1,.69-1.724V19Z" transform="translate(0 -11.793)"/>
    <path id="Path_655" data-name="Path 655" class="cls-1" d="M47,19v2.414c0,.862.345,1.379.69,1.379v3.793h2.759V22.793c.379,0,.69-.655.69-1.379V19Z" transform="translate(-30.139 -11.793)"/>
    <path id="Path_656" data-name="Path 656" class="cls-1" d="M21,19h6.207v4.483c0,.966-.414,1.724-1.379,1.724v4.828H22.379V25.207c-.966,0-1.379-.759-1.379-1.724Z" transform="translate(-13.104 -11.793)"/>
    <circle id="Ellipse_41" data-name="Ellipse 41" class="cls-1" cx="1.379" cy="1.379" r="1.379" transform="translate(17.551 3.069)"/>
    <circle id="Ellipse_42" data-name="Ellipse 42" class="cls-1" cx="1.379" cy="1.379" r="1.379" transform="translate(1.689 3.069)"/>
    <circle id="Ellipse_43" data-name="Ellipse 43" class="cls-1" cx="2.414" cy="2.414" r="2.414" transform="translate(8.586 1)"/>
  </g>
</svg>
