<svg xmlns="http://www.w3.org/2000/svg" viewBox="0 0 21 14.361">
  <defs>
    <style>
      .cls-1, .cls-2 {
        fill: none;
        stroke: #87c930;
        stroke-linecap: round;
        stroke-linejoin: round;
        stroke-miterlimit: 10;
      }

      .cls-1 {
        fill-rule: evenodd;
      }
    </style>
  </defs>
  <g id="our_team_icon" data-name="our team_icon" transform="translate(-0.5 -0.5)">
    <path id="Path_648" data-name="Path 648" class="cls-1" d="M21,14.9v6.3c0,.877.376,1.253.835,1.253h1.67c.459,0,.835-.376.835-1.253V14.9" transform="translate(-11.649 -8.096)"/>
    <line id="Line_267" data-name="Line 267" class="cls-2" y2="5.01" transform="translate(11.021 9.351)"/>
    <path id="Path_649" data-name="Path 649" class="cls-1" d="M18.67,9.351h-.292A1.418,1.418,0,0,1,17,8.015V6.052c0-1,.626-1.754,2.505-1.879V3.965a1.5,1.5,0,0,1-.626-1.42A1.492,1.492,0,0,1,20.3,1h.042a1.5,1.5,0,0,1,1.42,1.587,1.5,1.5,0,0,1-.626,1.42v.167c1.879.125,2.505.877,2.505,1.879V8.015a1.382,1.382,0,0,1-1.378,1.336H22.01" transform="translate(-9.319)"/>
    <path id="Path_650" data-name="Path 650" class="cls-1" d="M5,14.9v6.3c0,.877.376,1.253.835,1.253h1.67c.459,0,.835-.376.835-1.253V14.9" transform="translate(-2.33 -8.096)"/>
    <line id="Line_268" data-name="Line 268" class="cls-2" y2="5.01" transform="translate(4.34 9.351)"/>
    <path id="Path_651" data-name="Path 651" class="cls-1" d="M2.67,9.351H2.378A1.418,1.418,0,0,1,1,8.015v-2c0-1,.626-1.754,2.505-1.879V3.965a1.473,1.473,0,0,1-.626-1.378A1.5,1.5,0,0,1,4.3,1H4.34A1.5,1.5,0,0,1,5.76,2.587a1.5,1.5,0,0,1-.626,1.42v.167c1.879.125,2.505.877,2.505,1.879V8.015A1.382,1.382,0,0,1,6.261,9.351H6.01"/>
    <path id="Path_652" data-name="Path 652" class="cls-1" d="M37,14.9v6.3c0,.877.376,1.253.835,1.253h1.67c.459,0,.835-.376.835-1.253V14.9" transform="translate(-20.969 -8.096)"/>
    <line id="Line_269" data-name="Line 269" class="cls-2" y2="5.01" transform="translate(17.701 9.351)"/>
    <path id="Path_653" data-name="Path 653" class="cls-1" d="M34.67,9.351h-.292A1.418,1.418,0,0,1,33,8.015V6.052c0-1,.626-1.754,2.505-1.879V3.965a1.5,1.5,0,0,1-.626-1.42A1.492,1.492,0,0,1,36.3,1h.042a1.5,1.5,0,0,1,1.42,1.587,1.5,1.5,0,0,1-.626,1.42v.167c1.879.125,2.505.877,2.505,1.879V8.015a1.382,1.382,0,0,1-1.378,1.336H38.01" transform="translate(-18.639)"/>
  </g>
</svg>
