<svg xmlns="http://www.w3.org/2000/svg" xmlns:xlink="http://www.w3.org/1999/xlink" viewBox="0 0 282 253.183">
  <defs>
    <style>
      .cls-1, .cls-2, .cls-3, .cls-4, .cls-5, .cls-6, .cls-7 {
        fill: none;
        stroke-miterlimit: 10;
        stroke-width: 2px;
      }

      .cls-1, .cls-2, .cls-3, .cls-4, .cls-5, .cls-6 {
        stroke: #87c930;
      }

      .cls-2 {
        stroke-dasharray: 12;
      }

      .cls-3 {
        stroke-dasharray: 4.741 4.741;
      }

      .cls-4 {
        stroke-dasharray: 11.889 11.889;
      }

      .cls-5 {
        stroke-dasharray: 5;
      }

      .cls-6 {
        stroke-dasharray: 5.053 5.053;
      }

      .cls-7 {
        stroke: #fff;
      }

      .cls-8 {
        filter: url(#Path_290);
      }

      .cls-9 {
        filter: url(#Path_283);
      }

      .cls-10 {
        filter: url(#Path_282);
      }

      .cls-11 {
        filter: url(#Path_281);
      }

      .cls-12 {
        filter: url(#Path_280);
      }

      .cls-13 {
        filter: url(#Path_279);
      }

      .cls-14 {
        filter: url(#Path_278);
      }

      .cls-15 {
        filter: url(#Path_291);
      }

      .cls-16 {
        filter: url(#Path_289);
      }

      .cls-17 {
        filter: url(#Line_134);
      }

      .cls-18 {
        filter: url(#Path_288);
      }

      .cls-19 {
        filter: url(#Line_133);
      }

      .cls-20 {
        filter: url(#Path_287);
      }

      .cls-21 {
        filter: url(#Path_286);
      }

      .cls-22 {
        filter: url(#Line_132);
      }

      .cls-23 {
        filter: url(#Line_131);
      }

      .cls-24 {
        filter: url(#Path_285);
      }

      .cls-25 {
        filter: url(#Path_284);
      }

      .cls-26 {
        filter: url(#Line_130);
      }

      .cls-27 {
        filter: url(#Line_129);
      }

      .cls-28 {
        filter: url(#Line_128);
      }

      .cls-29 {
        filter: url(#Line_127);
      }

      .cls-30 {
        filter: url(#Line_126);
      }

      .cls-31 {
        filter: url(#Line_125);
      }

      .cls-32 {
        filter: url(#Line_124);
      }

      .cls-33 {
        filter: url(#Line_123);
      }

      .cls-34 {
        filter: url(#Line_122);
      }

      .cls-35 {
        filter: url(#Line_121);
      }

      .cls-36 {
        filter: url(#Line_120);
      }

      .cls-37 {
        filter: url(#Line_119);
      }

      .cls-38 {
        filter: url(#Line_118);
      }

      .cls-39 {
        filter: url(#Line_117);
      }

      .cls-40 {
        filter: url(#Line_116);
      }

      .cls-41 {
        filter: url(#Line_115);
      }

      .cls-42 {
        filter: url(#Line_114);
      }

      .cls-43 {
        filter: url(#Line_113);
      }

      .cls-44 {
        filter: url(#Line_112);
      }

      .cls-45 {
        filter: url(#Line_111);
      }

      .cls-46 {
        filter: url(#Line_110);
      }

      .cls-47 {
        filter: url(#Line_109);
      }

      .cls-48 {
        filter: url(#Line_108);
      }

      .cls-49 {
        filter: url(#Line_107);
      }

      .cls-50 {
        filter: url(#Line_106);
      }

      .cls-51 {
        filter: url(#Line_105);
      }

      .cls-52 {
        filter: url(#Line_104);
      }

      .cls-53 {
        filter: url(#Line_103);
      }

      .cls-54 {
        filter: url(#Ellipse_11);
      }

      .cls-55 {
        filter: url(#Ellipse_10);
      }

      .cls-56 {
        filter: url(#Line_102);
      }

      .cls-57 {
        filter: url(#Ellipse_9);
      }

      .cls-58 {
        filter: url(#Path_277);
      }

      .cls-59 {
        filter: url(#Path_276);
      }

      .cls-60 {
        filter: url(#Path_275);
      }

      .cls-61 {
        filter: url(#Line_101);
      }

      .cls-62 {
        filter: url(#Line_100);
      }

      .cls-63 {
        filter: url(#Line_99);
      }

      .cls-64 {
        filter: url(#Line_98);
      }

      .cls-65 {
        filter: url(#Line_97);
      }

      .cls-66 {
        filter: url(#Path_274);
      }

      .cls-67 {
        filter: url(#Path_273);
      }

      .cls-68 {
        filter: url(#Path_272);
      }

      .cls-69 {
        filter: url(#Path_271);
      }

      .cls-70 {
        filter: url(#Line_96);
      }

      .cls-71 {
        filter: url(#Line_95);
      }

      .cls-72 {
        filter: url(#Line_94);
      }

      .cls-73 {
        filter: url(#Line_93);
      }

      .cls-74 {
        filter: url(#Path_270);
      }

      .cls-75 {
        filter: url(#Path_269);
      }

      .cls-76 {
        filter: url(#Path_268);
      }

      .cls-77 {
        filter: url(#Path_267);
      }

      .cls-78 {
        filter: url(#Path_266);
      }

      .cls-79 {
        filter: url(#Path_265);
      }

      .cls-80 {
        filter: url(#Path_264);
      }
    </style>
    <filter id="Path_264" x="80.927" y="60.334" width="111.232" height="176.776" filterUnits="userSpaceOnUse">
      <feOffset input="SourceAlpha"/>
      <feGaussianBlur stdDeviation="5" result="blur"/>
      <feFlood flood-color="#87c930"/>
      <feComposite operator="in" in2="blur"/>
      <feComposite in="SourceGraphic"/>
    </filter>
    <filter id="Path_265" x="85.259" y="75.465" width="102.505" height="144.506" filterUnits="userSpaceOnUse">
      <feOffset input="SourceAlpha"/>
      <feGaussianBlur stdDeviation="5" result="blur-2"/>
      <feFlood flood-color="#87c930"/>
      <feComposite operator="in" in2="blur-2"/>
      <feComposite in="SourceGraphic"/>
    </filter>
    <filter id="Path_266" x="108.237" y="191.487" width="56.611" height="42.045" filterUnits="userSpaceOnUse">
      <feOffset input="SourceAlpha"/>
      <feGaussianBlur stdDeviation="5" result="blur-3"/>
      <feFlood flood-color="#87c930"/>
      <feComposite operator="in" in2="blur-3"/>
      <feComposite in="SourceGraphic"/>
    </filter>
    <filter id="Path_267" x="106.914" y="81.994" width="72.312" height="43.74" filterUnits="userSpaceOnUse">
      <feOffset input="SourceAlpha"/>
      <feGaussianBlur stdDeviation="5" result="blur-4"/>
      <feFlood flood-color="#87c930"/>
      <feComposite operator="in" in2="blur-4"/>
      <feComposite in="SourceGraphic"/>
    </filter>
    <filter id="Path_268" x="93.923" y="88.963" width="41.606" height="41.605" filterUnits="userSpaceOnUse">
      <feOffset input="SourceAlpha"/>
      <feGaussianBlur stdDeviation="5" result="blur-5"/>
      <feFlood flood-color="#87c930"/>
      <feComposite operator="in" in2="blur-5"/>
      <feComposite in="SourceGraphic"/>
    </filter>
    <filter id="Path_269" x="93.86" y="104.847" width="72.312" height="43.74" filterUnits="userSpaceOnUse">
      <feOffset input="SourceAlpha"/>
      <feGaussianBlur stdDeviation="5" result="blur-6"/>
      <feFlood flood-color="#87c930"/>
      <feComposite operator="in" in2="blur-6"/>
      <feComposite in="SourceGraphic"/>
    </filter>
    <filter id="Path_270" x="137.557" y="111.816" width="41.606" height="41.605" filterUnits="userSpaceOnUse">
      <feOffset input="SourceAlpha"/>
      <feGaussianBlur stdDeviation="5" result="blur-7"/>
      <feFlood flood-color="#87c930"/>
      <feComposite operator="in" in2="blur-7"/>
      <feComposite in="SourceGraphic"/>
    </filter>
    <filter id="Line_93" x="117.776" y="85.573" width="54.36" height="32" filterUnits="userSpaceOnUse">
      <feOffset input="SourceAlpha"/>
      <feGaussianBlur stdDeviation="5" result="blur-8"/>
      <feFlood flood-color="#87c930"/>
      <feComposite operator="in" in2="blur-8"/>
      <feComposite in="SourceGraphic"/>
    </filter>
    <filter id="Line_94" x="117.776" y="88.963" width="50.781" height="32" filterUnits="userSpaceOnUse">
      <feOffset input="SourceAlpha"/>
      <feGaussianBlur stdDeviation="5" result="blur-9"/>
      <feFlood flood-color="#87c930"/>
      <feComposite operator="in" in2="blur-9"/>
      <feComposite in="SourceGraphic"/>
    </filter>
    <filter id="Line_95" x="102.143" y="109.493" width="54.36" height="32" filterUnits="userSpaceOnUse">
      <feOffset input="SourceAlpha"/>
      <feGaussianBlur stdDeviation="5" result="blur-10"/>
      <feFlood flood-color="#87c930"/>
      <feComposite operator="in" in2="blur-10"/>
      <feComposite in="SourceGraphic"/>
    </filter>
    <filter id="Line_96" x="114.323" y="112.883" width="42.18" height="32" filterUnits="userSpaceOnUse">
      <feOffset input="SourceAlpha"/>
      <feGaussianBlur stdDeviation="5" result="blur-11"/>
      <feFlood flood-color="#87c930"/>
      <feComposite operator="in" in2="blur-11"/>
      <feComposite in="SourceGraphic"/>
    </filter>
    <filter id="Path_271" x="106.914" y="126.13" width="72.312" height="43.74" filterUnits="userSpaceOnUse">
      <feOffset input="SourceAlpha"/>
      <feGaussianBlur stdDeviation="5" result="blur-12"/>
      <feFlood flood-color="#87c930"/>
      <feComposite operator="in" in2="blur-12"/>
      <feComposite in="SourceGraphic"/>
    </filter>
    <filter id="Path_272" x="93.923" y="133.099" width="41.606" height="41.606" filterUnits="userSpaceOnUse">
      <feOffset input="SourceAlpha"/>
      <feGaussianBlur stdDeviation="5" result="blur-13"/>
      <feFlood flood-color="#87c930"/>
      <feComposite operator="in" in2="blur-13"/>
      <feComposite in="SourceGraphic"/>
    </filter>
    <filter id="Path_273" x="93.86" y="148.983" width="72.312" height="43.741" filterUnits="userSpaceOnUse">
      <feOffset input="SourceAlpha"/>
      <feGaussianBlur stdDeviation="5" result="blur-14"/>
      <feFlood flood-color="#87c930"/>
      <feComposite operator="in" in2="blur-14"/>
      <feComposite in="SourceGraphic"/>
    </filter>
    <filter id="Path_274" x="137.557" y="156.015" width="41.606" height="41.543" filterUnits="userSpaceOnUse">
      <feOffset input="SourceAlpha"/>
      <feGaussianBlur stdDeviation="5" result="blur-15"/>
      <feFlood flood-color="#87c930"/>
      <feComposite operator="in" in2="blur-15"/>
      <feComposite in="SourceGraphic"/>
    </filter>
    <filter id="Line_97" x="117.776" y="129.771" width="54.36" height="32" filterUnits="userSpaceOnUse">
      <feOffset input="SourceAlpha"/>
      <feGaussianBlur stdDeviation="5" result="blur-16"/>
      <feFlood flood-color="#87c930"/>
      <feComposite operator="in" in2="blur-16"/>
      <feComposite in="SourceGraphic"/>
    </filter>
    <filter id="Line_98" x="117.776" y="133.099" width="42.18" height="32" filterUnits="userSpaceOnUse">
      <feOffset input="SourceAlpha"/>
      <feGaussianBlur stdDeviation="5" result="blur-17"/>
      <feFlood flood-color="#87c930"/>
      <feComposite operator="in" in2="blur-17"/>
      <feComposite in="SourceGraphic"/>
    </filter>
    <filter id="Line_99" x="102.143" y="153.691" width="54.36" height="32" filterUnits="userSpaceOnUse">
      <feOffset input="SourceAlpha"/>
      <feGaussianBlur stdDeviation="5" result="blur-18"/>
      <feFlood flood-color="#87c930"/>
      <feComposite operator="in" in2="blur-18"/>
      <feComposite in="SourceGraphic"/>
    </filter>
    <filter id="Line_100" x="114.323" y="157.019" width="42.18" height="32" filterUnits="userSpaceOnUse">
      <feOffset input="SourceAlpha"/>
      <feGaussianBlur stdDeviation="5" result="blur-19"/>
      <feFlood flood-color="#87c930"/>
      <feComposite operator="in" in2="blur-19"/>
      <feComposite in="SourceGraphic"/>
    </filter>
    <filter id="Line_101" x="86.321" y="169.073" width="100.442" height="32" filterUnits="userSpaceOnUse">
      <feOffset input="SourceAlpha"/>
      <feGaussianBlur stdDeviation="5" result="blur-20"/>
      <feFlood flood-color="#87c930"/>
      <feComposite operator="in" in2="blur-20"/>
      <feComposite in="SourceGraphic"/>
    </filter>
    <filter id="Path_275" x="140.633" y="173.468" width="41.731" height="41.731" filterUnits="userSpaceOnUse">
      <feOffset input="SourceAlpha"/>
      <feGaussianBlur stdDeviation="5" result="blur-21"/>
      <feFlood flood-color="#87c930"/>
      <feComposite operator="in" in2="blur-21"/>
      <feComposite in="SourceGraphic"/>
    </filter>
    <filter id="Path_276" x="90.344" y="173.468" width="77.706" height="41.731" filterUnits="userSpaceOnUse">
      <feOffset input="SourceAlpha"/>
      <feGaussianBlur stdDeviation="5" result="blur-22"/>
      <feFlood flood-color="#87c930"/>
      <feComposite operator="in" in2="blur-22"/>
      <feComposite in="SourceGraphic"/>
    </filter>
    <filter id="Path_277" x="144.253" y="176.026" width="35.409" height="36.873" filterUnits="userSpaceOnUse">
      <feOffset input="SourceAlpha"/>
      <feGaussianBlur stdDeviation="5" result="blur-23"/>
      <feFlood flood-color="#87c930"/>
      <feComposite operator="in" in2="blur-23"/>
      <feComposite in="SourceGraphic"/>
    </filter>
    <filter id="Ellipse_9" x="140.821" y="66.926" width="36.771" height="36.771" filterUnits="userSpaceOnUse">
      <feOffset input="SourceAlpha"/>
      <feGaussianBlur stdDeviation="5" result="blur-24"/>
      <feFlood flood-color="#87c930"/>
      <feComposite operator="in" in2="blur-24"/>
      <feComposite in="SourceGraphic"/>
    </filter>
    <filter id="Line_102" x="110.556" y="69.312" width="56.431" height="32" filterUnits="userSpaceOnUse">
      <feOffset input="SourceAlpha"/>
      <feGaussianBlur stdDeviation="5" result="blur-25"/>
      <feFlood flood-color="#87c930"/>
      <feComposite operator="in" in2="blur-25"/>
      <feComposite in="SourceGraphic"/>
    </filter>
    <filter id="Ellipse_10" x="101.959" y="67.68" width="35.516" height="35.516" filterUnits="userSpaceOnUse">
      <feOffset input="SourceAlpha"/>
      <feGaussianBlur stdDeviation="5" result="blur-26"/>
      <feFlood flood-color="#87c930"/>
      <feComposite operator="in" in2="blur-26"/>
      <feComposite in="SourceGraphic"/>
    </filter>
    <filter id="Ellipse_11" x="95.429" y="67.68" width="35.516" height="35.516" filterUnits="userSpaceOnUse">
      <feOffset input="SourceAlpha"/>
      <feGaussianBlur stdDeviation="5" result="blur-27"/>
      <feFlood flood-color="#87c930"/>
      <feComposite operator="in" in2="blur-27"/>
      <feComposite in="SourceGraphic"/>
    </filter>
    <filter id="Line_103" x="107.102" y="20.907" width="59.884" height="32" filterUnits="userSpaceOnUse">
      <feOffset input="SourceAlpha"/>
      <feGaussianBlur stdDeviation="5" result="blur-28"/>
      <feFlood flood-color="#87c930"/>
      <feComposite operator="in" in2="blur-28"/>
      <feComposite in="SourceGraphic"/>
    </filter>
    <filter id="Line_104" x="107.102" y="25.301" width="59.884" height="32" filterUnits="userSpaceOnUse">
      <feOffset input="SourceAlpha"/>
      <feGaussianBlur stdDeviation="5" result="blur-29"/>
      <feFlood flood-color="#87c930"/>
      <feComposite operator="in" in2="blur-29"/>
      <feComposite in="SourceGraphic"/>
    </filter>
    <filter id="Line_105" x="107.102" y="29.696" width="59.884" height="32" filterUnits="userSpaceOnUse">
      <feOffset input="SourceAlpha"/>
      <feGaussianBlur stdDeviation="5" result="blur-30"/>
      <feFlood flood-color="#87c930"/>
      <feComposite operator="in" in2="blur-30"/>
      <feComposite in="SourceGraphic"/>
    </filter>
    <filter id="Line_106" x="107.102" y="34.091" width="59.884" height="32" filterUnits="userSpaceOnUse">
      <feOffset input="SourceAlpha"/>
      <feGaussianBlur stdDeviation="5" result="blur-31"/>
      <feFlood flood-color="#87c930"/>
      <feComposite operator="in" in2="blur-31"/>
      <feComposite in="SourceGraphic"/>
    </filter>
    <filter id="Line_107" x="189.222" y="74.711" width="65.284" height="32" filterUnits="userSpaceOnUse">
      <feOffset input="SourceAlpha"/>
      <feGaussianBlur stdDeviation="5" result="blur-32"/>
      <feFlood flood-color="#87c930"/>
      <feComposite operator="in" in2="blur-32"/>
      <feComposite in="SourceGraphic"/>
    </filter>
    <filter id="Line_108" x="189.222" y="79.922" width="65.284" height="32" filterUnits="userSpaceOnUse">
      <feOffset input="SourceAlpha"/>
      <feGaussianBlur stdDeviation="5" result="blur-33"/>
      <feFlood flood-color="#87c930"/>
      <feComposite operator="in" in2="blur-33"/>
      <feComposite in="SourceGraphic"/>
    </filter>
    <filter id="Line_109" x="189.222" y="85.133" width="65.284" height="32" filterUnits="userSpaceOnUse">
      <feOffset input="SourceAlpha"/>
      <feGaussianBlur stdDeviation="5" result="blur-34"/>
      <feFlood flood-color="#87c930"/>
      <feComposite operator="in" in2="blur-34"/>
      <feComposite in="SourceGraphic"/>
    </filter>
    <filter id="Line_110" x="189.222" y="90.281" width="65.284" height="32" filterUnits="userSpaceOnUse">
      <feOffset input="SourceAlpha"/>
      <feGaussianBlur stdDeviation="5" result="blur-35"/>
      <feFlood flood-color="#87c930"/>
      <feComposite operator="in" in2="blur-35"/>
      <feComposite in="SourceGraphic"/>
    </filter>
    <filter id="Line_111" x="24.292" y="137.996" width="31.57" height="32" filterUnits="userSpaceOnUse">
      <feOffset input="SourceAlpha"/>
      <feGaussianBlur stdDeviation="5" result="blur-36"/>
      <feFlood flood-color="#87c930"/>
      <feComposite operator="in" in2="blur-36"/>
      <feComposite in="SourceGraphic"/>
    </filter>
    <filter id="Line_112" x="28.875" y="137.996" width="52.288" height="32" filterUnits="userSpaceOnUse">
      <feOffset input="SourceAlpha"/>
      <feGaussianBlur stdDeviation="5" result="blur-37"/>
      <feFlood flood-color="#87c930"/>
      <feComposite operator="in" in2="blur-37"/>
      <feComposite in="SourceGraphic"/>
    </filter>
    <filter id="Line_113" x="52.67" y="137.996" width="31.57" height="32" filterUnits="userSpaceOnUse">
      <feOffset input="SourceAlpha"/>
      <feGaussianBlur stdDeviation="5" result="blur-38"/>
      <feFlood flood-color="#87c930"/>
      <feComposite operator="in" in2="blur-38"/>
      <feComposite in="SourceGraphic"/>
    </filter>
    <filter id="Line_114" x="24.292" y="142.391" width="59.947" height="32" filterUnits="userSpaceOnUse">
      <feOffset input="SourceAlpha"/>
      <feGaussianBlur stdDeviation="5" result="blur-39"/>
      <feFlood flood-color="#87c930"/>
      <feComposite operator="in" in2="blur-39"/>
      <feComposite in="SourceGraphic"/>
    </filter>
    <filter id="Line_115" x="24.292" y="146.786" width="33.767" height="32" filterUnits="userSpaceOnUse">
      <feOffset input="SourceAlpha"/>
      <feGaussianBlur stdDeviation="5" result="blur-40"/>
      <feFlood flood-color="#87c930"/>
      <feComposite operator="in" in2="blur-40"/>
      <feComposite in="SourceGraphic"/>
    </filter>
    <filter id="Line_116" x="35.53" y="146.786" width="41.238" height="32" filterUnits="userSpaceOnUse">
      <feOffset input="SourceAlpha"/>
      <feGaussianBlur stdDeviation="5" result="blur-41"/>
      <feFlood flood-color="#87c930"/>
      <feComposite operator="in" in2="blur-41"/>
      <feComposite in="SourceGraphic"/>
    </filter>
    <filter id="Line_117" x="50.473" y="146.786" width="33.767" height="32" filterUnits="userSpaceOnUse">
      <feOffset input="SourceAlpha"/>
      <feGaussianBlur stdDeviation="5" result="blur-42"/>
      <feFlood flood-color="#87c930"/>
      <feComposite operator="in" in2="blur-42"/>
      <feComposite in="SourceGraphic"/>
    </filter>
    <filter id="Line_118" x="24.292" y="151.18" width="59.947" height="32" filterUnits="userSpaceOnUse">
      <feOffset input="SourceAlpha"/>
      <feGaussianBlur stdDeviation="5" result="blur-43"/>
      <feFlood flood-color="#87c930"/>
      <feComposite operator="in" in2="blur-43"/>
      <feComposite in="SourceGraphic"/>
    </filter>
    <filter id="Line_119" x="33.019" y="59.392" width="53.418" height="32" filterUnits="userSpaceOnUse">
      <feOffset input="SourceAlpha"/>
      <feGaussianBlur stdDeviation="5" result="blur-44"/>
      <feFlood flood-color="#87c930"/>
      <feComposite operator="in" in2="blur-44"/>
      <feComposite in="SourceGraphic"/>
    </filter>
    <filter id="Line_120" x="30.068" y="64.352" width="59.319" height="32" filterUnits="userSpaceOnUse">
      <feOffset input="SourceAlpha"/>
      <feGaussianBlur stdDeviation="5" result="blur-45"/>
      <feFlood flood-color="#87c930"/>
      <feComposite operator="in" in2="blur-45"/>
      <feComposite in="SourceGraphic"/>
    </filter>
    <filter id="Line_121" x="30.068" y="69.563" width="59.319" height="32" filterUnits="userSpaceOnUse">
      <feOffset input="SourceAlpha"/>
      <feGaussianBlur stdDeviation="5" result="blur-46"/>
      <feFlood flood-color="#87c930"/>
      <feComposite operator="in" in2="blur-46"/>
      <feComposite in="SourceGraphic"/>
    </filter>
    <filter id="Line_122" x="34.463" y="74.46" width="50.53" height="32" filterUnits="userSpaceOnUse">
      <feOffset input="SourceAlpha"/>
      <feGaussianBlur stdDeviation="5" result="blur-47"/>
      <feFlood flood-color="#87c930"/>
      <feComposite operator="in" in2="blur-47"/>
      <feComposite in="SourceGraphic"/>
    </filter>
    <filter id="Line_123" x="174.908" y="17.328" width="42.87" height="32" filterUnits="userSpaceOnUse">
      <feOffset input="SourceAlpha"/>
      <feGaussianBlur stdDeviation="5" result="blur-48"/>
      <feFlood flood-color="#87c930"/>
      <feComposite operator="in" in2="blur-48"/>
      <feComposite in="SourceGraphic"/>
    </filter>
    <filter id="Line_124" x="173.338" y="20.028" width="46.072" height="32" filterUnits="userSpaceOnUse">
      <feOffset input="SourceAlpha"/>
      <feGaussianBlur stdDeviation="5" result="blur-49"/>
      <feFlood flood-color="#87c930"/>
      <feComposite operator="in" in2="blur-49"/>
      <feComposite in="SourceGraphic"/>
    </filter>
    <filter id="Line_125" x="173.338" y="22.916" width="46.072" height="32" filterUnits="userSpaceOnUse">
      <feOffset input="SourceAlpha"/>
      <feGaussianBlur stdDeviation="5" result="blur-50"/>
      <feFlood flood-color="#87c930"/>
      <feComposite operator="in" in2="blur-50"/>
      <feComposite in="SourceGraphic"/>
    </filter>
    <filter id="Line_126" x="175.724" y="25.615" width="41.301" height="32" filterUnits="userSpaceOnUse">
      <feOffset input="SourceAlpha"/>
      <feGaussianBlur stdDeviation="5" result="blur-51"/>
      <feFlood flood-color="#87c930"/>
      <feComposite operator="in" in2="blur-51"/>
      <feComposite in="SourceGraphic"/>
    </filter>
    <filter id="Line_127" x="181.625" y="132.848" width="42.996" height="32" filterUnits="userSpaceOnUse">
      <feOffset input="SourceAlpha"/>
      <feGaussianBlur stdDeviation="5" result="blur-52"/>
      <feFlood flood-color="#87c930"/>
      <feComposite operator="in" in2="blur-52"/>
      <feComposite in="SourceGraphic"/>
    </filter>
    <filter id="Line_128" x="179.993" y="135.61" width="46.261" height="32" filterUnits="userSpaceOnUse">
      <feOffset input="SourceAlpha"/>
      <feGaussianBlur stdDeviation="5" result="blur-53"/>
      <feFlood flood-color="#87c930"/>
      <feComposite operator="in" in2="blur-53"/>
      <feComposite in="SourceGraphic"/>
    </filter>
    <filter id="Line_129" x="179.993" y="138.498" width="46.261" height="32" filterUnits="userSpaceOnUse">
      <feOffset input="SourceAlpha"/>
      <feGaussianBlur stdDeviation="5" result="blur-54"/>
      <feFlood flood-color="#87c930"/>
      <feComposite operator="in" in2="blur-54"/>
      <feComposite in="SourceGraphic"/>
    </filter>
    <filter id="Line_130" x="182.442" y="141.198" width="41.364" height="32" filterUnits="userSpaceOnUse">
      <feOffset input="SourceAlpha"/>
      <feGaussianBlur stdDeviation="5" result="blur-55"/>
      <feFlood flood-color="#87c930"/>
      <feComposite operator="in" in2="blur-55"/>
      <feComposite in="SourceGraphic"/>
    </filter>
    <filter id="Path_284" x="161.095" y="160.66" width="79.97" height="62.826" filterUnits="userSpaceOnUse">
      <feOffset input="SourceAlpha"/>
      <feGaussianBlur stdDeviation="5" result="blur-56"/>
      <feFlood flood-color="#87c930"/>
      <feComposite operator="in" in2="blur-56"/>
      <feComposite in="SourceGraphic"/>
    </filter>
    <filter id="Path_285" x="32.019" y="91.977" width="79.97" height="58.494" filterUnits="userSpaceOnUse">
      <feOffset input="SourceAlpha"/>
      <feGaussianBlur stdDeviation="5" result="blur-57"/>
      <feFlood flood-color="#87c930"/>
      <feComposite operator="in" in2="blur-57"/>
      <feComposite in="SourceGraphic"/>
    </filter>
    <filter id="Line_131" x="61.02" y="148.983" width="50.969" height="32" filterUnits="userSpaceOnUse">
      <feOffset input="SourceAlpha"/>
      <feGaussianBlur stdDeviation="5" result="blur-58"/>
      <feFlood flood-color="#87c930"/>
      <feComposite operator="in" in2="blur-58"/>
      <feComposite in="SourceGraphic"/>
    </filter>
    <filter id="Line_132" x="161.095" y="90.281" width="48.897" height="32" filterUnits="userSpaceOnUse">
      <feOffset input="SourceAlpha"/>
      <feGaussianBlur stdDeviation="5" result="blur-59"/>
      <feFlood flood-color="#87c930"/>
      <feComposite operator="in" in2="blur-59"/>
      <feComposite in="SourceGraphic"/>
    </filter>
    <filter id="Path_286" x="23.292" y="160.342" width="88.697" height="63.145" filterUnits="userSpaceOnUse">
      <feOffset input="SourceAlpha"/>
      <feGaussianBlur stdDeviation="5" result="blur-60"/>
      <feFlood flood-color="#87c930"/>
      <feComposite operator="in" in2="blur-60"/>
      <feComposite in="SourceGraphic"/>
    </filter>
    <filter id="Path_287" x="143.391" y="0" width="73.127" height="61.696" filterUnits="userSpaceOnUse">
      <feOffset input="SourceAlpha"/>
      <feGaussianBlur stdDeviation="5" result="blur-61"/>
      <feFlood flood-color="#87c930"/>
      <feComposite operator="in" in2="blur-61"/>
      <feComposite in="SourceGraphic"/>
    </filter>
    <filter id="Line_133" x="136.987" y="51.042" width="31.57" height="32" filterUnits="userSpaceOnUse">
      <feOffset input="SourceAlpha"/>
      <feGaussianBlur stdDeviation="5" result="blur-62"/>
      <feFlood flood-color="#87c930"/>
      <feComposite operator="in" in2="blur-62"/>
      <feComposite in="SourceGraphic"/>
    </filter>
    <filter id="Path_288" x="141.758" y="42.378" width="140.242" height="64.019" filterUnits="userSpaceOnUse">
      <feOffset input="SourceAlpha"/>
      <feGaussianBlur stdDeviation="5" result="blur-63"/>
      <feFlood flood-color="#87c930"/>
      <feComposite operator="in" in2="blur-63"/>
      <feComposite in="SourceGraphic"/>
    </filter>
    <filter id="Line_134" x="232.542" y="74.46" width="31.57" height="32" filterUnits="userSpaceOnUse">
      <feOffset input="SourceAlpha"/>
      <feGaussianBlur stdDeviation="5" result="blur-64"/>
      <feFlood flood-color="#87c930"/>
      <feComposite operator="in" in2="blur-64"/>
      <feComposite in="SourceGraphic"/>
    </filter>
    <filter id="Path_289" x="0" y="12.808" width="129.694" height="84.361" filterUnits="userSpaceOnUse">
      <feOffset input="SourceAlpha"/>
      <feGaussianBlur stdDeviation="5" result="blur-65"/>
      <feFlood flood-color="#87c930"/>
      <feComposite operator="in" in2="blur-65"/>
      <feComposite in="SourceGraphic"/>
    </filter>
    <filter id="Path_291" x="6.023" y="201.532" width="84.428" height="50.714" filterUnits="userSpaceOnUse">
      <feOffset input="SourceAlpha"/>
      <feGaussianBlur stdDeviation="5" result="blur-66"/>
      <feFlood flood-color="#87c930"/>
      <feComposite operator="in" in2="blur-66"/>
      <feComposite in="SourceGraphic"/>
    </filter>
    <filter id="Path_278" x="98.255" y="12.745" width="76.576" height="71.573" filterUnits="userSpaceOnUse">
      <feOffset input="SourceAlpha"/>
      <feGaussianBlur stdDeviation="5" result="blur-67"/>
      <feFlood flood-color="#ad5dc2"/>
      <feComposite operator="in" in2="blur-67"/>
      <feComposite in="SourceGraphic"/>
    </filter>
    <filter id="Path_279" x="179.056" y="65.105" width="84.549" height="78.576" filterUnits="userSpaceOnUse">
      <feOffset input="SourceAlpha"/>
      <feGaussianBlur stdDeviation="5" result="blur-68"/>
      <feFlood flood-color="#ad5dc2"/>
      <feComposite operator="in" in2="blur-68"/>
      <feComposite in="SourceGraphic"/>
    </filter>
    <filter id="Path_280" x="15.507" y="129.834" width="76.513" height="71.736" filterUnits="userSpaceOnUse">
      <feOffset input="SourceAlpha"/>
      <feGaussianBlur stdDeviation="5" result="blur-69"/>
      <feFlood flood-color="#ad5dc2"/>
      <feComposite operator="in" in2="blur-69"/>
      <feComposite in="SourceGraphic"/>
    </filter>
    <filter id="Path_281" x="20.655" y="42.441" width="78.208" height="92.795" filterUnits="userSpaceOnUse">
      <feOffset input="SourceAlpha"/>
      <feGaussianBlur stdDeviation="5" result="blur-70"/>
      <feFlood flood-color="#ad5dc2"/>
      <feComposite operator="in" in2="blur-70"/>
      <feComposite in="SourceGraphic"/>
    </filter>
    <filter id="Path_282" x="167.692" y="8.036" width="57.364" height="66.32" filterUnits="userSpaceOnUse">
      <feOffset input="SourceAlpha"/>
      <feGaussianBlur stdDeviation="5" result="blur-71"/>
      <feFlood flood-color="#ad5dc2"/>
      <feComposite operator="in" in2="blur-71"/>
      <feComposite in="SourceGraphic"/>
    </filter>
    <filter id="Path_283" x="174.347" y="123.494" width="57.615" height="66.659" filterUnits="userSpaceOnUse">
      <feOffset input="SourceAlpha"/>
      <feGaussianBlur stdDeviation="5" result="blur-72"/>
      <feFlood flood-color="#ad5dc2"/>
      <feComposite operator="in" in2="blur-72"/>
      <feComposite in="SourceGraphic"/>
    </filter>
    <filter id="Path_290" x="5.023" y="100.95" width="250.483" height="152.233" filterUnits="userSpaceOnUse">
      <feOffset input="SourceAlpha"/>
      <feGaussianBlur stdDeviation="5" result="blur-73"/>
      <feFlood flood-color="#ad5dc2"/>
      <feComposite operator="in" in2="blur-73"/>
      <feComposite in="SourceGraphic"/>
    </filter>
  </defs>
  <g id="About_icon" data-name="About icon" transform="translate(14.5 14.5)">
    <g class="cls-80" transform="matrix(1, 0, 0, 1, -14.5, -14.5)">
      <path id="Path_264-2" data-name="Path 264" class="cls-1" d="M201.093,242.377H138.938a8.547,8.547,0,0,1-8.538-8.538v-127.7a8.547,8.547,0,0,1,8.538-8.538h62.155a8.547,8.547,0,0,1,8.538,8.538v127.7A8.629,8.629,0,0,1,201.093,242.377Z" transform="translate(-33.47 -21.27)"/>
    </g>
    <g class="cls-79" transform="matrix(1, 0, 0, 1, -14.5, -14.5)">
      <path id="Path_265-2" data-name="Path 265" class="cls-1" d="M203.912,234.206h-62.72a3.912,3.912,0,0,1-3.893-3.893V125.593a3.912,3.912,0,0,1,3.893-3.893h62.72a3.912,3.912,0,0,1,3.893,3.893V230.377A3.819,3.819,0,0,1,203.912,234.206Z" transform="translate(-36.04 -30.24)"/>
    </g>
    <g class="cls-78" transform="matrix(1, 0, 0, 1, -14.5, -14.5)">
      <path id="Path_266-2" data-name="Path 266" class="cls-1" d="M193.488,316.545H178.923a5.037,5.037,0,0,1-5.023-5.023h0a5.037,5.037,0,0,1,5.023-5.023h14.566a5.037,5.037,0,0,1,5.023,5.023h0A5.037,5.037,0,0,1,193.488,316.545Z" transform="translate(-49.66 -99.01)"/>
    </g>
    <g class="cls-77" transform="matrix(1, 0, 0, 1, -14.5, -14.5)">
      <path id="Path_267-2" data-name="Path 267" class="cls-1" d="M207.061,132.1H182.45a5.9,5.9,0,0,0-5.9,5.9,5.812,5.812,0,0,0,.691,2.762L174.1,143.84h32.961a5.9,5.9,0,0,0,5.9-5.9A5.964,5.964,0,0,0,207.061,132.1Z" transform="translate(-49.74 -34.11)"/>
    </g>
    <g class="cls-76" transform="matrix(1, 0, 0, 1, -14.5, -14.5)">
      <path id="Path_268-2" data-name="Path 268" class="cls-1" d="M158.194,152.806h-4.583a2.519,2.519,0,0,1-2.511-2.511v-4.583a2.519,2.519,0,0,1,2.511-2.511h4.583a2.519,2.519,0,0,1,2.511,2.511v4.583A2.519,2.519,0,0,1,158.194,152.806Z" transform="translate(-41.18 -38.24)"/>
    </g>
    <g class="cls-75" transform="matrix(1, 0, 0, 1, -14.5, -14.5)">
      <path id="Path_269-2" data-name="Path 269" class="cls-1" d="M156.9,168.5h24.611a5.9,5.9,0,0,1,5.9,5.9,5.811,5.811,0,0,1-.691,2.762l3.139,3.076H156.9a5.9,5.9,0,0,1-5.9-5.9A5.964,5.964,0,0,1,156.9,168.5Z" transform="translate(-41.14 -47.65)"/>
    </g>
    <g class="cls-74" transform="matrix(1, 0, 0, 1, -14.5, -14.5)">
      <path id="Path_270-2" data-name="Path 270" class="cls-1" d="M223.111,189.206h4.583a2.519,2.519,0,0,0,2.511-2.511v-4.583a2.519,2.519,0,0,0-2.511-2.511h-4.583a2.519,2.519,0,0,0-2.511,2.511v4.583A2.519,2.519,0,0,0,223.111,189.206Z" transform="translate(-67.04 -51.78)"/>
    </g>
    <g class="cls-73" transform="matrix(1, 0, 0, 1, -14.5, -14.5)">
      <line id="Line_93-2" data-name="Line 93" class="cls-1" x2="24.36" transform="translate(132.78 101.57)"/>
    </g>
    <g class="cls-72" transform="matrix(1, 0, 0, 1, -14.5, -14.5)">
      <line id="Line_94-2" data-name="Line 94" class="cls-2" x2="20.781" transform="translate(132.78 104.96)"/>
    </g>
    <g class="cls-71" transform="matrix(1, 0, 0, 1, -14.5, -14.5)">
      <line id="Line_95-2" data-name="Line 95" class="cls-1" x1="24.36" transform="translate(117.14 125.49)"/>
    </g>
    <g class="cls-70" transform="matrix(1, 0, 0, 1, -14.5, -14.5)">
      <line id="Line_96-2" data-name="Line 96" class="cls-1" x1="12.18" transform="translate(129.32 128.88)"/>
    </g>
    <g class="cls-69" transform="matrix(1, 0, 0, 1, -14.5, -14.5)">
      <path id="Path_271-2" data-name="Path 271" class="cls-1" d="M207.061,202.4H182.45a5.9,5.9,0,0,0-5.9,5.9,5.812,5.812,0,0,0,.691,2.762L174.1,214.14h32.961a5.9,5.9,0,0,0,5.9-5.9A5.964,5.964,0,0,0,207.061,202.4Z" transform="translate(-49.74 -60.27)"/>
    </g>
    <g class="cls-68" transform="matrix(1, 0, 0, 1, -14.5, -14.5)">
      <path id="Path_272-2" data-name="Path 272" class="cls-1" d="M158.194,223.106h-4.583a2.519,2.519,0,0,1-2.511-2.511v-4.583a2.519,2.519,0,0,1,2.511-2.511h4.583a2.519,2.519,0,0,1,2.511,2.511v4.583A2.519,2.519,0,0,1,158.194,223.106Z" transform="translate(-41.18 -64.4)"/>
    </g>
    <g class="cls-67" transform="matrix(1, 0, 0, 1, -14.5, -14.5)">
      <path id="Path_273-2" data-name="Path 273" class="cls-1" d="M156.9,238.8h24.611a5.9,5.9,0,0,1,5.9,5.9,5.812,5.812,0,0,1-.691,2.762l3.139,3.076H156.9a5.9,5.9,0,0,1-5.9-5.9A6.007,6.007,0,0,1,156.9,238.8Z" transform="translate(-41.14 -73.82)"/>
    </g>
    <g class="cls-66" transform="matrix(1, 0, 0, 1, -14.5, -14.5)">
      <path id="Path_274-2" data-name="Path 274" class="cls-1" d="M223.111,259.543h4.583a2.519,2.519,0,0,0,2.511-2.511v-4.52A2.519,2.519,0,0,0,227.694,250h-4.583a2.519,2.519,0,0,0-2.511,2.511v4.583A2.506,2.506,0,0,0,223.111,259.543Z" transform="translate(-67.04 -77.99)"/>
    </g>
    <g class="cls-65" transform="matrix(1, 0, 0, 1, -14.5, -14.5)">
      <line id="Line_97-2" data-name="Line 97" class="cls-1" x2="24.36" transform="translate(132.78 145.77)"/>
    </g>
    <g class="cls-64" transform="matrix(1, 0, 0, 1, -14.5, -14.5)">
      <line id="Line_98-2" data-name="Line 98" class="cls-1" x2="12.18" transform="translate(132.78 149.1)"/>
    </g>
    <g class="cls-63" transform="matrix(1, 0, 0, 1, -14.5, -14.5)">
      <line id="Line_99-2" data-name="Line 99" class="cls-2" x1="24.36" transform="translate(117.14 169.69)"/>
    </g>
    <g class="cls-62" transform="matrix(1, 0, 0, 1, -14.5, -14.5)">
      <line id="Line_100-2" data-name="Line 100" class="cls-1" x1="12.18" transform="translate(129.32 173.02)"/>
    </g>
    <g class="cls-61" transform="matrix(1, 0, 0, 1, -14.5, -14.5)">
      <line id="Line_101-2" data-name="Line 101" class="cls-1" x2="70.442" transform="translate(101.32 185.07)"/>
    </g>
    <g class="cls-60" transform="matrix(1, 0, 0, 1, -14.5, -14.5)">
      <path id="Path_275-2" data-name="Path 275" class="cls-1" d="M232.72,287.531h-4.709a2.519,2.519,0,0,1-2.511-2.511v-4.709a2.519,2.519,0,0,1,2.511-2.511h4.709a2.519,2.519,0,0,1,2.511,2.511v4.709A2.519,2.519,0,0,1,232.72,287.531Z" transform="translate(-68.87 -88.33)"/>
    </g>
    <g class="cls-59" transform="matrix(1, 0, 0, 1, -14.5, -14.5)">
      <path id="Path_276-2" data-name="Path 276" class="cls-1" d="M188.594,287.531H147.911a2.519,2.519,0,0,1-2.511-2.511v-4.709a2.519,2.519,0,0,1,2.511-2.511h40.683a2.519,2.519,0,0,1,2.511,2.511v4.709A2.519,2.519,0,0,1,188.594,287.531Z" transform="translate(-39.06 -88.33)"/>
    </g>
    <g class="cls-58" transform="matrix(1, 0, 0, 1, -14.5, -14.5)">
      <path id="Path_277-2" data-name="Path 277" class="cls-1" d="M230.7,281.5l3.2,2.7-3.2,2.637" transform="translate(-70.8 -89.71)"/>
    </g>
    <g class="cls-57" transform="matrix(1, 0, 0, 1, -14.5, -14.5)">
      <ellipse id="Ellipse_9-2" data-name="Ellipse 9" class="cls-1" cx="2.386" cy="2.386" rx="2.386" ry="2.386" transform="translate(156.82 82.93)"/>
    </g>
    <g class="cls-56" transform="matrix(1, 0, 0, 1, -14.5, -14.5)">
      <line id="Line_102-2" data-name="Line 102" class="cls-1" x1="26.431" transform="translate(125.56 85.31)"/>
    </g>
    <g class="cls-55" transform="matrix(1, 0, 0, 1, -14.5, -14.5)">
      <ellipse id="Ellipse_10-2" data-name="Ellipse 10" class="cls-1" cx="1.758" cy="1.758" rx="1.758" ry="1.758" transform="translate(117.96 83.68)"/>
    </g>
    <g class="cls-54" transform="matrix(1, 0, 0, 1, -14.5, -14.5)">
      <ellipse id="Ellipse_11-2" data-name="Ellipse 11" class="cls-1" cx="1.758" cy="1.758" rx="1.758" ry="1.758" transform="translate(111.43 83.68)"/>
    </g>
    <g class="cls-53" transform="matrix(1, 0, 0, 1, -14.5, -14.5)">
      <line id="Line_103-2" data-name="Line 103" class="cls-1" x2="29.884" transform="translate(122.1 36.91)"/>
    </g>
    <g class="cls-52" transform="matrix(1, 0, 0, 1, -14.5, -14.5)">
      <line id="Line_104-2" data-name="Line 104" class="cls-1" x2="29.884" transform="translate(122.1 41.3)"/>
    </g>
    <g class="cls-51" transform="matrix(1, 0, 0, 1, -14.5, -14.5)">
      <line id="Line_105-2" data-name="Line 105" class="cls-1" x2="29.884" transform="translate(122.1 45.7)"/>
    </g>
    <g class="cls-50" transform="matrix(1, 0, 0, 1, -14.5, -14.5)">
      <line id="Line_106-2" data-name="Line 106" class="cls-2" x2="29.884" transform="translate(122.1 50.09)"/>
    </g>
    <g class="cls-49" transform="matrix(1, 0, 0, 1, -14.5, -14.5)">
      <line id="Line_107-2" data-name="Line 107" class="cls-1" x2="35.284" transform="translate(204.22 90.71)"/>
    </g>
    <g class="cls-48" transform="matrix(1, 0, 0, 1, -14.5, -14.5)">
      <line id="Line_108-2" data-name="Line 108" class="cls-1" x2="35.284" transform="translate(204.22 95.92)"/>
    </g>
    <g class="cls-47" transform="matrix(1, 0, 0, 1, -14.5, -14.5)">
      <line id="Line_109-2" data-name="Line 109" class="cls-1" x2="35.284" transform="translate(204.22 101.13)"/>
    </g>
    <g class="cls-46" transform="matrix(1, 0, 0, 1, -14.5, -14.5)">
      <line id="Line_110-2" data-name="Line 110" class="cls-1" x2="35.284" transform="translate(204.22 106.28)"/>
    </g>
    <g class="cls-45" transform="matrix(1, 0, 0, 1, -14.5, -14.5)">
      <line id="Line_111-2" data-name="Line 111" class="cls-1" x2="1.57" transform="translate(39.29 154)"/>
    </g>
    <g class="cls-44" transform="matrix(1, 0, 0, 1, -14.5, -14.5)">
      <line id="Line_112-2" data-name="Line 112" class="cls-3" x2="22.288" transform="translate(43.88 154)"/>
    </g>
    <g class="cls-43" transform="matrix(1, 0, 0, 1, -14.5, -14.5)">
      <line id="Line_113-2" data-name="Line 113" class="cls-1" x2="1.57" transform="translate(67.67 154)"/>
    </g>
    <g class="cls-42" transform="matrix(1, 0, 0, 1, -14.5, -14.5)">
      <line id="Line_114-2" data-name="Line 114" class="cls-1" x2="29.947" transform="translate(39.29 158.39)"/>
    </g>
    <g class="cls-41" transform="matrix(1, 0, 0, 1, -14.5, -14.5)">
      <line id="Line_115-2" data-name="Line 115" class="cls-1" x2="3.767" transform="translate(39.29 162.79)"/>
    </g>
    <g class="cls-40" transform="matrix(1, 0, 0, 1, -14.5, -14.5)">
      <line id="Line_116-2" data-name="Line 116" class="cls-4" x2="11.238" transform="translate(50.53 162.79)"/>
    </g>
    <g class="cls-39" transform="matrix(1, 0, 0, 1, -14.5, -14.5)">
      <line id="Line_117-2" data-name="Line 117" class="cls-1" x2="3.767" transform="translate(65.47 162.79)"/>
    </g>
    <g class="cls-38" transform="matrix(1, 0, 0, 1, -14.5, -14.5)">
      <line id="Line_118-2" data-name="Line 118" class="cls-1" x2="29.947" transform="translate(39.29 167.18)"/>
    </g>
    <g class="cls-37" transform="matrix(1, 0, 0, 1, -14.5, -14.5)">
      <line id="Line_119-2" data-name="Line 119" class="cls-1" x2="23.418" transform="translate(48.02 75.39)"/>
    </g>
    <g class="cls-36" transform="matrix(1, 0, 0, 1, -14.5, -14.5)">
      <line id="Line_120-2" data-name="Line 120" class="cls-1" x2="29.319" transform="translate(45.07 80.35)"/>
    </g>
    <g class="cls-35" transform="matrix(1, 0, 0, 1, -14.5, -14.5)">
      <line id="Line_121-2" data-name="Line 121" class="cls-1" x2="29.319" transform="translate(45.07 85.56)"/>
    </g>
    <g class="cls-34" transform="matrix(1, 0, 0, 1, -14.5, -14.5)">
      <line id="Line_122-2" data-name="Line 122" class="cls-1" x2="20.53" transform="translate(49.46 90.46)"/>
    </g>
    <g class="cls-33" transform="matrix(1, 0, 0, 1, -14.5, -14.5)">
      <line id="Line_123-2" data-name="Line 123" class="cls-1" x2="12.87" transform="translate(189.91 33.33)"/>
    </g>
    <g class="cls-32" transform="matrix(1, 0, 0, 1, -14.5, -14.5)">
      <line id="Line_124-2" data-name="Line 124" class="cls-1" x2="16.072" transform="translate(188.34 36.03)"/>
    </g>
    <g class="cls-31" transform="matrix(1, 0, 0, 1, -14.5, -14.5)">
      <line id="Line_125-2" data-name="Line 125" class="cls-1" x2="16.072" transform="translate(188.34 38.92)"/>
    </g>
    <g class="cls-30" transform="matrix(1, 0, 0, 1, -14.5, -14.5)">
      <line id="Line_126-2" data-name="Line 126" class="cls-1" x2="11.301" transform="translate(190.72 41.62)"/>
    </g>
    <g class="cls-29" transform="matrix(1, 0, 0, 1, -14.5, -14.5)">
      <line id="Line_127-2" data-name="Line 127" class="cls-1" x2="12.996" transform="translate(196.63 148.85)"/>
    </g>
    <g class="cls-28" transform="matrix(1, 0, 0, 1, -14.5, -14.5)">
      <line id="Line_128-2" data-name="Line 128" class="cls-1" x2="16.261" transform="translate(194.99 151.61)"/>
    </g>
    <g class="cls-27" transform="matrix(1, 0, 0, 1, -14.5, -14.5)">
      <line id="Line_129-2" data-name="Line 129" class="cls-1" x2="16.261" transform="translate(194.99 154.5)"/>
    </g>
    <g class="cls-26" transform="matrix(1, 0, 0, 1, -14.5, -14.5)">
      <line id="Line_130-2" data-name="Line 130" class="cls-1" x2="11.364" transform="translate(197.44 157.2)"/>
    </g>
    <g class="cls-25" transform="matrix(1, 0, 0, 1, -14.5, -14.5)">
      <path id="Path_284-2" data-name="Path 284" class="cls-5" d="M256.5,288.226h38.988a3.711,3.711,0,0,0,3.7-3.7v-.879a3.711,3.711,0,0,0-3.7-3.7H279.1a3.711,3.711,0,0,1-3.7-3.7v-.063a3.711,3.711,0,0,1,3.7-3.7h22.665a3.711,3.711,0,0,0,3.7-3.7v-.251a3.711,3.711,0,0,0-3.7-3.7H272.384a3.711,3.711,0,0,1-3.7-3.7h0a3.711,3.711,0,0,1,3.7-3.7H275.4" transform="translate(-80.4 -80.74)"/>
    </g>
    <g class="cls-24" transform="matrix(1, 0, 0, 1, -14.5, -14.5)">
      <path id="Path_285-2" data-name="Path 285" class="cls-1" d="M101.47,174.494h-44.7a4.274,4.274,0,0,1-4.269-4.269v-.439a4.274,4.274,0,0,1,4.269-4.269H86.34a4.274,4.274,0,0,0,4.269-4.269h0a4.274,4.274,0,0,0-4.269-4.269H80.187a4.274,4.274,0,0,1-4.269-4.269v-.439A4.274,4.274,0,0,1,80.187,148h21.22" transform="translate(-4.48 -40.02)"/>
    </g>
    <g class="cls-23" transform="matrix(1, 0, 0, 1, -14.5, -14.5)">
      <line id="Line_131-2" data-name="Line 131" class="cls-1" x1="20.969" transform="translate(76.02 164.98)"/>
    </g>
    <g class="cls-22" transform="matrix(1, 0, 0, 1, -14.5, -14.5)">
      <line id="Line_132-2" data-name="Line 132" class="cls-1" x2="18.898" transform="translate(176.1 106.28)"/>
    </g>
    <g class="cls-21" transform="matrix(1, 0, 0, 1, -14.5, -14.5)">
      <path id="Path_286-2" data-name="Path 286" class="cls-1" d="M96.3,287.445H89.328a3.51,3.51,0,0,1-3.516-3.516V268.547a3.51,3.51,0,0,0-3.516-3.516h-.879a3.51,3.51,0,0,0-3.516,3.516v15.382a3.51,3.51,0,0,1-3.516,3.516h-1.57a3.51,3.51,0,0,1-3.516-3.516V280.6a3.51,3.51,0,0,0-3.516-3.516h-.691a3.51,3.51,0,0,0-3.516,3.516v3.327a3.51,3.51,0,0,1-3.516,3.516H49.147a3.51,3.51,0,0,1-3.516-3.516V272.942a3.51,3.51,0,0,0-3.516-3.516h0A3.51,3.51,0,0,1,38.6,265.91V255.3" transform="translate(0.69 -79.96)"/>
    </g>
    <g class="cls-20" transform="matrix(1, 0, 0, 1, -14.5, -14.5)">
      <path id="Path_287-2" data-name="Path 287" class="cls-1" d="M228.3,31.2h6.4a3.778,3.778,0,0,0,3.767-3.767V22.595a3.778,3.778,0,0,1,3.767-3.767h0A3.778,3.778,0,0,0,246,15.061V5.267A3.778,3.778,0,0,1,249.772,1.5H266.66a3.778,3.778,0,0,1,3.767,3.767V9.473" transform="translate(-69.91 14.5)"/>
    </g>
    <g class="cls-19" transform="matrix(1, 0, 0, 1, -14.5, -14.5)">
      <line id="Line_133-2" data-name="Line 133" class="cls-1" x2="1.57" transform="translate(151.99 67.04)"/>
    </g>
    <g class="cls-18" transform="matrix(1, 0, 0, 1, -14.5, -14.5)">
      <path id="Path_288-2" data-name="Path 288" class="cls-6" d="M225.7,77.664h42.064a4.341,4.341,0,0,0,4.332-4.332h0A4.341,4.341,0,0,1,276.428,69h10.234a4.341,4.341,0,0,1,4.332,4.332V77.1a4.341,4.341,0,0,0,4.332,4.332H324.9a10.075,10.075,0,0,1,10.045,10.045v3.83a5.734,5.734,0,0,1-5.713,5.713h-9.417" transform="translate(-68.94 -10.62)"/>
    </g>
    <g class="cls-17" transform="matrix(1, 0, 0, 1, -14.5, -14.5)">
      <line id="Line_134-2" data-name="Line 134" class="cls-1" x1="1.57" transform="translate(247.54 90.46)"/>
    </g>
    <g class="cls-16" transform="matrix(1, 0, 0, 1, -14.5, -14.5)">
      <path id="Path_289-2" data-name="Path 289" class="cls-5" d="M100.194,34.708H84.373a6.3,6.3,0,0,1-6.278-6.278v-.251A6.3,6.3,0,0,0,71.816,21.9h-8.6a6.3,6.3,0,0,0-6.278,6.278h0a6.3,6.3,0,0,1-6.278,6.278H28.434a6.3,6.3,0,0,0-6.278,6.278v2.323a6.3,6.3,0,0,1-6.278,6.278h-8.1A6.3,6.3,0,0,0,1.5,55.614V67.982a6.3,6.3,0,0,0,6.278,6.278H22.155" transform="translate(14.5 6.91)"/>
    </g>
    <g class="cls-15" transform="matrix(1, 0, 0, 1, -14.5, -14.5)">
      <path id="Path_291-2" data-name="Path 291" class="cls-5" d="M9.5,322.5H58.533a4.408,4.408,0,0,1,4.395,4.395h0a4.408,4.408,0,0,1-4.395,4.395H52.38a10.932,10.932,0,0,0-10.924,10.924h0" transform="translate(11.52 -104.97)"/>
    </g>
    <g class="cls-14" transform="matrix(1, 0, 0, 1, -14.5, -14.5)">
      <path id="Path_278-2" data-name="Path 278" class="cls-7" d="M200.064,21.8H160.511A2.519,2.519,0,0,0,158,24.311V48.8a2.519,2.519,0,0,0,2.511,2.511h15.507l4.206,8.79,4.395-8.79h15.445a2.519,2.519,0,0,0,2.511-2.511V24.311A2.519,2.519,0,0,0,200.064,21.8Z" transform="translate(-43.75 6.94)"/>
    </g>
    <g class="cls-13" transform="matrix(1, 0, 0, 1, -14.5, -14.5)">
      <path id="Path_279-2" data-name="Path 279" class="cls-7" d="M336.235,105.2H289.651a2.947,2.947,0,0,0-2.951,2.951v28.88a2.947,2.947,0,0,0,2.951,2.951h18.333v10.359l10.234-10.359H336.3a2.947,2.947,0,0,0,2.951-2.951v-28.88A3.043,3.043,0,0,0,336.235,105.2Z" transform="translate(-91.64 -24.09)"/>
    </g>
    <g class="cls-12" transform="matrix(1, 0, 0, 1, -14.5, -14.5)">
      <path id="Path_280-2" data-name="Path 280" class="cls-7" d="M68.2,208.3H28.711a2.519,2.519,0,0,0-2.511,2.511V235.3a2.519,2.519,0,0,0,2.511,2.511H44.219l8.664,8.79v-8.79H68.2a2.519,2.519,0,0,0,2.511-2.511V210.811A2.519,2.519,0,0,0,68.2,208.3Z" transform="translate(5.31 -62.47)"/>
    </g>
    <g class="cls-11" transform="matrix(1, 0, 0, 1, -14.5, -14.5)">
      <path id="Path_281-2" data-name="Path 281" class="cls-7" d="M80.608,92.2a23.1,23.1,0,1,0-27.185,22.727l4.395,12.745,3.955-12.808A23.053,23.053,0,0,0,80.608,92.2Z" transform="translate(2.26 -10.66)"/>
    </g>
    <g class="cls-10" transform="matrix(1, 0, 0, 1, -14.5, -14.5)">
      <path id="Path_282-2" data-name="Path 282" class="cls-7" d="M293.964,26.982a12.682,12.682,0,1,0-14.88,12.494l2.449,6.969,2.2-7.032A12.677,12.677,0,0,0,293.964,26.982Z" transform="translate(-84.91 9.74)"/>
    </g>
    <g class="cls-9" transform="matrix(1, 0, 0, 1, -14.5, -14.5)">
      <path id="Path_283-2" data-name="Path 283" class="cls-7" d="M304.815,211.008a12.808,12.808,0,1,0-15.068,12.619l2.449,7.032,2.2-7.094A12.856,12.856,0,0,0,304.815,211.008Z" transform="translate(-88.85 -58.71)"/>
    </g>
    <g class="cls-8" transform="matrix(1, 0, 0, 1, -14.5, -14.5)">
      <path id="Path_290-2" data-name="Path 290" class="cls-7" d="M227.983,160.7V271.448A10.5,10.5,0,0,1,217.5,281.933H19.985A10.5,10.5,0,0,1,9.5,271.448V218.02a10.5,10.5,0,0,1,10.485-10.485h0" transform="translate(11.52 -44.75)"/>
    </g>
  </g>
</svg>
