<svg xmlns="http://www.w3.org/2000/svg" viewBox="0 0 188 64.386">
  <g id="customer_page_alexander_mann_black" data-name="customer_page_alexander mann_black" transform="translate(0 0.24)">
    <path id="Path_155" data-name="Path 155" d="M621.63,33.694a28.83,28.83,0,0,1-.426,3.675c-.2.919-.269,1.86-.493,2.779a32.146,32.146,0,0,1-1.568,4.773,33.769,33.769,0,0,1-3.608,6.61,29.354,29.354,0,0,1-3.473,4.145,35.726,35.726,0,0,1-3.563,3.07,31.156,31.156,0,0,1-9.1,4.728,1.07,1.07,0,0,1-.538.022c.65-.336,1.255-.627,1.86-.964a31.088,31.088,0,0,0,14.139-15.484,30.345,30.345,0,0,0-1.524-27.741,29.115,29.115,0,0,0-10.4-10.666,29.45,29.45,0,0,0-9.77-3.832,29.972,29.972,0,0,0-8-.56A31.51,31.51,0,0,0,562.9,15.566c-1.21,1.412-2.443,2.846-3.652,4.257-.067.09-.09.314-.269.2-.134-.09-.022-.224.022-.359a35.762,35.762,0,0,1,2.286-4.414A32.111,32.111,0,0,1,572.961,4,32.768,32.768,0,0,1,585.845-.074a11.438,11.438,0,0,1,1.949-.157h4.011c.112.179.291.112.448.134a32.712,32.712,0,0,1,14.139,4.818,32.01,32.01,0,0,1,8.515,7.731,32.723,32.723,0,0,1,6.767,18.643C621.63,31.991,621.63,32.843,621.63,33.694Z" transform="translate(-433.675 0)"/>
    <path id="Path_156" data-name="Path 156" d="M625.452,86.177a13.07,13.07,0,0,0-2.084-.359,27.833,27.833,0,0,1-9.21-3.384.694.694,0,0,1-.359-.4c1.008.336,2.084.717,3.159,1.053A33.469,33.469,0,0,0,629.844,84.7a24.278,24.278,0,0,0,14.924-6.386,31.856,31.856,0,0,0,6.633-8.784,28.679,28.679,0,0,0,3.182-9.344,23.544,23.544,0,0,0,.067-6.521A26.39,26.39,0,0,0,647.972,39.5a36.781,36.781,0,0,0-5.938-5.423,24.166,24.166,0,0,0-15.372-4.571,37.942,37.942,0,0,0-9.5,1.434c-.179.045-.381.09-.672.157a16.076,16.076,0,0,1,2.667-1.165,29.9,29.9,0,0,1,13.826-1.546,29.221,29.221,0,0,1,14.946,6.677,30.465,30.465,0,0,1,7.058,8.089,25.9,25.9,0,0,1,3.384,10.33,28.58,28.58,0,0,1-.314,8.179,28.613,28.613,0,0,1-3.966,10.666,30.316,30.316,0,0,1-3.585,4.526,31.836,31.836,0,0,1-2.667,2.554,30.87,30.87,0,0,1-5.714,3.72,28.267,28.267,0,0,1-9.971,2.913.19.19,0,0,0-.112.067C629.821,86.177,627.648,86.177,625.452,86.177Z" transform="translate(-476.262 -22.031)"/>
    <path id="Path_157" data-name="Path 157" d="M0,126.7c.067,0,.112-.067.134-.112.583-1.748,1.972-2.375,3.63-2.6a27.9,27.9,0,0,1,3.07-.134c.314,0,.448-.112.426-.426a2.988,2.988,0,0,1,0-.448,2.363,2.363,0,0,0-2.622-2.51,6,6,0,0,0-2.846.762c-.291.157-.448.157-.605-.157-.583-1.188-.717-.919.493-1.5a7.514,7.514,0,0,1,3.563-.695,3.73,3.73,0,0,1,3.921,4.056c.022,2.174.022,4.369.045,6.543a9.412,9.412,0,0,0,.134,1.367c.045.246-.022.336-.269.314H8.739c-.986,0-1.008,0-1.255-.919-.112-.448-.269-.269-.471-.09A4.791,4.791,0,0,1,2.442,131.2,3.24,3.24,0,0,1,.2,129.075c-.045-.157-.045-.336-.2-.426Q0,127.674,0,126.7Zm7.26.157v-.695c0-.9,0-.919-.919-.874a9.645,9.645,0,0,0-3.092.336,2.067,2.067,0,0,0-1.3,2.442,2.044,2.044,0,0,0,1.972,1.725,3.936,3.936,0,0,0,2.42-.762,1.61,1.61,0,0,0,.919-1.748A2.684,2.684,0,0,1,7.26,126.856Z" transform="translate(0 -92.423)"/>
    <path id="Path_158" data-name="Path 158" d="M556.3,102.385a5.141,5.141,0,0,1,.919,1.3,33.2,33.2,0,0,0,7.058,8.448,18.473,18.473,0,0,0,2.913,1.972,35.91,35.91,0,0,0,5.6,2.51,17.245,17.245,0,0,0,2.711.851,28.852,28.852,0,0,0,9.3.65,20.723,20.723,0,0,0,4.056-.851,19.737,19.737,0,0,0,7.551-4.526,29.922,29.922,0,0,0,8.873-17.276,20.648,20.648,0,0,0-1.7-11.7,31.093,31.093,0,0,0-3.54-6.005c-.112-.157-.2-.336-.314-.493-.09-.134-.09-.246.067-.314a.153.153,0,0,1,.224.157c0,.314.134.291.381.224a.87.87,0,0,1,.717.224,9.546,9.546,0,0,1,1.636,1.658,21.835,21.835,0,0,1,3.384,5.042,22.063,22.063,0,0,1,2.151,7.417,28.177,28.177,0,0,1-2.487,14.341,24.316,24.316,0,0,1-7.663,9.68,26.293,26.293,0,0,1-13.176,5.355,25.851,25.851,0,0,1-10.554-.919,29.03,29.03,0,0,1-10.823-6.117,23.9,23.9,0,0,1-5.96-7.8,19.683,19.683,0,0,1-1.3-3.473A2.835,2.835,0,0,0,556.3,102.385Z" transform="translate(-431.646 -59.884)"/>
    <path id="Path_159" data-name="Path 159" d="M439.5,125.17c0-1.837.022-3.652,0-5.49,0-.471.157-.538.56-.538,1.031.022,1.053,0,1.188,1.031.067.448.224.381.493.179a6.369,6.369,0,0,1,3.07-1.434,3.206,3.206,0,0,1,3.563,1.613c.157.291.291.269.515.067a7.26,7.26,0,0,1,3.272-1.681,3.464,3.464,0,0,1,4.347,3.473c.067,1.949.022,3.921.045,5.871V130.7c0,.291-.067.426-.4.426-1.479.022-1.479.045-1.479-1.456-.022-2.241.09-4.5-.045-6.745-.134-2.084-1.344-2.846-3.316-2.129a8.182,8.182,0,0,0-2.151,1.322.55.55,0,0,0-.179.471c0,2.667,0,5.355.022,8.022,0,.381-.09.538-.493.493a5.282,5.282,0,0,0-1.031,0c-.314.022-.381-.112-.381-.4.022-2.353,0-4.706.022-7.036a6.7,6.7,0,0,0-.157-1.5,1.809,1.809,0,0,0-2.084-1.613,5.537,5.537,0,0,0-3.339,1.658c-.157.134-.09.336-.09.515,0,2.6-.022,5.176,0,7.775,0,.493-.134.627-.627.627-1.3-.022-1.3,0-1.3-1.3-.022-1.546-.022-3.115-.022-4.661Z" transform="translate(-341.018 -92.394)"/>
    <path id="Path_160" data-name="Path 160" d="M285.32,102.513v8.179c0,.291-.045.493-.359.605a8.415,8.415,0,0,1-6.431.022,4.978,4.978,0,0,1-3.025-3.608,6.539,6.539,0,0,1,1.793-6.745,6.17,6.17,0,0,1,5.6-1.434c.493.09.583-.045.56-.493-.022-1.591,0-3.2-.022-4.8,0-.359.09-.515.471-.471a4.306,4.306,0,0,0,.538,0c.874,0,.874,0,.874.9v7.843Zm-1.86,3.159v-3.921c0-.246,0-.448-.314-.515a4.53,4.53,0,0,0-4.661,1.076,4.776,4.776,0,0,0-1.255,3.7,4.25,4.25,0,0,0,1.344,3.249,4.832,4.832,0,0,0,4.414.9.537.537,0,0,0,.471-.65C283.438,108.227,283.46,106.95,283.46,105.673Z" transform="translate(-213.571 -72.942)"/>
    <path id="Path_161" data-name="Path 161" d="M180.022,126.244a34.316,34.316,0,0,0,.179,4.549c.022.246-.045.336-.269.314H179.6c-.964,0-.964.022-1.232-.9-.112-.4-.269-.291-.493-.112a4.983,4.983,0,0,1-3.227,1.232,3.587,3.587,0,0,1-3.764-4.235,3.486,3.486,0,0,1,2.756-3,14.2,14.2,0,0,1,3.9-.314c.493,0,.65-.157.583-.627-.045-.269,0-.56-.067-.829a2.162,2.162,0,0,0-2.061-1.9,5.3,5.3,0,0,0-3.294.717c-.359.2-.515.157-.695-.224-.493-.986-.515-.986.515-1.434a7.461,7.461,0,0,1,4.3-.605A3.545,3.545,0,0,1,180,122.547c.022.739,0,1.5,0,2.241C180.022,125.3,180.022,125.774,180.022,126.244Zm-1.9.515v-1.232c0-.179-.022-.336-.269-.314a14.85,14.85,0,0,0-3.451.269,2.1,2.1,0,0,0-1.591,2.465,2.064,2.064,0,0,0,2.2,1.815,3.444,3.444,0,0,0,1.5-.359c1.053-.515,1.9-1.143,1.613-2.532Z" transform="translate(-132.563 -92.349)"/>
    <path id="Path_162" data-name="Path 162" d="M533.689,126.022a46.78,46.78,0,0,0,.157,4.907c.045.269-.022.4-.336.381h-.291c-.941,0-.964,0-1.21-.852-.134-.426-.269-.336-.515-.112a4.729,4.729,0,0,1-4.571,1.008,3.338,3.338,0,0,1-2.4-3.115,3.449,3.449,0,0,1,1.793-3.518,7.157,7.157,0,0,1,3.115-.672c.627-.022,1.277-.045,1.9-.045.314,0,.448-.134.426-.448s-.022-.65-.067-.964a2.147,2.147,0,0,0-1.927-1.9,5.23,5.23,0,0,0-3.384.695c-.381.224-.538.157-.739-.224-.471-.941-.515-.964.493-1.389a7.03,7.03,0,0,1,5.176-.4,3.29,3.29,0,0,1,2.286,3A35.281,35.281,0,0,1,533.689,126.022Zm-1.9.964v-.291c-.022-.4.179-.919-.067-1.188-.269-.291-.807-.067-1.21-.067a7.251,7.251,0,0,0-2.756.359,2.041,2.041,0,0,0-1.3,2.084,2.01,2.01,0,0,0,1.636,1.994,3.674,3.674,0,0,0,2.846-.717,1.549,1.549,0,0,0,.874-1.681A1.222,1.222,0,0,1,531.784,126.985Z" transform="translate(-406.974 -92.552)"/>
    <path id="Path_163" data-name="Path 163" d="M80.353,125.673c-1.12,0-2.241.022-3.384,0-.426,0-.515.157-.471.538a3.961,3.961,0,0,0,5.131,3.63,6.282,6.282,0,0,0,1.456-.538c.2-.112.314-.067.4.134.583,1.322.695,1.076-.538,1.591a6.408,6.408,0,0,1-5.4-.022,5.3,5.3,0,0,1-2.868-4.078,7.836,7.836,0,0,1,.851-5.669,4.393,4.393,0,0,1,4.482-2.174,4.3,4.3,0,0,1,3.764,3.249,8.769,8.769,0,0,1,.426,2.846c0,.4-.09.538-.515.515C82.593,125.651,81.473,125.673,80.353,125.673Zm-1.008-1.479c.807,0,1.636-.022,2.442,0,.381.022.471-.112.426-.493a5.286,5.286,0,0,0-.426-1.546,2.546,2.546,0,0,0-3-1.5A3.4,3.4,0,0,0,76.5,123.9c-.022.269.157.269.359.269C77.686,124.194,78.515,124.194,79.344,124.194Z" transform="translate(-57.81 -92.561)"/>
    <path id="Path_164" data-name="Path 164" d="M335.933,125.688c-1.143,0-2.286.022-3.428,0-.381,0-.471.112-.426.493a4.017,4.017,0,0,0,5.6,3.563,4.7,4.7,0,0,1,.515-.179c.269-.09.583-.426.784-.224a3.46,3.46,0,0,1,.538,1.076c.067.134-.067.2-.157.269-2.353,1.748-6.565,1.053-8.156-1.367a7.668,7.668,0,0,1-.964-5.557,5.593,5.593,0,0,1,2.129-3.832,4.5,4.5,0,0,1,6.655,1.569,9,9,0,0,1,.784,3.9c0,.314-.179.336-.4.336-1.165-.067-2.33-.045-3.473-.045Zm-1.031-1.479c.807,0,1.591-.022,2.4,0,.448.022.538-.157.471-.538a4.841,4.841,0,0,0-.471-1.591,2.483,2.483,0,0,0-2.4-1.479,3.256,3.256,0,0,0-2.846,3.361c.045.269.2.246.381.246Z" transform="translate(-256.14 -92.576)"/>
    <path id="Path_165" data-name="Path 165" d="M631.621,125.148v-5.49c0-.359.09-.493.471-.471,1.12,0,1.12-.022,1.3,1.076.045.381.157.4.448.179a6.627,6.627,0,0,1,3.092-1.479,3.4,3.4,0,0,1,4.123,2.734,5.551,5.551,0,0,1,.134,1.367c0,2.554,0,5.087.022,7.641,0,.4-.112.515-.515.515-1.389,0-1.389,0-1.389-1.367v-6.319a5.164,5.164,0,0,0-.224-1.546,1.779,1.779,0,0,0-1.77-1.344,5.262,5.262,0,0,0-3.63,1.681c-.157.134-.112.336-.112.515v7.887c0,.381-.067.56-.493.493-.471-.067-1.053.2-1.367-.112-.269-.291-.067-.874-.09-1.322Z" transform="translate(-490.05 -92.44)"/>
    <path id="Path_166" data-name="Path 166" d="M579.038,120.593a1.3,1.3,0,0,0,.538-.336,6.672,6.672,0,0,1,2.958-1.322,3.438,3.438,0,0,1,4.123,3.115,9.331,9.331,0,0,1,.09,1.367c0,2.42,0,4.818.022,7.238,0,.448-.112.583-.56.538-.426-.045-.986.179-1.255-.112-.269-.269-.09-.807-.09-1.232v-6.162a5.3,5.3,0,0,0-.134-1.322,1.992,1.992,0,0,0-2.487-1.725,6.014,6.014,0,0,0-3,1.636c-.179.157-.134.359-.134.538v7.574c0,.784,0,.784-.739.784-1.143,0-1.165,0-1.165-1.143V119.7c0-.381.067-.538.515-.538,1.053.022,1.053,0,1.255,1.031A1.883,1.883,0,0,0,579.038,120.593Z" transform="translate(-447.863 -92.433)"/>
    <path id="Path_167" data-name="Path 167" d="M223.22,125.183c0-1.815.022-3.652,0-5.467,0-.4.112-.538.515-.515,1.053.022,1.076,0,1.232,1.031.067.4.134.471.471.179a7.4,7.4,0,0,1,2.286-1.277c2.667-.874,4.907.605,5,3.406.09,2.442.022,4.885.022,7.327,0,1.3,0,1.277-1.277,1.322-.471,0-.6-.112-.6-.605.022-2.33,0-4.661.022-6.991a4.561,4.561,0,0,0-.314-1.815,1.716,1.716,0,0,0-1.658-1.165,5.263,5.263,0,0,0-3.72,1.7c-.157.134-.09.336-.09.515v7.82c0,.381-.09.583-.515.538-.448-.067-1.008.2-1.3-.112-.269-.291-.09-.851-.09-1.277C223.22,128.253,223.22,126.729,223.22,125.183Z" transform="translate(-173.139 -92.43)"/>
    <path id="Path_168" data-name="Path 168" d="M131.179,132.149h-1.837c-.2,0-.291-.2-.381-.336-.9-1.277-1.793-2.577-2.689-3.854-.336-.471-.336-.471-.65-.022-.9,1.3-1.815,2.577-2.711,3.9a.65.65,0,0,1-.583.336c-.4-.022-.807,0-1.232,0-.112,0-.291.067-.359-.067s.067-.246.134-.336c.807-1.12,1.591-2.218,2.4-3.339.448-.627.874-1.255,1.344-1.86a.618.618,0,0,0,0-.829c-1.188-1.681-2.375-3.384-3.54-5.087-.09-.134-.269-.246-.179-.4.067-.134.269-.022.4-.067a2.09,2.09,0,0,1,2.487,1.3c.538.986,1.277,1.882,1.9,2.846.224.359.359.426.627.022.829-1.21,1.681-2.4,2.51-3.608a1.022,1.022,0,0,1,1.076-.56,6.284,6.284,0,0,0,.919,0c.112,0,.291-.067.336.09.022.067-.09.2-.134.291-.807,1.143-1.636,2.286-2.442,3.428-.426.605-.829,1.21-1.277,1.793a.516.516,0,0,0,0,.695c1.21,1.725,2.42,3.473,3.63,5.221A.585.585,0,0,1,131.179,132.149Z" transform="translate(-93.668 -93.391)"/>
    <path id="Path_169" data-name="Path 169" d="M53,101.833V94.3c0-.4.067-.605.538-.56.426.045.986-.179,1.277.09s.09.829.09,1.277v13.4c0,.224,0,.448.022.695.067.762.493,1.1,1.232.874.381-.112.448.022.515.314l.134.471c.179.65.179.65-.448.807a3.479,3.479,0,0,1-.471.09c-1.949.224-2.846-.56-2.868-2.532C53,106.74,53,104.3,53,101.833Z" transform="translate(-41.124 -72.889)"/>
    <path id="Path_170" data-name="Path 170" d="M382.615,125.149v-5.49c0-.359.09-.515.471-.471h.09c1.031,0,1.031,0,1.188,1.031.022.112-.022.246.112.291.112.022.2-.09.269-.179a4.5,4.5,0,0,1,2.42-1.389,3.473,3.473,0,0,1,1.591.112c.269.09.336.224.2.471a.937.937,0,0,0-.09.224,3.547,3.547,0,0,1-.426.986c-.269.314-.605-.067-.941-.067a3.351,3.351,0,0,0-2.151.919,1.95,1.95,0,0,0-.874,1.793c.067,2.42.022,4.862.022,7.282,0,.4-.112.56-.515.515-.448-.067-1.053.2-1.3-.112-.224-.269-.067-.852-.067-1.277Q382.615,127.468,382.615,125.149Z" transform="translate(-296.839 -92.441)"/>
    <path id="Path_171" data-name="Path 171" d="M492.8,215.457c0-.807.022-1.591,0-2.4,0-.314.09-.448.426-.4.359.045.829-.224.964.426.045.179.224.022.314-.045a3.539,3.539,0,0,1,1.21-.493,1.715,1.715,0,0,1,2.174,1.546c.134,1.322.022,2.644.045,3.966,0,.134-.045.269-.2.269-.359,0-.717.022-1.076,0-.246-.022-.179-.224-.179-.381v-2.823c-.045-.471.022-1.008-.515-1.21a1.642,1.642,0,0,0-1.546.381c-.2.134-.157.336-.157.538,0,1.031-.022,2.061,0,3.07,0,.336-.09.448-.448.471-1.008.022-1.008.022-1.008-1.008Z" transform="translate(-382.375 -165.069)"/>
    <path id="Path_172" data-name="Path 172" d="M360.5,218.316a2.737,2.737,0,0,1-2.8-2.958,2.837,2.837,0,1,1,2.8,2.958Zm1.344-2.958a3.365,3.365,0,0,0-.112-.829,1.258,1.258,0,0,0-1.12-.941,1.2,1.2,0,0,0-1.255.829,2.49,2.49,0,0,0,.045,2.039,1.189,1.189,0,0,0,1.569.6C361.732,216.747,361.822,216.052,361.844,215.358Z" transform="translate(-277.547 -164.992)"/>
    <path id="Path_173" data-name="Path 173" d="M463,215.379a2.768,2.768,0,0,1,2.8-2.98,2.822,2.822,0,0,1,2.846,2.958,2.767,2.767,0,0,1-2.823,2.958A2.736,2.736,0,0,1,463,215.379Zm4.145-.022a2.591,2.591,0,0,0-.157-.986,1.151,1.151,0,0,0-1.076-.784,1.1,1.1,0,0,0-1.143.672,2.367,2.367,0,0,0,.045,2.286,1.1,1.1,0,0,0,1.143.583,1.152,1.152,0,0,0,1.053-.807A2.642,2.642,0,0,0,467.145,215.357Z" transform="translate(-359.253 -164.991)"/>
    <path id="Path_174" data-name="Path 174" d="M407.6,215.89c0,.807-.022,1.591,0,2.4,0,.246-.045.381-.314.359-.381-.045-.852.2-1.053-.4-.067-.179-.269,0-.359.067a2.579,2.579,0,0,1-1.344.426,1.763,1.763,0,0,1-1.927-1.725c-.045-1.232-.022-2.487-.022-3.72,0-.224.09-.291.314-.314,1.1-.09,1.1-.09,1.1.986,0,.784-.022,1.569,0,2.353.022,1.053.739,1.456,1.658.986a.673.673,0,0,0,.426-.695c-.022-1.053,0-2.129-.022-3.182,0-.359.112-.471.471-.471,1.008.022,1.008,0,1.008,1.008v1.9A.173.173,0,0,0,407.6,215.89Z" transform="translate(-312.367 -165.412)"/>
    <path id="Path_175" data-name="Path 175" d="M521.7,218.331a4.826,4.826,0,0,1-1.77-.381c-.269-.112-.358-.269-.2-.515a3.167,3.167,0,0,0,.179-.4c.09-.291.224-.291.471-.179a2.368,2.368,0,0,0,1.658.246c.247-.067.471-.179.515-.448.045-.291-.157-.448-.4-.56-.381-.179-.784-.314-1.165-.493a1.6,1.6,0,0,1,.134-3.047,4.012,4.012,0,0,1,2.353.045c.157.045.269.112.246.314-.045.291.112.627-.067.9-.067.112-.2,0-.314-.022a3.277,3.277,0,0,0-1.389-.2c-.247.022-.515.09-.56.381-.045.314.157.471.426.583.336.134.672.269.986.4a1.649,1.649,0,0,1,1.188,1.815,1.712,1.712,0,0,1-1.524,1.5Z" transform="translate(-403.213 -164.986)"/>
    <path id="Path_176" data-name="Path 176" d="M336.954,218.454a4.394,4.394,0,0,1-1.7-.381c-.246-.112-.359-.246-.2-.515a2.72,2.72,0,0,0,.2-.448c.09-.224.2-.269.4-.134a2.982,2.982,0,0,0,1.076.314,1.91,1.91,0,0,0,.717-.067.5.5,0,0,0,.4-.426.444.444,0,0,0-.314-.493c-.381-.179-.784-.336-1.165-.493a1.582,1.582,0,0,1-1.1-1.927,1.61,1.61,0,0,1,1.277-1.21,3.942,3.942,0,0,1,2.218.09.3.3,0,0,1,.246.359,3.615,3.615,0,0,0,0,.493c.045.359-.045.471-.426.336a2.835,2.835,0,0,0-1.3-.2c-.269.022-.538.067-.627.381-.09.336.179.471.4.583.291.134.605.246.9.381a1.749,1.749,0,0,1,1.3,1.837c-.09.829-.65,1.344-1.658,1.524A3.148,3.148,0,0,0,336.954,218.454Z" transform="translate(-259.917 -165.108)"/>
    <path id="Path_177" data-name="Path 177" d="M429.656,210.21c0-.448-.022-.874,0-1.322.022-.381-.09-.538-.493-.515-.179.022-.448.112-.515-.112a1.3,1.3,0,0,1,.022-.919c.09-.2.359-.112.538-.09.336.022.471-.09.448-.448-.022-.291-.134-.695.067-.852a3.848,3.848,0,0,1,1.143-.4c.224-.067.224.112.224.269,0,.336.022.65,0,.986-.022.359.134.471.471.426a2.987,2.987,0,0,1,.448,0c.829.022.807.022.583.784-.09.336-.314.359-.583.359-.986,0-.874-.134-.874.874v1.7c0,.784.314,1.031,1.031.739.65-.269.493.336.65.56.224.291-.022.426-.269.515a3.409,3.409,0,0,1-1.636.2,1.338,1.338,0,0,1-1.232-1.389C429.656,211.107,429.656,210.659,429.656,210.21Z" transform="translate(-332.542 -159.666)"/>
    <path id="Path_178" data-name="Path 178" d="M387.881,204.446c0-1.12.022-2.241,0-3.384,0-.359.067-.493.448-.471,1.143.045.964-.179.986.986v5.579c0,.426.045.695.6.717.448.022.269.538.4.829.112.246-.112.291-.291.336a2.758,2.758,0,0,1-1.21.022,1.107,1.107,0,0,1-.919-1.21C387.858,206.731,387.881,205.589,387.881,204.446Z" transform="translate(-300.961 -155.828)"/>
    <path id="Path_179" data-name="Path 179" d="M453,215.993v2.442c0,.291-.112.4-.4.4-1.277-.045-1.053.179-1.076-1.031-.022-1.367,0-2.734-.022-4.1,0-.4.09-.538.515-.515.964.022.964,0,.964.964C453,214.76,453,215.388,453,215.993Z" transform="translate(-350.33 -165.605)"/>
    <path id="Path_180" data-name="Path 180" d="M451,202.371a.841.841,0,0,1,.9-.874.863.863,0,0,1,.022,1.725A.843.843,0,0,1,451,202.371Z" transform="translate(-349.942 -156.532)"/>
  </g>
</svg>
