<svg xmlns="http://www.w3.org/2000/svg" viewBox="0 0 160 43.555">
  <defs>
    <style>
      .cls-1 {
        fill: #fff;
      }

      .cls-2 {
        fill: #87c930;
      }
    </style>
  </defs>
  <g id="customer_page_247ai_logo_neon" data-name="customer_page_247ai logo_neon" transform="translate(0 0.008)">
    <path id="Path_493" data-name="Path 493" class="cls-1" d="M406.1,6.212V32.422h5.289v7.535h-5.264V48.4h-8.408V39.994h-18.3c-.012-.274-.037-.474-.037-.674,0-2.121-.012-4.241.012-6.362a2.4,2.4,0,0,1,.237-1.01Q385.8,19.373,392,6.811a.927.927,0,0,1,.986-.611c4.117.025,8.233.012,12.35.012Zm-8.42,26.209a2.772,2.772,0,0,0,.012-.437L397.466,16.9a.875.875,0,0,0-.012-.312c-.037-.1-.112-.237-.2-.249a.409.409,0,0,0-.287.15,1.987,1.987,0,0,0-.175.324q-3.649,7.466-7.285,14.932c-.1.2-.175.4-.287.661C392.077,32.422,394.847,32.422,397.678,32.422Z" transform="translate(-332.049 -5.434)"/>
    <path id="Path_494" data-name="Path 494" class="cls-1" d="M124.569,13.653c-2.919-.225-5.788-.437-8.72-.661a15.034,15.034,0,0,1,.811-4.429,11.525,11.525,0,0,1,6.524-7.073,17.309,17.309,0,0,1,13.3-.324c4.478,1.722,6.774,5.165,7.273,9.855a16.279,16.279,0,0,1-.3,5.327,14.01,14.01,0,0,1-4.7,7.4c-4.079,3.643-8.2,7.235-12.3,10.84-.15.137-.3.274-.574.524h18.263v7.847h-28.8c-.012-.212-.025-.424-.025-.649,0-2.744.012-5.489-.012-8.233a1.189,1.189,0,0,1,.437-.961c5.152-4.715,10.3-9.418,15.444-14.159.936-.861,1.8-1.784,2.645-2.732A4.916,4.916,0,0,0,135,11.981a4.5,4.5,0,0,0-3.83-3.605,5.229,5.229,0,0,0-6.512,4.678A3.008,3.008,0,0,1,124.569,13.653Z" transform="translate(-100.917 0)"/>
    <path id="Path_495" data-name="Path 495" class="cls-2" d="M781.3,48.765c5.651-11.339,11.265-22.567,16.928-33.919-.387-.037-.661-.087-.936-.087H779.9c-.886,0-.886,0-.886-.873,0-2.158.012-4.329-.013-6.487,0-.487.1-.7.649-.7q13.772.019,27.557,0c.536,0,.661.175.661.686-.025,2.22,0,4.453-.025,6.674a2.15,2.15,0,0,1-.212.886q-7.99,16.616-15.968,33.22a.913.913,0,0,1-.973.636c-2.907-.025-5.813-.012-8.732-.012C781.769,48.789,781.582,48.777,781.3,48.765Z" transform="translate(-681.822 -5.871)"/>
    <path id="Path_496" data-name="Path 496" class="cls-1" d="M1045.558,177.306a3.336,3.336,0,0,0-1.185-2.757,4.932,4.932,0,0,0-5.452-.549,20.509,20.509,0,0,0-2.906,1.884c-1.023-1.073-2.158-2.245-3.306-3.455a11.643,11.643,0,0,1,4.391-2.645,15.325,15.325,0,0,1,8.109-.487c3.368.661,5.476,2.981,5.988,6.624a32.784,32.784,0,0,1,.324,4.279c.05,3.393.012,6.774.012,10.167,0,.162-.025.324-.037.536h-5.913v-2.595c-.137.075-.2.1-.224.137-1.921,2.657-4.666,3.194-7.684,2.944a7.918,7.918,0,0,1-3.293-1.048c-4.017-2.258-3.979-8.57-.312-10.9a12.575,12.575,0,0,1,5.452-1.784c1.771-.2,3.568-.225,5.339-.324C1045.084,177.331,1045.309,177.318,1045.558,177.306Zm-.013,4.341a16.091,16.091,0,0,0-5.676.4,5.251,5.251,0,0,0-1.509.836,2.164,2.164,0,0,0,.4,3.63,5.106,5.106,0,0,0,5.352-.586C1045.633,184.891,1045.7,183.281,1045.546,181.647Z" transform="translate(-902.686 -147.898)"/>
    <path id="Path_497" data-name="Path 497" class="cls-1" d="M9.418,6.8V9.557h-5.3V46.045H9.381v2.819H0V6.8Z" transform="translate(0 -5.959)"/>
    <path id="Path_498" data-name="Path 498" class="cls-1" d="M664.464,9.582H659.2V6.8h9.393V48.865H659.2V46.083h5.277C664.464,33.895,664.464,21.77,664.464,9.582Z" transform="translate(-576.967 -5.959)"/>
    <path id="Path_499" data-name="Path 499" class="cls-1" d="M1233.2,195.144h-6.4V173.8h6.4Z" transform="translate(-1073.761 -152.126)"/>
    <path id="Path_500" data-name="Path 500" class="cls-1" d="M1222.5,92.429a3.75,3.75,0,1,1,3.767,3.83A3.752,3.752,0,0,1,1222.5,92.429Z" transform="translate(-1069.997 -77.554)"/>
    <path id="Path_501" data-name="Path 501" class="cls-1" d="M954.481,306.413a2.769,2.769,0,0,1-2.782-2.882,2.8,2.8,0,1,1,5.6.037A2.754,2.754,0,0,1,954.481,306.413Z" transform="translate(-832.978 -263.196)"/>
  </g>
</svg>
