<svg xmlns="http://www.w3.org/2000/svg" viewBox="0 0 189 76.568">
  <defs>
    <style>
      .cls-1 {
        fill: #87c930;
      }

      .cls-2 {
        fill: #fff;
      }
    </style>
  </defs>
  <g id="customer_page_genpact_logo_neon" data-name="customer_page_genpact logo_neon" transform="translate(0 -0.024)">
    <path id="Path_395" data-name="Path 395" class="cls-1" d="M.5,17.3c.03-.551.506-.685.849-.923Q12.944,8.4,24.495.408a1.431,1.431,0,0,1,1.966.015Q37.855,8.444,49.279,16.4c1,.685,1.013,1.013-.015,1.683-3.321,2.189-6.568,4.5-9.845,6.747-1.549,1.072-1.549,1.072-.045,2.1,3.351,2.294,6.717,4.587,10.068,6.9.357.238.819.372.953.864q-2.9,1.966-5.824,3.917c-2.279,1.5-4.409,3.232-6.822,4.558Q31.607,38.9,25.478,34.635c.372-.3.73-.64,1.117-.909,3.366-2.353,6.732-4.707,10.128-7.03.819-.551.879-.879.015-1.475-3.351-2.294-6.7-4.587-9.964-7.015a1.96,1.96,0,0,0-2.741.03c-3.634,2.577-7.343,5.064-11.022,7.6-1.162-.8-2.338-1.609-3.515-2.4C6.473,21.409,3.628,19.16.5,17.3Z" transform="translate(-0.426 0)"/>
    <path id="Path_396" data-name="Path 396" class="cls-2" d="M.074,116c3.113,1.862,5.973,4.111,8.981,6.122,1.177.789,2.338,1.594,3.515,2.4,0,5.392.03,10.769-.015,16.16a1.927,1.927,0,0,0,.968,1.832c3.426,2.324,6.822,4.721,10.232,7.075a2.2,2.2,0,0,0,1.281.611c-.015,5.585-.03,11.156-.045,16.741a.979.979,0,0,0,.253.849c-.343.372-.551-.015-.774-.164Q12.608,159.379.715,151.15a1.422,1.422,0,0,1-.715-1.3q.045-16.8.03-33.586A1.679,1.679,0,0,1,.074,116Z" transform="translate(0 -98.702)"/>
    <path id="Path_397" data-name="Path 397" class="cls-1" d="M168.124,267.106a.937.937,0,0,1-.253-.849c.015-5.585.03-11.156.045-16.741h0c.134-.03.283,0,.372-.074,3.977-2.741,8.028-5.377,11.9-8.266,2.413-1.311,4.543-3.053,6.822-4.558,1.951-1.281,3.887-2.607,5.824-3.917.015,5.526.03,11.037.074,16.562a1.313,1.313,0,0,1-.7,1.162Q180.143,258.757,168.124,267.106Z" transform="translate(-142.863 -198.02)"/>
    <path id="Path_398" data-name="Path 398" class="cls-2" d="M462.6,187.52c-.4-.03-.626.283-.909.492a7.174,7.174,0,0,1-9.562-.73,10,10,0,0,1,0-13.792,7.206,7.206,0,0,1,9.562-.7c.238.179.492.357.73.536.655-.357-.149-1.43.715-1.5a26.532,26.532,0,0,1,3.441.015c.328.015.328.372.313.64-.119,5.57.432,11.171-.253,16.7-.447,3.6-2.77,5.958-6.345,6.866a8.9,8.9,0,0,1-9.1-3.247c-.536-.7-.551-1.147.268-1.534a2.856,2.856,0,0,0,.685-.4c1.117-.968,1.981-1.1,3.053.283s3.2,1.519,4.781.76A4.671,4.671,0,0,0,462.6,187.52Zm.372-7.119a5,5,0,0,0-4.751-5.213,5.08,5.08,0,0,0-4.751,5.243,5.022,5.022,0,0,0,4.707,5.124A4.956,4.956,0,0,0,462.977,180.4Z" transform="translate(-382.444 -145.765)"/>
    <path id="Path_399" data-name="Path 399" class="cls-2" d="M838.508,174c4.945-2.934,8.415-2.651,11.3.789a10.059,10.059,0,0,1,.045,12.3c-2.9,3.5-6.33,3.8-11.349.849,0,2.249.015,4.394,0,6.539s.283,1.936-1.877,1.936c-2.2.015-2.2,0-2.2-2.145,0-6.851.03-13.7-.03-20.554-.015-1.1.3-1.549,1.4-1.385a4.188,4.188,0,0,0,1.057,0C838.016,172.167,838.791,172.406,838.508,174Zm9.264,6.97a4.939,4.939,0,0,0-4.736-5.2,5.2,5.2,0,0,0-.045,10.352A4.944,4.944,0,0,0,847.772,180.97Z" transform="translate(-710.12 -146.35)"/>
    <path id="Path_400" data-name="Path 400" class="cls-2" d="M974.852,187.068c-.611.4-.834.536-1.043.685a7.309,7.309,0,0,1-10.694-1.787,10.058,10.058,0,0,1,1.043-12.675,7.2,7.2,0,0,1,9.458-.685c.268.194.477.536.983.536-.253-1.579.73-1.653,1.892-1.519a5.313,5.313,0,0,0,1.192,0c.938-.119,1.206.253,1.192,1.192-.045,4.96-.045,9.9,0,14.864,0,.909-.223,1.326-1.177,1.206a7.961,7.961,0,0,0-1.46,0C975.225,188.915,974.227,188.975,974.852,187.068Zm.074-6.881a5,5,0,0,0-4.8-5.124,5.1,5.1,0,0,0-4.662,5.168,4.751,4.751,0,1,0,9.458-.045Z" transform="translate(-818.165 -145.641)"/>
    <path id="Path_401" data-name="Path 401" class="cls-2" d="M588.312,181.073c-1.862,0-3.709.03-5.57-.015-1.132-.03-1.162.462-.789,1.3a4.879,4.879,0,0,0,7.1,1.951c1.072-.73,1.668-.626,2.338.328l.089.089c1.862,1.847,1.862,1.847-.4,3.158a9.109,9.109,0,0,1-10.411-.953,9.227,9.227,0,0,1-2.755-9.875,8.815,8.815,0,0,1,17.218,3.143c-.045.73-.357.879-.983.879C592.2,181.058,590.263,181.073,588.312,181.073Zm-2.055-3.441c1.192,0,2.383-.015,3.575,0,.745.015.849-.223.432-.834a4.8,4.8,0,0,0-7.894,0c-.432.64-.268.849.447.834Z" transform="translate(-491.454 -145.38)"/>
    <path id="Path_402" data-name="Path 402" class="cls-2" d="M711.644,173.5a5.441,5.441,0,0,0,.774-.506c2.309-2.234,4.99-2.487,7.864-1.43,2.8,1.028,3.977,3.381,4.17,6.107.223,3.4.1,6.807.119,10.217,0,.089.03.209-.015.268-.923,1.162-2.189.283-3.262.521-.655.149-.8-.3-.8-.879.015-2.875.06-5.749-.03-8.624-.089-3.187-2.145-4.841-5.049-4.215a5.041,5.041,0,0,0-3.619,5.124c-.045,2.472-.045,4.96.015,7.432.03.938-.283,1.192-1.206,1.192-2.889-.015-2.889.03-2.889-2.8,0-4.424.03-8.847-.015-13.271-.015-.923.253-1.311,1.192-1.192a4.188,4.188,0,0,0,1.057,0C711.227,171.324,712.284,171.4,711.644,173.5Z" transform="translate(-602.29 -145.477)"/>
    <path id="Path_403" data-name="Path 403" class="cls-2" d="M1098.163,189.464a9.105,9.105,0,1,1,5.3-16.458c1.251.923,1.251.953.089,2a6.81,6.81,0,0,0-.67.64,1.408,1.408,0,0,1-2.279.3,4.615,4.615,0,0,0-6.122.879,5.277,5.277,0,0,0-.149,6.926,4.936,4.936,0,0,0,6.122,1.192c.506-.268.908-1.132,1.564-.655a15.66,15.66,0,0,1,2.368,2.294c.268.3-.194.521-.4.715A9.086,9.086,0,0,1,1098.163,189.464Z" transform="translate(-926.76 -145.744)"/>
    <path id="Path_404" data-name="Path 404" class="cls-2" d="M1205.127,140.4c0-1.817-.045-3.634.015-5.436.03-.864-.238-1.147-1.117-1.132-1.772.03-1.772-.03-1.772-1.758a4.656,4.656,0,0,0,0-.789c-.208-1.221.343-1.623,1.475-1.415,1.221.223,1.489-.343,1.43-1.475-.089-1.758,0-3.53-.03-5.3-.015-.655.179-.909.894-.953,3.292-.179,3.292-.194,3.292,3.083,0,1.147.06,2.309-.015,3.455-.06.923.253,1.355,1.192,1.177,1.415-.268,1.8.4,1.609,1.683a2.414,2.414,0,0,0,0,.655c.224,1.311-.268,1.906-1.623,1.653-.968-.179-1.177.328-1.162,1.206.045,3.53-.015,7.075.045,10.6.015,1.057-.223,1.475-1.385,1.445-2.815-.06-2.815,0-2.815-2.875C1205.127,142.964,1205.127,141.683,1205.127,140.4Z" transform="translate(-1023.149 -103.876)"/>
    <path id="Path_405" data-name="Path 405" class="cls-2" d="M1053.5,395.76c-.432.313-.73.7-.983.67-1.757-.164-1.832.968-1.8,2.219,0,.357,0,.7-.015,1.057-.015.4-.283.506-.626.506-.372,0-.6-.149-.6-.536,0-1.281-.015-2.562.015-3.843,0-.387.313-.536.64-.506a22.953,22.953,0,0,0,4.632.03c1.37-.164,2.666.73,4.066-.06.73-.4,1.609.238,1.966,1.132a9,9,0,0,1,.238,3.277c0,.4-.283.492-.626.506-.462,0-.611-.238-.611-.67,0-.7.015-1.415-.03-2.115-.03-.521-.253-.983-.864-.968a.947.947,0,0,0-.953.938c-.074.7-.045,1.415-.06,2.115,0,.387-.089.685-.566.7-.536.015-.685-.268-.685-.73,0-.7,0-1.415-.015-2.115-.015-.491-.223-.864-.775-.909-.536-.045-.8.283-.953.745a7.5,7.5,0,0,0-.134,2.234c-.015.447-.089.775-.641.775-.581,0-.611-.387-.611-.8C1053.5,398.263,1053.5,397.131,1053.5,395.76Z" transform="translate(-893.164 -336.297)"/>
    <path id="Path_406" data-name="Path 406" class="cls-2" d="M874.2,458.239v-2.517c0-.417-.015-.819.581-.834.521,0,.7.283.685.76v.536c.015,1.4,1.057,2.041,2.4,1.5.4-.149.357-.447.372-.745.015-.447.015-.879,0-1.326-.015-.477.134-.76.67-.73.462.015.6.268.6.685v5.556c0,.417-.1.685-.581.67-.417-.015-.67-.164-.67-.626v-.655c-.015-1.46-1-2.085-2.368-1.549-.387.149-.4.432-.4.73-.015.492-.015.968-.015,1.46,0,.447-.223.626-.655.64-.462.015-.611-.223-.611-.655Z" transform="translate(-743.994 -387.113)"/>
    <path id="Path_407" data-name="Path 407" class="cls-2" d="M950.736,472.324c0,.6-.015,1.072,0,1.549.015.447-.209.64-.641.626-.357-.015-.6-.134-.6-.536v-5.7c0-.3.164-.611.447-.521.849.3,1.623-.223,2.443-.164a2.516,2.516,0,0,1,2.07,3.038,2.329,2.329,0,0,1-2.889,2C951.317,472.547,951.079,472.443,950.736,472.324Zm2.472-2.294c-.074-.715-.432-1.3-1.3-1.266s-1.221.626-1.192,1.43a1.173,1.173,0,0,0,1.221,1.281C952.807,471.475,953.164,470.924,953.209,470.03Z" transform="translate(-808.079 -397.906)"/>
    <path id="Path_408" data-name="Path 408" class="cls-2" d="M986.413,472.481v1.609c0,.417-.283.506-.626.506s-.626-.1-.626-.521c0-1.906-.015-3.813,0-5.7a.911.911,0,0,1,.179-.447c1.192.268,2.4-.67,3.56.015a2.475,2.475,0,0,1,1.221,2.472C990.018,472.3,988.633,473.107,986.413,472.481Zm2.458-2.309c-.06-.774-.432-1.34-1.3-1.311s-1.206.626-1.192,1.445a1.154,1.154,0,0,0,1.221,1.266C988.484,471.573,988.841,471.021,988.871,470.172Z" transform="translate(-838.424 -398.004)"/>
    <path id="Path_409" data-name="Path 409" class="cls-2" d="M1136.915,458.934v-2.517c0-.417.03-.8.611-.819s.641.343.626.789v.268a1.685,1.685,0,0,0,2.517,1.668c.4-.149.387-.432.387-.73.015-.492,0-.968.015-1.46.015-.4.253-.521.611-.506a.454.454,0,0,1,.492.492v5.7c0,.4-.253.521-.611.506a.473.473,0,0,1-.506-.492c-.015-.179,0-.357-.015-.536-.06-1.966-.238-2.085-2.249-1.787-.521.074-.67.313-.655.775s0,.879,0,1.326c0,.387-.06.685-.566.7-.551.015-.67-.283-.67-.745C1136.915,460.706,1136.915,459.813,1136.915,458.934Z" transform="translate(-967.567 -387.719)"/>
    <path id="Path_410" data-name="Path 410" class="cls-2" d="M1134.289,398.185c-.462.626.864,2.145-.73,2.249-3.262.209-4.23-.432-4.26-2.309a2.456,2.456,0,0,1,2.249-2.636C1134.289,395.474,1134.289,395.474,1134.289,398.185Zm-1.236-.119c-.045-.819-.417-1.37-1.281-1.355a1.163,1.163,0,0,0-1.192,1.3c-.015.8.343,1.4,1.206,1.415S1133.008,398.87,1133.052,398.065Z" transform="translate(-961.099 -336.561)"/>
    <path id="Path_411" data-name="Path 411" class="cls-2" d="M895.7,396.773c1.206-1.117,2.7-.492,4.051-.67.432-.06.626.238.626.655v1.579c0,2.741-.253,2.994-2.919,2.77a2.353,2.353,0,0,1-2.026-2.249c-.03-.521,0-1.043.015-1.564l-.015.015c.328-.074.387-.268.283-.551Zm3.47,1.892c-.03-.849-.4-1.46-1.206-1.5a1.244,1.244,0,0,0-1.34,1.34,1.259,1.259,0,0,0,1.221,1.445C898.7,399.99,899.091,399.439,899.166,398.665Z" transform="translate(-762.049 -337.071)"/>
    <path id="Path_412" data-name="Path 412" class="cls-2" d="M1021.824,470.575c.432,1.028,1.087,1.147,1.8.849.536-.223.909-.089,1.072.372.179.521-.328.64-.67.789a2.538,2.538,0,0,1-3.307-1.37,2.585,2.585,0,0,1,1.281-3.351,2.488,2.488,0,0,1,3.307,1.326c.447,1.013.253,1.355-.864,1.385C1023.611,470.59,1022.777,470.575,1021.824,470.575Zm2.1-1.162c-.894-.864-1.221-.834-1.862.119A5.224,5.224,0,0,0,1023.924,469.414Z" transform="translate(-868.517 -397.975)"/>
    <path id="Path_413" data-name="Path 413" class="cls-2" d="M1178.674,472.8a2.7,2.7,0,0,1-2.711-2.428,2.591,2.591,0,0,1,1.966-2.636,2.49,2.49,0,0,1,2.875,1.549c.283.8.253,1.4-.864,1.311a16.712,16.712,0,0,0-1.728,0c-.283.015-.7-.089-.7.372,0,.343.343.521.655.551a1.85,1.85,0,0,0,.909-.06.706.706,0,0,1,1.087.357c.238.64-.432.64-.775.8A2.47,2.47,0,0,1,1178.674,472.8Zm-1.206-3.47a2.366,2.366,0,0,0,2.1.015A1.339,1.339,0,0,0,1177.468,469.33Z" transform="translate(-1000.808 -397.995)"/>
    <path id="Path_414" data-name="Path 414" class="cls-2" d="M1235.673,468.959c1.817-1.281,3.485-1.132,4.275.4.6,1.132.313,1.594-.953,1.609-.536,0-1.057-.015-1.594.015-.238.015-.581-.06-.611.313-.03.313.223.462.477.551a1.376,1.376,0,0,0,1.162-.03.677.677,0,0,1,1.057.432c.164.521-.417.6-.745.73a2.568,2.568,0,0,1-3.456-2.726l.134-1.028-.015.015c.209.03.268-.1.283-.283Zm3.172.864c-1.057-.879-1.355-.864-1.966.03A4.881,4.881,0,0,0,1238.845,469.823Z" transform="translate(-1051.282 -398.355)"/>
    <path id="Path_415" data-name="Path 415" class="cls-2" d="M917.245,470.4c-.432.6.849,2.055-.819,2.13-1.087.045-2.338.775-3.336-.372a3.028,3.028,0,0,1-.789-2.041,2.487,2.487,0,0,1,2.279-2.472C917.245,467.6,917.245,467.6,917.245,470.4Zm-3.709-.387a1.332,1.332,0,0,0,1.147,1.564c.864.119,1.311-.462,1.415-1.236a1.271,1.271,0,0,0-1.132-1.519C914.087,468.7,913.7,469.284,913.536,470.014Z" transform="translate(-776.42 -397.965)"/>
    <path id="Path_416" data-name="Path 416" class="cls-2" d="M932.06,398.392c0-.447.03-.879,0-1.326-.06-.879.253-1.3,1.162-.968a1.2,1.2,0,0,0,.76,0c1.921-.432,2.86.268,2.964,2.219.03.611,0,1.236.015,1.862.015.477-.149.745-.685.73-.492-.015-.581-.3-.581-.7,0-.67.015-1.326-.015-2-.015-.6-.253-1.043-.909-1.1a1.133,1.133,0,0,0-1.311.864,7.676,7.676,0,0,0-.134,2.1c-.015.4.015.819-.6.819-.566,0-.64-.357-.655-.789-.03-.566-.015-1.132-.015-1.713Z" transform="translate(-793.231 -336.977)"/>
    <path id="Path_417" data-name="Path 417" class="cls-2" d="M1202.036,395.5a2.542,2.542,0,0,1,2.547,2.651,2.592,2.592,0,1,1-2.547-2.651Zm1.281,2.681a1.315,1.315,0,0,0-1.251-1.5,1.275,1.275,0,0,0-1.415,1.4,1.259,1.259,0,0,0,1.311,1.37A1.245,1.245,0,0,0,1203.317,398.181Z" transform="translate(-1020.759 -336.573)"/>
    <path id="Path_418" data-name="Path 418" class="cls-2" d="M1056.345,470.948c0-.357.015-.7,0-1.057-.03-.909-.074-1.817,1.311-1.236.1.045.253-.015.372-.03,2.443-.432,3.158.134,3.158,2.711,0,.67.581,1.906-.536,1.966-1.311.074-.4-1.206-.655-1.847a4.362,4.362,0,0,1-.06-.789c-.1-.6-.283-1.147-1.028-1.147a1.176,1.176,0,0,0-1.251,1.117,12.576,12.576,0,0,0-.045,1.981c.015.477-.149.76-.67.745-.462-.015-.6-.3-.581-.7C1056.36,472.08,1056.345,471.514,1056.345,470.948Z" transform="translate(-899.003 -398.675)"/>
    <path id="Path_419" data-name="Path 419" class="cls-2" d="M1236.462,397.965c0-.4.015-.789,0-1.192-.03-.864.03-1.638,1.221-1.028.387.194.566-.134.834-.209a1.949,1.949,0,0,1,2.7,1.832c.06.789.015,1.594.03,2.383,0,.4-.1.685-.6.685s-.611-.268-.626-.67c-.015-.626-.015-1.236-.015-1.862-.015-.685-.194-1.266-1.013-1.266a1.18,1.18,0,0,0-1.251,1.251c-.03.477,0,.968-.03,1.46-.03.432.209,1.043-.6,1.072s-.641-.551-.655-1.013S1236.462,398.442,1236.462,397.965Z" transform="translate(-1052.295 -336.506)"/>
    <path id="Path_420" data-name="Path 420" class="cls-2" d="M1012.579,396.794c.387-.06.521-.447.774-.67a2.56,2.56,0,0,1,4.007,3.023,2.533,2.533,0,0,1-2.994,1.37,2.567,2.567,0,0,1-1.906-2.7c.03-.343.074-.7.119-1.043Zm3.768,1.221a1.331,1.331,0,1,0-2.651.134,1.261,1.261,0,0,0,1.415,1.266C1015.975,399.386,1016.333,398.82,1016.348,398.015Z" transform="translate(-861.656 -336.556)"/>
    <path id="Path_421" data-name="Path 421" class="cls-2" d="M994.51,381.325c-1.132-.209-1.489.3-1.355,1.37.06.521,0,1.057.015,1.579.015.462-.134.76-.67.745-.477-.015-.581-.3-.581-.7V382.74c0-.268.1-.67-.03-.774-1.519-1.132-.075-2.085.194-3.068a2.131,2.131,0,0,1,2.83-1.43c.3.119.774.194.611.685a.674.674,0,0,1-.834.477c-.447-.1-.909-.164-1.221.238-.283.387-.611,1.057.06,1.147.938.134.775.775.953,1.311A.021.021,0,0,0,994.51,381.325Z" transform="translate(-843.572 -321.102)"/>
    <path id="Path_422" data-name="Path 422" class="cls-2" d="M838.1,382.823h2.115c.357,0,.581.134.6.536.015.432-.164.745-.6.655-1.713-.313-1.579.8-1.534,1.906.03.968,0,1.936.015,2.9,0,.492-.045.879-.685.849-.581-.03-.6-.4-.6-.819,0-1.236-.045-2.472.015-3.709.045-.864-.253-1.221-1.132-1.132-.447.045-1.057.149-1.013-.64s.67-.536,1.1-.566c.551-.015,1.132,0,1.713.015Z" transform="translate(-710.875 -325.758)"/>
    <path id="Path_423" data-name="Path 423" class="cls-2" d="M1093.9,471.3c-.3-.581-.879-.685-1.251-1.043a1.376,1.376,0,0,1-.417-1.772,1.511,1.511,0,0,1,1.772-.8c.343.06.76.194.789.581.045.447-.4.506-.745.581-.208.045-.417.03-.7.06.179.715.819.819,1.236,1.162a1.37,1.37,0,0,1,.3,2.085,1.5,1.5,0,0,1-2.219.3c-.313-.223-.715-.521-.521-.968.179-.387.611-.223.953-.164C1093.361,471.376,1093.584,471.614,1093.9,471.3Z" transform="translate(-929.405 -397.971)"/>
    <path id="Path_424" data-name="Path 424" class="cls-2" d="M969.359,399.208c-.164-.655-.774-.745-1.147-1.072a1.4,1.4,0,0,1-.447-1.877,1.525,1.525,0,0,1,1.817-.73c.313.074.819.209.715.626-.149.685-.968.4-1.415.73.238.566.819.67,1.206,1a1.361,1.361,0,0,1,.343,2.07,1.525,1.525,0,0,1-2.234.313c-.328-.223-.73-.551-.521-.953.164-.328.626-.179.968-.134C968.867,399.223,969.046,399.431,969.359,399.208Z" transform="translate(-823.455 -336.542)"/>
    <path id="Path_425" data-name="Path 425" class="cls-2" d="M875.664,397.224c-1.981-.149-2.219.074-2.234,2.055,0,.313,0,.611-.015.923-.015.477-.208.745-.73.7s-.506-.4-.506-.76c0-1.147-.015-2.294.015-3.426a1.052,1.052,0,0,1,.194-.6,9.073,9.073,0,0,1,3.351.089,1.129,1.129,0,0,1,.164.477l.015-.015a.389.389,0,0,0-.253.551Z" transform="translate(-742.271 -337.001)"/>
    <path id="Path_426" data-name="Path 426" class="cls-2" d="M1167.623,381.891c.7-.03.685.387.715.789.03.581-.208,1.251.64,1.534.224.074.283.6.1.7-1.326.775-.536,2.026-.73,3.053-.074.4.1.938-.611.909-.611-.03-.506-.492-.521-.864-.015-.655,0-1.326,0-1.981,0-.343.06-.73-.432-.834-.328-.074-.491-.447-.357-.581a3.4,3.4,0,0,0,.879-2.532C1167.3,382,1167.564,381.921,1167.623,381.891Z" transform="translate(-992.661 -324.99)"/>
    <path id="Path_427" data-name="Path 427" class="cls-2" d="M1216.279,469.176c-2.1.015-2.353.253-2.368,2.338v.789c0,.343-.1.6-.521.611-.477.015-.611-.238-.611-.655,0-1.147-.015-2.294.015-3.441a1.658,1.658,0,0,1,.179-.581c1.072.268,2.115-.432,3.172-.089.4.134.164.566.372.774v-.015c-.268-.074-.3.074-.283.283Z" transform="translate(-1032.141 -398.318)"/>
    <path id="Path_428" data-name="Path 428" class="cls-2" d="M1189.651,398.539c0,.566-.015,1.132,0,1.713.015.462-.119.76-.655.745-.462-.015-.6-.253-.6-.67v-3.545c0-.417.119-.67.6-.685.521-.015.685.253.67.73C1189.636,397.407,1189.651,397.973,1189.651,398.539Z" transform="translate(-1011.397 -337.08)"/>
    <path id="Path_429" data-name="Path 429" class="cls-2" d="M1188.715,382.7a.7.7,0,0,1-.715-.745.656.656,0,0,1,.625-.7.665.665,0,0,1,.789.655C1189.46,382.387,1189.147,382.61,1188.715,382.7Z" transform="translate(-1011.057 -324.442)"/>
    <path id="Path_430" data-name="Path 430" class="cls-2" d="M167.557,249.09c-.134-5.63-.119-11.26,0-16.89q6.144,4.267,12.273,8.534c-3.872,2.9-7.909,5.541-11.886,8.266A.708.708,0,0,1,167.557,249.09Z" transform="translate(-142.52 -197.595)"/>
  </g>
</svg>
