<svg id="customer_page_prudentail_logo_black" data-name="customer_page_prudentail logo_black" xmlns="http://www.w3.org/2000/svg" viewBox="0 0 188 79.712">
  <path id="Path_205" data-name="Path 205" d="M0,778c3.309.008,6.618-.008,9.926.023a11.284,11.284,0,0,1,4.316.692,6,6,0,0,1,3.873,5.392,7.6,7.6,0,0,1-.556,3.858,6.109,6.109,0,0,1-4.189,3.422,15.725,15.725,0,0,1-4.061.414c-1.564.023-3.136.015-4.7,0-.293,0-.384.083-.384.383.015,2.03,0,4.061.015,6.091,0,.293-.075.383-.376.383-1.166-.015-2.331-.008-3.5-.008a.625.625,0,0,0-.368.038Q0,788.332,0,778Zm7.648,9.964v-.045c1.015,0,2.03.03,3.046-.008a3.621,3.621,0,0,0,2.158-.639,2.948,2.948,0,0,0,.97-3.151,2.482,2.482,0,0,0-1.955-2.045,4.86,4.86,0,0,0-.925-.158c-2.151-.165-4.309-.038-6.46-.083-.248-.008-.248.128-.248.308,0,1.827.008,3.662,0,5.49,0,.256.075.346.338.346C5.587,787.956,6.618,787.964,7.648,787.964Z" transform="translate(0 -719.494)"/>
  <path id="Path_206" data-name="Path 206" d="M545.109,798.925c.038-.241-.165-.135-.248-.143a9.082,9.082,0,0,1-4.234-1.722,6.972,6.972,0,0,1-2.745-5.023c-.068-.684-.075-1.376-.075-2.068,0-3.933.008-7.866-.008-11.8,0-.4.113-.466.481-.459q1.692.034,3.384,0c.308-.008.368.09.368.376q-.011,6.181-.008,12.363a5.606,5.606,0,0,0,.338,2.173,3.993,3.993,0,0,0,2.828,2.421,6.385,6.385,0,0,0,3.843-.12,3.966,3.966,0,0,0,2.76-3.5,11.828,11.828,0,0,0,.075-1.466q0-5.922-.008-11.836c0-.323.06-.429.406-.421,1.166.023,2.331.015,3.5.008.218,0,.308.053.308.293-.03,4.482.083,8.971-.06,13.453a7.145,7.145,0,0,1-4.993,6.806,11.2,11.2,0,0,1-2.256.541c-.023,0-.045.023-.06.038-.053.038.008.053.023.083C547.516,798.925,546.313,798.925,545.109,798.925Z" transform="translate(-497.357 -719.213)"/>
  <path id="Path_207" data-name="Path 207" d="M2309.954,798.49a.748.748,0,0,0-.406-.038c-4.865,0-9.723-.008-14.589.008-.354,0-.459-.075-.459-.451q.023-9.893,0-19.778c0-.331.075-.444.429-.436q1.692.034,3.384,0c.331-.008.414.083.414.414q-.011,7.93-.008,15.867c0,.594-.075.534.549.534,2.986,0,5.963.008,8.949-.008a.54.54,0,0,1,.616.459c.278.948.594,1.888.91,2.82.03.1.03.226.15.286.007.008.038.008.038.008l.022-.068Z" transform="translate(-2121.954 -719.304)"/>
  <path id="Path_208" data-name="Path 208" d="M1278.2,0c-.03.015-.083.03-.038.075a10.567,10.567,0,0,0,1.669,1.557,3.651,3.651,0,0,0,1.579.556,4.492,4.492,0,0,1,2.091.654,1.588,1.588,0,0,1,.737,1.038,6.317,6.317,0,0,1,.226,2.188c-.015.083-.023.173-.045.256-.068.218-.128.444-.414.474-.256.023-.384-.165-.489-.346-.135-.241-.248-.489-.368-.737a3.036,3.036,0,0,0-1.3-1.361,20.878,20.878,0,0,1-3.188-2.106,3.991,3.991,0,0,1-.511-.5c-.414-.5-.895-.985-.7-1.737C1277.7,0,1277.951,0,1278.2,0Z" transform="translate(-1181.342)"/>
  <path id="Path_209" data-name="Path 209" d="M1369.19,784.128v.451q0,6.768.008,13.536c0,.338-.083.451-.429.444-1.151-.023-2.309-.015-3.459-.008-.241,0-.323-.06-.316-.316q.011-10.017,0-20.041c0-.226.06-.3.293-.293q2.03.011,4.061,0a.5.5,0,0,1,.429.241q4.85,6.227,9.708,12.446a1.856,1.856,0,0,0,.421.421v-.429c0-4.076.007-8.144-.008-12.22,0-.4.113-.474.481-.466q1.636.034,3.271,0c.368-.008.481.068.481.459-.015,5.625-.007,11.257-.007,16.882,0,.993-.008,1.978.007,2.97,0,.263-.068.346-.338.338-1.068-.015-2.128-.015-3.2,0a.575.575,0,0,1-.511-.308l-10.536-13.807c-.09-.113-.18-.226-.271-.346A.5.5,0,0,1,1369.19,784.128Z" transform="translate(-1262.346 -719.396)"/>
  <path id="Path_210" data-name="Path 210" d="M283.994,790.052c.3.278.617.541.9.835a16.608,16.608,0,0,1,3.121,5.144c.316.737.579,1.5.872,2.241.09.218.038.286-.2.286-1.451-.008-2.91-.008-4.362,0-.241,0-.286-.15-.346-.316a24.89,24.89,0,0,0-1.662-3.813,9.455,9.455,0,0,0-1.008-1.451,4.985,4.985,0,0,0-3.993-1.745c-.827-.008-1.654.008-2.482-.008-.293-.008-.346.1-.346.368.008,2.181,0,4.362.015,6.542,0,.316-.053.436-.406.429-1.151-.023-2.309-.015-3.459-.008-.256,0-.346-.068-.346-.338q.011-10.005,0-20c0-.248.075-.316.323-.316,3.346.008,6.693-.008,10.039.015a8.651,8.651,0,0,1,4.286.932,5.984,5.984,0,0,1,3.188,5.678,5.258,5.258,0,0,1-3.76,5.339l-.316.113C284.032,789.992,284.016,790.022,283.994,790.052Zm-6.061-2.655v-.03h3.121a3.593,3.593,0,0,0,.489-.053,2.627,2.627,0,0,0,2.324-2.263,2.7,2.7,0,0,0-1.331-2.9,4,4,0,0,0-1.933-.391c-1.925-.015-3.858,0-5.783-.015-.248,0-.316.068-.316.316q.011,2.516,0,5.031c0,.256.083.316.323.316C275.85,787.39,276.888,787.4,277.933,787.4Z" transform="translate(-249.973 -719.402)"/>
  <path id="Path_211" data-name="Path 211" d="M825.008,788.225c0-3.294.008-6.588-.008-9.881,0-.323.06-.444.421-.444,2.5.015,4.986-.008,7.482.015a13.714,13.714,0,0,1,5.016.782,8.073,8.073,0,0,1,4.813,4.918,12.812,12.812,0,0,1-.15,9.573,8.294,8.294,0,0,1-6.467,5.091,17.837,17.837,0,0,1-3.286.271c-2.467.008-4.933,0-7.407.008-.323,0-.421-.068-.421-.414C825.015,794.843,825.008,791.534,825.008,788.225Zm4.211-.015v6.121c0,.18-.06.384.256.376,1.7-.038,3.407.083,5.106-.113a4.771,4.771,0,0,0,4.264-3.429,9.567,9.567,0,0,0,.338-4.489,7.424,7.424,0,0,0-.466-1.737,4.817,4.817,0,0,0-4.422-3.136c-1.617-.135-3.226-.038-4.843-.075-.3-.008-.233.188-.233.346Z" transform="translate(-762.96 -719.402)"/>
  <path id="Path_212" data-name="Path 212" d="M1103.907,788.125c0-3.309.008-6.618-.007-9.926,0-.308.068-.4.384-.4q7.952.011,15.9,0c.308,0,.376.06.3.376-.248,1.03-.481,2.068-.684,3.113-.06.316-.2.353-.474.353-3.587-.008-7.167,0-10.754-.015-.391,0-.474.105-.466.474.023,1.151.023,2.309,0,3.459-.008.3.083.368.376.368,3.061-.008,6.114,0,9.174-.015.353,0,.436.105.429.436-.023,1.015-.015,2.03,0,3.046.008.3-.09.368-.376.368-3.061-.008-6.114,0-9.174-.015-.361,0-.429.113-.421.436.015,1.331.022,2.655,0,3.986-.008.384.12.444.466.444,3.67-.015,7.347,0,11.017-.015a.511.511,0,0,1,.594.436c.308,1.03.647,2.053.993,3.068.09.271.045.338-.241.338q-8.347-.011-16.694,0c-.308,0-.338-.12-.338-.376C1103.907,794.773,1103.907,791.449,1103.907,788.125Z" transform="translate(-1020.887 -719.309)"/>
  <path id="Path_213" data-name="Path 213" d="M2007.767,798.642c-.617,0-1.226-.015-1.842.008a.465.465,0,0,1-.542-.361c-.391-1.113-.82-2.2-1.218-3.309a.382.382,0,0,0-.429-.3c-2.655.008-5.317.008-7.971,0-.271,0-.361.1-.444.331-.391,1.105-.8,2.211-1.2,3.316a.405.405,0,0,1-.459.323c-1.293-.015-2.579-.015-3.873,0-.278,0-.346-.045-.233-.323q3.993-10.028,7.971-20.056a.372.372,0,0,1,.414-.271c1.143.008,2.279.015,3.422,0a.453.453,0,0,1,.5.323q3.192,7.918,6.4,15.83c.556,1.369,1.105,2.737,1.662,4.106.158.384.15.384-.278.384Zm-8.031-15.491c-.03.008-.06.008-.083.015q-1.365,3.711-2.722,7.422c-.113.308.1.256.263.256,1.677,0,3.354-.008,5.031.008.331,0,.376-.075.263-.376-.654-1.715-1.293-3.437-1.94-5.159Q2000.13,784.234,1999.736,783.151Z" transform="translate(-1839.898 -719.494)"/>
  <path id="Path_214" data-name="Path 214" d="M1649.948,778h8.648c.474,0,.474,0,.323.466-.331,1.015-.662,2.023-.978,3.038a.411.411,0,0,1-.474.346c-1.79-.015-3.587.008-5.377-.015-.346-.008-.406.1-.406.421q.011,7.952.008,15.9c0,.5,0,.5-.511.5h-3.2c-.572,0-.489.038-.489-.474,0-5.287-.008-10.573.007-15.86,0-.406-.12-.481-.5-.481-1.94.015-3.888,0-5.828.015-.286,0-.384-.06-.384-.368.023-1.038.023-2.083,0-3.121-.008-.316.105-.361.384-.361Z" transform="translate(-1517.407 -719.494)"/>
  <path id="Path_215" data-name="Path 215" d="M796.9,141.9c1.429.015,2.85.165,4.271.316a23.025,23.025,0,0,0,4.008.2,2.769,2.769,0,0,0,1.173-.353c.113-.06.241-.143.2-.286s-.18-.105-.293-.1a6.2,6.2,0,0,1-3.482-.865c-.579-.3-1.151-.617-1.715-.94a6.091,6.091,0,0,0-5.347-.451c-1.3.466-2.512,1.128-3.783,1.654a8.626,8.626,0,0,1-2.737.76,3.162,3.162,0,0,1-2.97-1.489,1.975,1.975,0,0,1-.233-.511.667.667,0,0,1,.353-.91c.143-.083.293-.15.436-.218a.964.964,0,0,0,.609-1.188.594.594,0,0,1,.331-.684c.316-.173.5-.09.617.263.338,1.03.872,1.9,2.045,2.053a6.7,6.7,0,0,0,2.316-.158,26.076,26.076,0,0,0,3.527-1.143,14.025,14.025,0,0,1,4.023-1.03,5.945,5.945,0,0,1,3.9,1.075c.985.714,1.925,1.481,2.9,2.211a8.8,8.8,0,0,0,1.842,1.151.251.251,0,0,1,.128.376,2.532,2.532,0,0,1-1.256,1.429,12.854,12.854,0,0,0-2.888,1.662,4.713,4.713,0,0,1-2.955.827,23.719,23.719,0,0,1-4.181-.459c-.692-.113-1.391-.2-2.091-.248a3.438,3.438,0,0,0-3.173,1.512,3.642,3.642,0,0,1-.707.775,1.115,1.115,0,0,1-.286.173.549.549,0,0,1-.684-.12c-.158-.241.1-.436.278-.534.729-.406.737-.97.481-1.662-.256-.714.03-1.286.827-1.91a6.275,6.275,0,0,1,3.549-1.166C796.272,141.874,796.588,141.9,796.9,141.9Z" transform="translate(-726.832 -126.458)"/>
  <path id="Path_216" data-name="Path 216" d="M1901.208,788.167c0-3.271.007-6.542-.008-9.806,0-.391.113-.474.481-.466,1.128.023,2.256.015,3.384,0,.271,0,.368.045.361.346q-.011,9.983,0,19.958c0,.278-.075.361-.354.361q-1.748-.023-3.5,0c-.308.008-.369-.105-.369-.391C1901.215,794.829,1901.208,791.5,1901.208,788.167Z" transform="translate(-1758.23 -719.396)"/>
  <path id="Path_217" data-name="Path 217" d="M1088.874,116.414a81.594,81.594,0,0,0-10.934.932,5.222,5.222,0,0,1-2.527.038,3.027,3.027,0,0,1-1.474-1.053.862.862,0,0,1-.045-1.083,1.662,1.662,0,0,0,.248-1.632,1.1,1.1,0,0,1-.03-.444.529.529,0,0,1,.421-.474c.241-.053.353.158.406.361a3.411,3.411,0,0,0,1.173,1.617,4.269,4.269,0,0,0,3.241,1.015,19.062,19.062,0,0,0,3.542-.82,45.97,45.97,0,0,1,8.2-1.436,31.1,31.1,0,0,1,4.429.045,24.95,24.95,0,0,1,5.9,1.053,3.243,3.243,0,0,1,1.346.782,1.274,1.274,0,0,1,.158,1.707,2.867,2.867,0,0,1-.218.308,3.487,3.487,0,0,0-.857,2.64c.008.135,0,.278.008.414a.23.23,0,1,1-.459.038,3.531,3.531,0,0,1,0-.489,1.616,1.616,0,0,0-1.015-1.677,8.676,8.676,0,0,0-2.391-.752c-1.534-.286-3.061-.639-4.617-.812A40.056,40.056,0,0,0,1088.874,116.414Z" transform="translate(-992.979 -104.217)"/>
  <path id="Path_218" data-name="Path 218" d="M962.9,376.617a3.835,3.835,0,0,1,1.579.233c.248.105.331.015.391-.2.2-.722.406-1.444.639-2.158a4.311,4.311,0,0,1,.752-1.421c.083-.105.165-.248.323-.218s.173.2.2.323a20.644,20.644,0,0,1,.632,4.489.587.587,0,0,0,.338.556,11.261,11.261,0,0,1,1.782,1.181,2.462,2.462,0,0,1,.571,3.422,7.354,7.354,0,0,1-2.993,2.617.978.978,0,0,0-.587.887,41.33,41.33,0,0,1-1.2,6.565c-.023.083-.053.165-.075.256a.212.212,0,0,1-.233.188c-.165-.008-.218-.083-.233-.226-.06-.624-.15-1.241-.188-1.865-.09-1.3-.165-2.6-.218-3.9-.015-.346-.12-.338-.376-.2a2.755,2.755,0,0,0-1.324,3.2,8.8,8.8,0,0,1,.346,1.151,1.582,1.582,0,0,1-.609,1.632c-.113.083-.218.188-.368.113-.165-.083-.113-.241-.083-.368a2.9,2.9,0,0,0,.075-.669,1.181,1.181,0,0,0-.466-.9,5,5,0,0,1-.7-.624,2.1,2.1,0,0,1-.278-2.444,5.265,5.265,0,0,1,2.218-2.015c.4-.233.82-.436,1.233-.632a.366.366,0,0,0,.256-.4,34.542,34.542,0,0,1,.271-5.061c.045-.489.045-.474-.444-.556A3.587,3.587,0,0,1,961.3,377.9a.731.731,0,0,1,.594-1.166A3.8,3.8,0,0,1,962.9,376.617Zm4.016,7.5a3.384,3.384,0,0,0,1.685-1.5,1.712,1.712,0,0,0-1-2.324c-.18-.06-.308-.083-.338.165C967.151,381.663,967.038,382.874,966.918,384.122Z" transform="translate(-888.116 -344.808)"/>
  <path id="Path_219" data-name="Path 219" d="M1532.9,234.731c.376-5.482,1.685-10.656,4.918-15.213a2.139,2.139,0,0,1,2.188-.842,1.4,1.4,0,0,1,1.03.842,7.845,7.845,0,0,1,.571,2.091,1.6,1.6,0,0,1-.15.985c-.053.09-.113.218-.256.173a.252.252,0,0,1-.165-.271v-.038c-.075-.79-.354-.955-1.075-.632a4.978,4.978,0,0,0-2.166,2.076,46.269,46.269,0,0,0-2.617,5.685,15.252,15.252,0,0,0-1.023,3.444,24.862,24.862,0,0,0-.293,4.226,8.376,8.376,0,0,0,.113.857c.023.248-.09.293-.293.165a1.215,1.215,0,0,1-.466-.744A11,11,0,0,1,1532.9,234.731Z" transform="translate(-1417.626 -202.184)"/>
  <path id="Path_220" data-name="Path 220" d="M1182.413,312.7a19.572,19.572,0,0,1-2.091,8.618c-.79,1.564-1.722,3.053-2.594,4.572a34.025,34.025,0,0,1-2.294,3.61,1.4,1.4,0,0,1-.391.338,5.026,5.026,0,0,1-3.587.579c-.767-.128-1.526-.263-2.294-.414a12.413,12.413,0,0,1-3.219-1.324,44.3,44.3,0,0,1-4.535-2.587c-.361-.248-.714-.511-1.06-.775-.113-.083-.316-.188-.211-.338.09-.135.248.03.354.09,1.256.684,2.512,1.354,3.813,1.94a18.884,18.884,0,0,0,7.4,1.767,4.606,4.606,0,0,0,4.234-2.166,44.522,44.522,0,0,0,4.58-8.046,20.308,20.308,0,0,0,1.557-7.114c0-.135-.053-.361.158-.353s.173.226.181.361C1182.421,311.872,1182.413,312.286,1182.413,312.7Z" transform="translate(-1072.869 -287.703)"/>
  <path id="Path_221" data-name="Path 221" d="M1133.013,14.121a1.4,1.4,0,0,1-.737-.429,6.716,6.716,0,0,0-2.241-1.406,8.147,8.147,0,0,1-2.767-1.624,5.575,5.575,0,0,0-3.106-1.451,12.041,12.041,0,0,1-2.76-.677,2.472,2.472,0,0,1-1.414-1.324.525.525,0,0,1,.105-.654c.233-.2.414-.03.594.105a6.654,6.654,0,0,0,.541.4,1.484,1.484,0,0,0,1.293.173,3.95,3.95,0,0,1,.729-.165,2.762,2.762,0,0,1,2.775.917c.338.4.707.775,1.083,1.151a1.972,1.972,0,0,0,2.775.353,1.3,1.3,0,0,1,1.888.594c.5,1.173,1.045,2.324,1.557,3.5C1133.48,13.925,1133.367,14.129,1133.013,14.121Z" transform="translate(-1035.705 -5.977)"/>
  <path id="Path_222" data-name="Path 222" d="M1304.939,263.617c-.1-.677-.248-1.519-.323-2.361a18.152,18.152,0,0,1-.2-4.038,3.576,3.576,0,0,1,2.91-3.3,8.4,8.4,0,0,1,1.887-.316,3.147,3.147,0,0,1,.376.015.185.185,0,0,1,.18.165c.015.113-.068.158-.158.18-.21.045-.414.09-.624.12a3.081,3.081,0,0,0-1.549.707,1.106,1.106,0,0,0-.286.338c-.286.534-.218.669.369.767a1.711,1.711,0,0,1,1.248.744.539.539,0,0,1-.211.85c-.278.165-.572.308-.865.451a.672.672,0,0,1-.511.053.383.383,0,0,1-.18-.662c.113-.113.226-.2.135-.376a.4.4,0,0,0-.354-.241c-.2-.008-.286.1-.353.271a11.8,11.8,0,0,0-.654,3.527c-.09,1.151-.143,2.3-.293,3.444a2.226,2.226,0,0,1-.955,1.587c-.15.113-.323.2-.474.308a1.2,1.2,0,0,1-1.632.1,1.1,1.1,0,0,0-1.421.068,1.464,1.464,0,0,1-1.436.143,4.6,4.6,0,0,1-.684-.3c-.181-.09-.338-.226-.256-.444.068-.188.271-.158.429-.128.293.045.587.12.88.18a.755.755,0,0,0,.647-.128,1.5,1.5,0,0,1,1.316-.248,5.772,5.772,0,0,0,1.9.06C1304.556,265.03,1304.947,264.572,1304.939,263.617Z" transform="translate(-1200.945 -234.529)"/>
  <path id="Path_223" data-name="Path 223" d="M1432.1,514.221c.06-1.715.519-3.091,1.993-3.933.2-.113.361-.271.541-.4a2.615,2.615,0,0,0,1.181-2.722,10.484,10.484,0,0,1-.045-3.143,3.425,3.425,0,0,1,.564-1.421,1.392,1.392,0,0,1,.8-.526.511.511,0,0,1,.684.444.661.661,0,0,0,.617.639,1.571,1.571,0,0,1,.18.045c.181.053.4.1.421.316s-.188.263-.346.338a3.145,3.145,0,0,0-1.639,1.955,21.759,21.759,0,0,0-.594,3.091,6.146,6.146,0,0,1-1.7,3.444c-.226.218-.421.459-.632.692a4.647,4.647,0,0,0-1.256,2.391c-.015.105-.008.248-.143.278-.15.038-.218-.09-.286-.2A2.579,2.579,0,0,1,1432.1,514.221Z" transform="translate(-1324.406 -464.296)"/>
  <path id="Path_224" data-name="Path 224" d="M1057.893,286.441a13.82,13.82,0,0,0-.308,2.775,12.148,12.148,0,0,0,.436,3.715c.053.173.173.406-.03.5s-.316-.143-.4-.308a16.84,16.84,0,0,1-2.008-8.377c.015-.173.045-.346.06-.519a.248.248,0,0,1,.233-.248.214.214,0,0,1,.233.2c.038.414.3.549.654.639A3.894,3.894,0,0,1,1057.893,286.441Z" transform="translate(-976.181 -262.626)"/>
  <path id="Path_225" data-name="Path 225" d="M1194.1,231.2a19.691,19.691,0,0,1,3.805.361c.128.023.323,0,.316.188-.008.211-.211.128-.331.128a17.2,17.2,0,0,0-7.114,1.481,6.385,6.385,0,0,0-1.451.85c-.18.143-.376.248-.572.053-.18-.173-.03-.353.06-.5a.957.957,0,0,0-.015-1.241c-.218-.263-.075-.489.331-.617a14.7,14.7,0,0,1,2.6-.549A23.146,23.146,0,0,1,1194.1,231.2Z" transform="translate(-1099.285 -213.814)"/>
  <path id="Path_226" data-name="Path 226" d="M1226.714,270.8a10.305,10.305,0,0,1,2.5.241,1.6,1.6,0,0,1,.737.353c.053.053.128.105.105.188-.03.105-.143.1-.226.09-.383-.045-.767-.09-1.151-.143a3.281,3.281,0,0,0-.857-.038c-.308.038-.369.165-.218.429.105.173.233.323.346.489a.32.32,0,0,1-.038.474,2.793,2.793,0,0,1-1.985.729c-.173-.023-.331-.053-.369-.256-.03-.188.12-.256.248-.338.06-.045.135-.068.2-.105.308-.2.308-.444-.008-.639a1.1,1.1,0,0,0-1.045-.038,10.036,10.036,0,0,0-1.181.654c-.128.068-.278.18-.414.075s-.022-.256.015-.376a1.178,1.178,0,0,0-.068-.624c-.165-.647-.083-.8.587-.925A14.753,14.753,0,0,1,1226.714,270.8Z" transform="translate(-1131.24 -250.436)"/>
  <path id="Path_227" data-name="Path 227" d="M985.1,322.386a.592.592,0,0,1,.158-.466,1.007,1.007,0,0,0,.271-1.1.476.476,0,0,1,.338-.647,6.255,6.255,0,0,0,3.038-2.835c.068-.105.105-.263.263-.2.143.06.135.218.09.361a9.314,9.314,0,0,1-3.565,5.144c-.128.09-.263.218-.436.12C985.115,322.687,985.107,322.521,985.1,322.386Z" transform="translate(-911.02 -293.276)"/>
  <path id="Path_228" data-name="Path 228" d="M1499.883,595.653a.66.66,0,0,1,.113-.391,4.966,4.966,0,0,1,3.527-2.3c.181-.023.459-.075.526.075.083.18-.2.233-.331.331a6.275,6.275,0,0,0-1.82,2.4c-.173.376-.331.752-.5,1.128-.06.128-.12.271-.293.233s-.2-.18-.2-.323c0-.5-.2-.8-.745-.827C1499.973,595.977,1499.868,595.856,1499.883,595.653Z" transform="translate(-1387.09 -548.345)"/>
  <path id="Path_229" data-name="Path 229" d="M1403.1,55.81a.723.723,0,0,1-.857-.677,4.408,4.408,0,0,0-1.1-2.459.868.868,0,0,1-.15-.3.5.5,0,0,1,.286-.624c.241-.128.421.038.5.248a2.642,2.642,0,0,0,1.384,1.308,4.317,4.317,0,0,1,.94.617.961.961,0,0,1-.158,1.587A1.665,1.665,0,0,1,1403.1,55.81Z" transform="translate(-1295.613 -47.816)"/>
  <path id="Path_230" data-name="Path 230" d="M1280.1,438.974a.847.847,0,0,1,.5.158c.263.165.519.346.8.5a.622.622,0,0,0,.895-.173c.165-.2.323-.421.609-.368.3.06.376.338.444.594.053.2.12.406.173.609.03.105.1.233,0,.316s-.181-.045-.263-.09a1.886,1.886,0,0,0-.745-.241.968.968,0,0,0-.978.338c-.15.2-.271.173-.429.045-.173-.143-.346-.293-.519-.429a1,1,0,0,0-1.248-.06,7.4,7.4,0,0,1-1.308.722,1.794,1.794,0,0,1-1.354.008c-.113-.045-.256-.12-.226-.263s.18-.1.286-.1a3.617,3.617,0,0,0,1.782-.632l1.263-.812A.431.431,0,0,1,1280.1,438.974Z" transform="translate(-1180.457 -405.961)"/>
  <path id="Path_231" data-name="Path 231" d="M1302.882,474.369a3.623,3.623,0,0,1-2.7-1.722c-.038-.06-.105-.128-.038-.2s.165-.023.248.008a9.659,9.659,0,0,0,1.85.466,2.772,2.772,0,0,0,2.226-.526c.068-.053.135-.12.233-.09s.075.113.075.188A2.128,2.128,0,0,1,1302.882,474.369Z" transform="translate(-1202.347 -436.784)"/>
  <path id="Path_232" data-name="Path 232" d="M1526.239,544.7c.173.03.323-.03.376.083.075.143-.075.233-.158.3a5.582,5.582,0,0,0-1.677,2.083.369.369,0,0,1-.414.256c-.226-.053-.166-.248-.166-.406,0-.233-.045-.414-.293-.5-.218-.075-.218-.248-.135-.429a.429.429,0,0,1,.1-.158A4.332,4.332,0,0,1,1526.239,544.7Z" transform="translate(-1409.137 -503.739)"/>
</svg>
