<svg xmlns="http://www.w3.org/2000/svg" viewBox="0 0 188 68.292">
  <defs>
    <style>
      .cls-1 {
        fill: #fff;
      }

      .cls-2 {
        fill: #87c930;
      }
    </style>
  </defs>
  <g id="customer_page_starwood_logo_neon" data-name="customer_page_starwood logo_neon" transform="translate(0.3)">
    <path id="Path_181" data-name="Path 181" class="cls-1" d="M381.055,31.829a4.343,4.343,0,0,1-1.053.229h-5.4a1.049,1.049,0,0,1-1.053-.641c-.229-.458-.458-.916-.641-1.328-.275-.6-.5-.641-.962-.183a8.529,8.529,0,0,1-14.151-2.519,18.142,18.142,0,0,1-1.282-8.976,12.235,12.235,0,0,1,1.832-5.587,9.625,9.625,0,0,1,9.8-4.809,34.816,34.816,0,0,1,3.8.733c.5.092.641.046.641-.458V3.755a2.246,2.246,0,0,0-2.061-2.381c-.687-.137-1.374-.229-2.107-.321a.863.863,0,0,1-.366-.092,1.33,1.33,0,0,1-.5-.5c-.046-.092.275-.321.412-.458h8.381c.412.183.5.5.458.962-.092,1.1-.183,2.2-.183,3.343V28.532a2.266,2.266,0,0,0,1.969,2.2c.458.092.962.137,1.42.275a6.741,6.741,0,0,1,1.008.458A1.139,1.139,0,0,1,381.055,31.829Zm-8.473-11.587h-.092c0-1.969.092-3.984-.046-5.954a3.9,3.9,0,0,0-2.839-3.939,11.271,11.271,0,0,0-3.068-.366,4.419,4.419,0,0,0-3.755,2.061,11.237,11.237,0,0,0-1.374,2.656,18.661,18.661,0,0,0-.55,8.7,8.346,8.346,0,0,0,1.786,4.351,5.118,5.118,0,0,0,5.175,1.832,6.666,6.666,0,0,0,4.442-3.3,2.3,2.3,0,0,0,.275-1.1C372.582,23.586,372.582,21.891,372.582,20.243Z" transform="translate(-193.355)"/>
    <path id="Path_182" data-name="Path 182" class="cls-1" d="M-.163,33.892c.412-.366.779-.275,1.008.229.275.641.5,1.328.824,1.924a6.486,6.486,0,0,0,4.992,3.664,9.674,9.674,0,0,0,4.717-.046,6.135,6.135,0,0,0,2.015-1.1,3.047,3.047,0,0,0,.183-4.442,6.879,6.879,0,0,0-2.656-1.74c-1.511-.641-3.023-1.145-4.534-1.786a25.223,25.223,0,0,1-3.481-1.832A5.515,5.515,0,0,1,.524,23.038C.982,19.786,3,17.908,6.432,17.588a33.131,33.131,0,0,1,6.732.229c.87.092,1.695.229,2.565.321.5.092.687.229.687.779.046,1.74.092,3.526.092,5.267v.092a2.8,2.8,0,0,1-.321.641c-.137-.183-.366-.321-.458-.5-.229-.5-.412-1.053-.641-1.557A5.114,5.114,0,0,0,10.92,19.74a12.573,12.573,0,0,0-4.534-.046A3.29,3.29,0,0,0,3.593,22.03a2.524,2.524,0,0,0,.87,2.794,13.478,13.478,0,0,0,3.572,1.924c1.878.779,3.755,1.557,5.587,2.427a7.433,7.433,0,0,1,1.969,1.42,5.814,5.814,0,0,1,1.969,5.175,10.219,10.219,0,0,1-.366,2.061,5.8,5.8,0,0,1-4.488,3.939A17.739,17.739,0,0,1,6.112,42c-1.649-.229-3.3-.55-4.946-.916C.387,40.945.25,40.716.2,39.937c-.137-1.6-.275-3.252-.412-4.855A1.627,1.627,0,0,0-.3,34.625,1.48,1.48,0,0,0-.163,33.892Z" transform="translate(0 -9.482)"/>
    <path id="Path_183" data-name="Path 183" class="cls-1" d="M179.048,18.576h3.664a1.47,1.47,0,0,1,.641.046,2.735,2.735,0,0,1,.5.275,4.023,4.023,0,0,1-.275.458,9.687,9.687,0,0,1-.916.55,1.62,1.62,0,0,0-.916,1.924c.321,1.511.687,3.023,1.053,4.534.779,3.3,1.6,6.549,2.427,9.847.046.229.183.5.366.55.321.092.412-.229.5-.5,1.969-5.4,3.939-10.854,5.908-16.258.229-.687.366-.779,1.1-.779h.5a.866.866,0,0,1,.824.641c1.74,5.175,3.481,10.35,5.221,15.48.137.412.275.87.458,1.282.092.183.275.458.458.5.366.092.366-.275.412-.5,1.145-4.4,2.29-8.793,3.389-13.144l.412-1.649a1.437,1.437,0,0,0-.962-1.924c-.366-.183-.779-.321-1.145-.55a1.644,1.644,0,0,1-.321-.458,1.524,1.524,0,0,1,.458-.275,3.245,3.245,0,0,1,.641-.046h5.954a2.207,2.207,0,0,1,.55,0c.229.092.458.229.687.321-.183.229-.275.55-.5.641a3.144,3.144,0,0,0-1.878,2.2c-2.2,6.686-4.4,13.327-6.595,20.014a1.123,1.123,0,0,1-.962.824,4.977,4.977,0,0,1-.824.046c-1.145,0-1.42-.229-1.74-1.282-1.6-4.763-3.206-9.526-4.809-14.243-.092-.275-.137-.55-.55-.55-.366,0-.458.275-.55.55-1.786,4.9-3.618,9.8-5.4,14.7a1.07,1.07,0,0,1-.916.779,8.836,8.836,0,0,1-1.557,0,1.07,1.07,0,0,1-.962-.916c-1.969-6.732-3.984-13.465-6-20.243A1.983,1.983,0,0,0,176.071,20a12.7,12.7,0,0,1-1.191-.458c-.275-.137-.687-.183-.6-.6s.458-.366.779-.366h3.984Z" transform="translate(-94.622 -10.058)"/>
    <path id="Path_184" data-name="Path 184" class="cls-1" d="M100.072,31.02v6.32a2.469,2.469,0,0,0,2.29,2.839c.5.092,1.008.183,1.511.321.275.092.6.229.5.55-.046.183-.412.366-.6.366-1.924.046-3.893.046-5.816,0a1.371,1.371,0,0,1-.824-.458,2.461,2.461,0,0,1-.458-.733c-.366-.641-.733-.733-1.328-.321a11.565,11.565,0,0,1-4.305,1.832,10.985,10.985,0,0,1-5.45-.092,5.428,5.428,0,0,1-4.122-4.488,6.068,6.068,0,0,1,2.473-6.183,10.645,10.645,0,0,1,4.03-1.6c1.786-.458,3.572-.87,5.313-1.328a7.218,7.218,0,0,0,1.6-.733,1.953,1.953,0,0,0,1.053-1.74c.046-.916.046-1.878,0-2.794a2.718,2.718,0,0,0-1.511-2.29,9.023,9.023,0,0,0-2.336-.87,8.048,8.048,0,0,0-4.03.229,5.189,5.189,0,0,0-3.343,3.481c-.229.6-.321,1.237-.55,1.832-.046.183-.275.275-.458.458-.092-.183-.321-.366-.321-.55-.046-2.107-.046-4.213-.046-6.32,0-.55.137-.687.687-.733,1.832-.183,3.618-.458,5.45-.6a16.357,16.357,0,0,1,5.175.321A6.192,6.192,0,0,1,99.8,23.509c.183,1.557.137,3.16.183,4.717C100.072,29.188,100.072,30.1,100.072,31.02Zm-4.03,1.969V30.149c0-.458-.183-.641-.55-.5-2.565.733-5.175,1.466-7.74,2.29a3.207,3.207,0,0,0-2.381,3.481,7.49,7.49,0,0,0,.092,1.008,3.753,3.753,0,0,0,3.114,3.389A7.666,7.666,0,0,0,94.3,38.622a3.687,3.687,0,0,0,1.74-3.389C96,34.454,96.042,33.722,96.042,32.989Z" transform="translate(-44.27 -9.403)"/>
    <path id="Path_185" data-name="Path 185" class="cls-1" d="M324.675,30.549a13,13,0,0,1-2.565,7.511,9.851,9.851,0,0,1-8.427,4.076,9.74,9.74,0,0,1-8.976-5.633,14.185,14.185,0,0,1-.137-13.144,9.83,9.83,0,0,1,9.618-5.862c4.3.092,7.328,2.244,9.205,6.091A15.48,15.48,0,0,1,324.675,30.549Zm-4.351-.092a22.116,22.116,0,0,0-.641-5.267,8.851,8.851,0,0,0-1.649-3.435,5.667,5.667,0,0,0-8.931.412,8.366,8.366,0,0,0-1.053,2.244,18.825,18.825,0,0,0-.229,8.747,11.054,11.054,0,0,0,1.832,4.717,5.5,5.5,0,0,0,6.412,1.924,5.774,5.774,0,0,0,3.389-3.618A16.581,16.581,0,0,0,320.324,30.457Z" transform="translate(-164.408 -9.482)"/>
    <path id="Path_186" data-name="Path 186" class="cls-1" d="M260.806,42.112a9.612,9.612,0,0,1-8.839-5.084c-2.748-4.946-2.794-9.984.183-14.838,2.244-3.664,5.725-5.084,9.938-4.671a9.611,9.611,0,0,1,8.152,5.862,14.2,14.2,0,0,1-.6,13.785A9.863,9.863,0,0,1,260.806,42.112Zm-6.458-12.5c.046.641.137,1.786.321,2.977a11.793,11.793,0,0,0,1.878,5.175,5.446,5.446,0,0,0,9.251-.412,12.663,12.663,0,0,0,.916-2.153,18.9,18.9,0,0,0,.458-7.511,13.466,13.466,0,0,0-1.328-4.763,5.733,5.733,0,0,0-10.533.733A14.779,14.779,0,0,0,254.349,29.609Z" transform="translate(-135.62 -9.458)"/>
    <path id="Path_187" data-name="Path 187" class="cls-1" d="M46.792,11.8h-4.3c-.5,0-.687-.183-.687-.687V9.783c0-.5.183-.687.687-.687.916,0,1.832-.046,2.7,0a1.8,1.8,0,0,0,1.878-1.237C47.708,6.394,48.3,4.974,48.9,3.508c.321-.641.6-1.282.87-1.924.137-.275.275-.6.641-.5.412.092.412.412.412.733V9.142h6.229c.687,0,.733.046.733.733V11.2c0,.687-.092.779-.779.779-1.74-.046-3.435-.046-5.175-.092H50.822V26.957a10,10,0,0,0,.183,2.015,2.8,2.8,0,0,0,2.7,2.427,6.638,6.638,0,0,0,3.755-.779c.412-.229.6-.137.687.275.046.092.046.183.092.275.229.412.092.687-.321.916a8.275,8.275,0,0,1-3.572,1.053,10.479,10.479,0,0,1-4.305-.412,4.223,4.223,0,0,1-3.3-4.534V12.576A5.621,5.621,0,0,0,46.792,11.8Z" transform="translate(-22.819 -0.577)"/>
    <path id="Path_188" data-name="Path 188" class="cls-1" d="M137.4,41.542H132.64a4.191,4.191,0,0,1-.779-.046c-.137-.046-.321-.183-.321-.275a.581.581,0,0,1,.183-.412c.229-.137.55-.229.824-.366a5.537,5.537,0,0,1,.824-.229,2.5,2.5,0,0,0,2.015-2.656V21.941a2.386,2.386,0,0,0-1.1-2.244,6.094,6.094,0,0,0-1.557-.458,6.57,6.57,0,0,1-1.282-.321c-.229-.092-.366-.321-.55-.5.229-.137.458-.366.687-.366C132.869,18,134.152,18,135.434,18h1.923a.9.9,0,0,1,.962.733c.229.779.5,1.557.733,2.336.092.183.275.366.366.55.183-.137.412-.229.5-.412a8.173,8.173,0,0,1,7.144-3.71,10.152,10.152,0,0,1,2.29.458c.458.137.6.5.55,1.008-.183,1.374-.366,2.748-.55,4.076-.046.366,0,.824-.5.916-.5.046-.5-.458-.641-.779-.092-.229-.137-.5-.229-.733a2.432,2.432,0,0,0-1.924-1.695,5.444,5.444,0,0,0-6.595,4.259,6.451,6.451,0,0,0-.046.916v11.5a2.552,2.552,0,0,0,2.152,2.839,9.783,9.783,0,0,1,1.237.412,1.33,1.33,0,0,1,.5.5,2.511,2.511,0,0,1-.687.366c-.733.046-1.511.046-2.244.046C139.373,41.542,138.411,41.542,137.4,41.542Z" transform="translate(-71.113 -9.484)"/>
    <path id="Path_189" data-name="Path 189" class="cls-1" d="M176.19,87.778a48.769,48.769,0,0,1,5.175,0c0,.092.046.137.046.229-.229.046-.412.137-.641.183-.962.137-1.1.321-1.1,1.282v8.564c0,.87.183,1.1,1.053,1.191a5.7,5.7,0,0,1,.733.183c-.366.321-4.351.366-4.946.092.275-.092.458-.229.641-.275.641-.183.824-.412.824-1.1V94.373c0-.229.046-.412-.275-.412h-5.221c0,.137-.046.275-.046.366v3.847c0,.641.275.916.916,1.008.275.046.6.137.962.183a15.878,15.878,0,0,1-5.313.046,3.589,3.589,0,0,1,.641-.229c1.008-.183,1.145-.321,1.145-1.328V89.335c0-.87-.183-1.053-1.053-1.191a4.287,4.287,0,0,1-.733-.183.413.413,0,0,1,.046-.229c1.695-.092,3.435-.046,5.129-.046,0,.046.046.092.046.183a1.991,1.991,0,0,1-.321.183c-.275.046-.5.092-.779.137a.778.778,0,0,0-.687.733c-.046,1.328,0,2.7,0,4.076h5.542V89.381c0-.916-.183-1.1-1.1-1.237l-.687-.137C176.144,87.961,176.19,87.87,176.19,87.778Z" transform="translate(-91.764 -47.522)"/>
    <path id="Path_190" data-name="Path 190" class="cls-1" d="M180.791,134.149c-.092.092-.183.229-.321.229-.916.046-1.878.092-2.794.092-.137,0-.275-.229-.366-.366-.779-1.466-1.557-2.977-2.29-4.442a.981.981,0,0,0-1.145-.687,10.321,10.321,0,0,1-1.191,0,.439.439,0,0,0-.5.5v3.664a.93.93,0,0,0,.733.962,2.648,2.648,0,0,1,.641.229.346.346,0,0,1-.046.183h-4.03a1.462,1.462,0,0,1,.321-.275c.55-.183.687-.55.687-1.1v-8.976c0-.687-.229-.916-.916-1.008-.275-.046-.6-.137-.87-.183v-.183a1.628,1.628,0,0,1,.458-.092h6.183a2.953,2.953,0,0,1,.916.137,2.742,2.742,0,0,1,2.2,2.107,2.986,2.986,0,0,1-1.191,3.068,7.269,7.269,0,0,1-1.557.824c.962,1.466,1.969,2.977,2.931,4.488a1.444,1.444,0,0,0,1.557.733h.458C180.745,134.058,180.745,134.1,180.791,134.149Zm-8.564-8.289h0c0,.641-.046,1.237,0,1.878,0,.183.183.458.275.458a7,7,0,0,0,3.206-.321,2.557,2.557,0,0,0,.412-3.984,1.992,1.992,0,0,0-.962-.412c-.779-.046-1.511-.046-2.29-.046-.412,0-.6.229-.6.641C172.226,124.715,172.226,125.265,172.226,125.86Z" transform="translate(-91.602 -66.506)"/>
    <path id="Path_191" data-name="Path 191" class="cls-1" d="M291.659,104.808a1.268,1.268,0,0,1-.412.046H286.53a.8.8,0,0,1-.55-.275.379.379,0,0,0-.6-.137,3.5,3.5,0,0,1-2.519.55,1.774,1.774,0,0,1-1.695-1.511,1.925,1.925,0,0,1,1.237-2.152,6.316,6.316,0,0,1,1.328-.366c.275-.092.6-.137.87-.229,1.145-.321,1.282-.55,1.1-1.878a.972.972,0,0,0-.458-.6,2.048,2.048,0,0,0-3.114,1.1,2.232,2.232,0,0,1-.183.5h-.183V97.71c0-.092.183-.183.275-.183.916-.046,1.878-.183,2.794-.137a2.118,2.118,0,0,1,2.153,2.336c.046,1.237.046,2.427,0,3.664,0,1.008.458,1.145,1.191,1.145.687,0,1.1-.275,1.053-1.1V98.992c0-.733-.183-.962-.916-1.053-.229-.046-.412-.092-.641-.137v-.137a1.337,1.337,0,0,1,.412-.092c.458,0,.916.046,1.374,0,.5-.046.824.092.962.6a2.633,2.633,0,0,0,.183.321,2.9,2.9,0,0,1,1.878-1.053,2.32,2.32,0,0,1,2.794,2.2c.092,1.237.046,2.427.046,3.664,0,.962,0,1.008.962,1.328a.958.958,0,0,1,.275.183,6.966,6.966,0,0,1-2.931.046c.55-.458.458-1.1.458-1.695V99.954a1.52,1.52,0,0,0-1.969-1.6c-1.145.275-1.694.779-1.6,1.924.046,1.053,0,2.107,0,3.16,0,.779.137.916.824,1.145.137.046.275.137.412.183C291.705,104.717,291.659,104.763,291.659,104.808Zm-6-3.664c-.733.229-1.42.412-2.107.6l-.412.137a1.031,1.031,0,0,0-.779.824,1.349,1.349,0,0,0,1.557,1.695,4.645,4.645,0,0,0,1.282-.412.758.758,0,0,0,.458-.6C285.706,102.61,285.66,101.923,285.66,101.145Z" transform="translate(-152.551 -52.782)"/>
    <path id="Path_192" data-name="Path 192" class="cls-2" d="M166.9,65.75c-1.145-.137-2.153-.321-3.16-.458-.137-.366.046-.412.321-.458.779-.092,1.511-.229,2.29-.321.183-.046.366-.046.6-.092-.687-.87-1.282-1.74-1.924-2.565.092-.321.275-.366.5-.137.733.6,1.511,1.145,2.336,1.786.137-.824.229-1.6.321-2.336.046-.183.046-.412.092-.6a1.214,1.214,0,0,1,.229-.275c.092.092.229.183.229.321.137.87.275,1.74.366,2.656a1.62,1.62,0,0,1,.046.275c.412-.321.779-.6,1.191-.87.366-.275.779-.6,1.145-.87.229-.183.366-.183.5.137-.641.824-1.237,1.695-1.924,2.565.916.137,1.786.275,2.656.366a.779.779,0,0,1,.321.046c.092.046.183.183.275.229-.092.092-.183.229-.275.229-.779.137-1.511.229-2.29.321-.183.046-.412.046-.687.092.6.779,1.145,1.557,1.74,2.29.183.229.229.412-.092.55-.824-.641-1.695-1.237-2.565-1.924-.137,1.008-.275,1.924-.412,2.839,0,.137-.137.275-.229.366-.092-.137-.229-.229-.275-.366-.137-.916-.275-1.832-.412-2.839-.916.687-1.74,1.282-2.565,1.924-.275-.137-.321-.275-.137-.55Q166.012,66.986,166.9,65.75Z" transform="translate(-88.891 -32.684)"/>
    <path id="Path_193" data-name="Path 193" class="cls-1" d="M318.337,88.946a.779.779,0,0,1,.321-.046h2.152c.321,0,.412.137.412.412-.046,3.16-.046,6.366-.092,9.526,0,.779.137.962.87,1.1a2.232,2.232,0,0,1,.5.183v.137a1.078,1.078,0,0,1-.366.092h-.6c-.687,0-1.42.229-1.649-.824-.183.137-.275.229-.412.321a2.634,2.634,0,0,1-4.168-.779,4.9,4.9,0,0,1-.092-4.442,3.158,3.158,0,0,1,3.893-1.695c.229.046.412.092.733.183V90.366c0-.733-.183-.916-.916-1.053-.229-.046-.412-.092-.641-.137A.613.613,0,0,0,318.337,88.946Zm1.557,7.6h-.046c0-.641.046-1.328,0-1.969a1.181,1.181,0,0,0-1.053-1.145,1.813,1.813,0,0,0-2.336,1.191,5.134,5.134,0,0,0-.229,2.885,4.3,4.3,0,0,0,.458,1.282,1.612,1.612,0,0,0,1.878.733,1.742,1.742,0,0,0,1.374-1.695A12.006,12.006,0,0,1,319.894,96.548Z" transform="translate(-170.756 -48.186)"/>
    <path id="Path_194" data-name="Path 194" class="cls-1" d="M204.806,99.588a11.523,11.523,0,0,1-.6,2.153,3.393,3.393,0,0,1-3.343,2.2,3.475,3.475,0,0,1-3.343-2.2,4.915,4.915,0,0,1-.046-4.168,3.618,3.618,0,0,1,3.71-2.29,3.78,3.78,0,0,1,3.389,3.114c.092.412.092.824.183,1.191C204.76,99.542,204.806,99.542,204.806,99.588Zm-6.274-.229a6.651,6.651,0,0,0,.687,2.839,1.856,1.856,0,0,0,1.832,1.053,1.773,1.773,0,0,0,1.695-1.237,6.06,6.06,0,0,0-.137-4.809,1.85,1.85,0,0,0-1.924-1.145,1.774,1.774,0,0,0-1.74,1.328C198.76,98.031,198.669,98.672,198.531,99.359Z" transform="translate(-106.961 -51.638)"/>
    <path id="Path_195" data-name="Path 195" class="cls-1" d="M236.8,134.434a14.384,14.384,0,0,1-.6,2.061,3.4,3.4,0,0,1-3.343,2.152,3.5,3.5,0,0,1-3.343-2.152,5.192,5.192,0,0,1-.092-4.213,3.57,3.57,0,0,1,3.71-2.29,3.688,3.688,0,0,1,3.3,2.7A14.391,14.391,0,0,1,236.8,134.434Zm-1.511,0a17.92,17.92,0,0,0-.641-2.473,2.023,2.023,0,0,0-3.71.137,6.031,6.031,0,0,0,.275,4.717,1.854,1.854,0,0,0,1.832,1.1,1.731,1.731,0,0,0,1.695-1.282A12.831,12.831,0,0,0,235.287,134.434Z" transform="translate(-124.298 -70.455)"/>
    <path id="Path_196" data-name="Path 196" class="cls-1" d="M200.442,136.523c.5.183.458.458.229.779a3.472,3.472,0,0,1-5.771-.366,5.188,5.188,0,0,1-.046-5.038,3.481,3.481,0,0,1,3.984-1.832,3.4,3.4,0,0,1,2.381,3.71c-.046.366-.275.5-.687.5H196.5c-.641,0-.733.092-.687.733a3.247,3.247,0,0,0,1.053,2.244,2.462,2.462,0,0,0,3.343-.412A1.392,1.392,0,0,1,200.442,136.523Zm-2.931-2.931h0a5.52,5.52,0,0,0,.87,0c1.282-.046,1.511-.412,1.145-1.649,0-.046-.046-.092-.046-.137a1.632,1.632,0,0,0-2.839-.55,3.4,3.4,0,0,0-.779,1.969c0,.092.229.366.321.366Z" transform="translate(-105.436 -70.437)"/>
    <path id="Path_197" data-name="Path 197" class="cls-1" d="M235.478,101.734a1.663,1.663,0,0,1,.412.366,3.374,3.374,0,0,1-3.435,1.832,3.219,3.219,0,0,1-2.931-2.473,5.164,5.164,0,0,1,.5-4.626,3.272,3.272,0,0,1,3.16-1.557c2.244.183,3.068,2.015,3.023,3.755,0,.366-.229.55-.641.55h-4.076c-.641,0-.733.137-.687.779a5.328,5.328,0,0,0,.183.824,2.29,2.29,0,0,0,1.878,1.832,2.525,2.525,0,0,0,2.427-.962C235.295,101.963,235.341,101.872,235.478,101.734Zm-3.023-2.885h.824c1.282-.046,1.6-.183,1.237-1.74a2.231,2.231,0,0,1-.137-.321,1.61,1.61,0,0,0-1.878-.87,2.691,2.691,0,0,0-1.649,2.656.516.516,0,0,0,.366.229A5.593,5.593,0,0,0,232.456,98.849Z" transform="translate(-124.398 -51.632)"/>
    <path id="Path_198" data-name="Path 198" class="cls-1" d="M257.723,100.811a4.13,4.13,0,0,1,.321.5c.6,1.649,2.015,2.015,3.572,1.74a1.216,1.216,0,0,0,1.1-1.053,1.159,1.159,0,0,0-.824-1.282c-.6-.275-1.191-.5-1.786-.779a5.6,5.6,0,0,1-1.282-.641,2.008,2.008,0,0,1-.916-2.336,1.945,1.945,0,0,1,1.695-1.6,10.641,10.641,0,0,1,3.618.137.294.294,0,0,1,.229.229c.046.687.046,1.328.046,2.015,0,.046-.046.092-.137.183a4.461,4.461,0,0,1-.229-.5A2.061,2.061,0,0,0,261.158,96a7.4,7.4,0,0,0-1.42.092.928.928,0,0,0-.779.87,1.02,1.02,0,0,0,.55,1.008l1.786.824a9.64,9.64,0,0,1,1.786.962,2.086,2.086,0,0,1,.779,2.381,2.052,2.052,0,0,1-1.6,1.649,8.564,8.564,0,0,1-4.168-.229c-.092-.046-.229-.183-.229-.275-.092-.687-.137-1.42-.183-2.107C257.632,101.086,257.678,100.994,257.723,100.811Z" transform="translate(-139.819 -51.624)"/>
    <path id="Path_199" data-name="Path 199" class="cls-1" d="M217.916,132.745c-.092-.229-.183-.412-.275-.6a1.909,1.909,0,0,0-1.832-1.328,12.844,12.844,0,0,0-1.328,0,1.173,1.173,0,0,0-1.008.916,1.016,1.016,0,0,0,.641,1.1c.55.275,1.1.5,1.649.733a13.565,13.565,0,0,1,1.42.687,2.267,2.267,0,0,1,1.145,2.7,2.145,2.145,0,0,1-2.152,1.695,9.9,9.9,0,0,1-3.481-.321c-.137-.046-.366-.137-.366-.229-.092-.779-.137-1.557-.229-2.336.046,0,.092-.046.137-.046a1.711,1.711,0,0,1,.275.321c.6,1.6,1.649,2.061,3.481,1.832a1.433,1.433,0,0,0,1.237-1.053,1.256,1.256,0,0,0-.824-1.328c-.6-.275-1.191-.5-1.786-.779a12.809,12.809,0,0,1-1.374-.687,2.171,2.171,0,0,1,1.191-3.939,25.321,25.321,0,0,1,3.252.183.413.413,0,0,1,.275.275c.046.641.046,1.328.046,1.969C218.054,132.562,218.008,132.608,217.916,132.745Z" transform="translate(-115.125 -70.506)"/>
    <path id="Path_200" data-name="Path 200" class="cls-1" d="M276.529,135.822a1.606,1.606,0,0,1,.229.366c.6,1.695,1.878,2.015,3.572,1.786a1.263,1.263,0,0,0,1.145-1.053,1.179,1.179,0,0,0-.824-1.328c-.6-.275-1.191-.5-1.786-.779a6.709,6.709,0,0,1-1.282-.641,2.085,2.085,0,0,1-.916-2.427,2,2,0,0,1,2.061-1.557,24.373,24.373,0,0,1,3.16.183c.092,0,.275.137.275.183v2.152a.168.168,0,0,0-.137.046c-.092-.137-.137-.321-.229-.458a1.926,1.926,0,0,0-1.923-1.374,7.4,7.4,0,0,0-1.42.092.974.974,0,0,0-.824.87.928.928,0,0,0,.55,1.053,17.07,17.07,0,0,0,1.6.733c.5.229,1.053.458,1.557.733a2.267,2.267,0,0,1,1.145,2.7,2.226,2.226,0,0,1-2.107,1.695,9.485,9.485,0,0,1-3.572-.321c-.137-.046-.321-.183-.321-.321-.092-.733-.137-1.466-.183-2.244C276.392,135.868,276.437,135.822,276.529,135.822Z" transform="translate(-149.923 -70.561)"/>
    <path id="Path_201" data-name="Path 201" class="cls-1" d="M265.36,127.256h2.382a2.419,2.419,0,0,0,.046.6c.046.321-.137.412-.412.412H265.36c0,.137-.046.275-.046.412,0,1.6.046,3.206,0,4.809-.046,1.878,1.1,1.832,2.244,1.42.092-.046.183-.046.275-.092.275.321.183.5-.137.641a3.6,3.6,0,0,1-2.839.046,1.278,1.278,0,0,1-.87-1.1,4.709,4.709,0,0,1-.046-.779V128.31h-1.374c-.366,0-.366-.183-.366-.458s0-.55.366-.458c1.053.229,1.6-.321,1.832-1.282.137-.412.321-.824.5-1.237.046-.092.183-.183.275-.275.046.137.183.275.183.366v2.2C265.314,127.119,265.314,127.165,265.36,127.256Z" transform="translate(-142.281 -67.536)"/>
    <path id="Path_202" data-name="Path 202" class="cls-1" d="M249.9,98.423h-3.3c.733-.687.55-1.466.55-2.2V87.295c0-.916-.183-1.1-1.053-1.282-.183-.046-.366-.092-.6-.137v-.183a1.078,1.078,0,0,1,.366-.092H248.2c.321,0,.412.137.412.458-.046,3.664-.046,7.328-.046,10.991a.9.9,0,0,0,.733.962c.229.092.412.137.641.229C249.942,98.332,249.942,98.378,249.9,98.423Z" transform="translate(-133.229 -46.397)"/>
    <path id="Path_203" data-name="Path 203" class="cls-1" d="M220.825,99.642c.046.137.137.275.183.412-.687.733-2.839.687-3.572.092a1.67,1.67,0,0,1-.55-1.328V93.093h-1.374c-.366,0-.412-.183-.412-.458s.046-.5.412-.5h.046c1.053.229,1.557-.321,1.786-1.237a9.292,9.292,0,0,1,.5-1.191,2.93,2.93,0,0,1,.275-.5,3.6,3.6,0,0,1,.183,1.511c.046.458,0,.916,0,1.466.687,0,1.328.046,2.015,0,.458-.046.458.229.458.55,0,.366-.137.5-.5.458-.641-.046-1.282,0-1.969,0v.87c0,1.42.046,2.839,0,4.259-.046,1.832,1.008,1.924,2.244,1.466A1.525,1.525,0,0,1,220.825,99.642Z" transform="translate(-116.752 -48.348)"/>
    <path id="Path_204" data-name="Path 204" class="cls-1" d="M253.22,132.319c-.046-.092-.183-.183-.183-.275-.137-.962-1.053-1.008-1.786-.824a1.815,1.815,0,0,0-1.328,1.786V136.9c0,.779.137,1.008.87,1.237a1.433,1.433,0,0,1,.458.229.168.168,0,0,1-.046.137h-4.076c0-.046-.046-.092-.046-.137a2.455,2.455,0,0,1,.5-.229c.687-.229.87-.458.87-1.191v-5.084c0-.824-.183-1.053-.962-1.191-.229-.046-.412-.137-.6-.183a.346.346,0,0,1,.046-.183,1.558,1.558,0,0,1,.458-.046c.5,0,1.008.046,1.511,0a.605.605,0,0,1,.733.55,4.032,4.032,0,0,0,.275.779,3.34,3.34,0,0,0,.412-.458,2.9,2.9,0,0,1,2.885-1.008.429.429,0,0,1,.412.55c-.092.55-.137,1.1-.229,1.649Z" transform="translate(-133.988 -70.492)"/>
  </g>
</svg>
