<svg xmlns="http://www.w3.org/2000/svg" viewBox="0 0 81.987 90.919">
  <defs>
    <style>
      .cls-1, .cls-2 {
        fill: none;
        stroke-miterlimit: 10;
        stroke-width: 2px;
      }

      .cls-1 {
        stroke: #86c830;
      }

      .cls-2 {
        stroke: #fff;
      }
    </style>
  </defs>
  <g id="Talkpush_Logo_Icon" transform="translate(-0.291 -0.413)">
    <g id="Group_134" data-name="Group 134" transform="translate(18.784 3.238)">
      <path id="Path_258" data-name="Path 258" class="cls-1" d="M84.269,65.743v6.993a9.1,9.1,0,0,1-.068,1.358,3.09,3.09,0,0,1-3.531,2.648c-.747-.068-1.494-.2-2.241-.272-4.753-.475-9.438-1.018-14.19-1.562-1.833-.2-1.29-.407-2.444,1.086-1.63,2.173-3.259,4.413-4.956,6.586-.068,0-.136-.068-.2-.068V74.977c0-.815-.068-.883-.883-.951-3.87-.407-7.672-.815-11.542-1.29-3.6-.407-7.2-.747-10.8-1.222a3.1,3.1,0,0,1-2.987-3.191c0-.611.272-1.494-.2-1.9s-1.29-.272-1.969-.339a1.88,1.88,0,0,1-.611-.068c-.407-.068-.543.136-.543.543,0,.883,0,1.7.068,2.58a5.483,5.483,0,0,0,.543,2.308,8.981,8.981,0,0,0,2.987,3.6,3.941,3.941,0,0,0,1.426.679c3.531.475,7.061.883,10.592,1.358,2.987.407,5.975.747,8.894,1.154.815.136.815.136.815.951V88.42c0,.543,0,1.018.611,1.29.951.475,1.9.883,2.784,1.358a.428.428,0,0,0,.611-.136c.815-1.018,1.63-2.037,2.376-3.055,1.833-2.512,3.8-4.956,5.635-7.469a.911.911,0,0,1,1.018-.475c4.889.679,9.845,1.29,14.8,1.9A7.75,7.75,0,0,0,89.5,74.366c.136-2.852.068-5.7,0-8.555V22.968c0-3.8.068-7.536,0-11.339A7.226,7.226,0,0,0,85.016,4.7a8.41,8.41,0,0,0-5.16-.407c-4.345.679-8.691,1.358-13.1,2.037-4.277.679-8.555,1.29-12.765,1.9-3.463.543-6.925,1.086-10.456,1.562-1.765.272-3.463.543-5.228.815-.339.068-.679.068-.679.475v4.006c.2,0,.339.068.407,0,2.58-.339,5.16-.679,7.672-1.018C51.135,13.327,56.567,12.58,62,11.9c5.907-.815,11.814-1.562,17.721-2.308a4.224,4.224,0,0,1,2.58.2,2.658,2.658,0,0,1,1.426,1.426,9.169,9.169,0,0,1,.407,2.376c-.068,1.63,0,3.191,0,4.821V30.776Z" transform="translate(-27.07 -4.078)"/>
      <path id="Path_259" data-name="Path 259" class="cls-1" d="M30.527,64.186V75.321c0,.951,0,.951-.951.951-.611,0-1.222-.136-1.833-.136-.407,0-.543-.2-.543-.611V53.051c0-.747,0-.747.747-.815.679-.068,1.358-.068,2.037-.136.407,0,.611.136.543.543V64.186Z" transform="translate(-27.102 -19.495)"/>
      <path id="Path_260" data-name="Path 260" class="cls-1" d="M27.086,28.145c0-1.765-.068-3.531,0-5.364a8.33,8.33,0,0,1,3.395-6.722,5.681,5.681,0,0,1,1.969-.883c.407-.136.679,0,.679.475v3.259c0,.339-.136.475-.475.543a3.146,3.146,0,0,0-2.173,3.327c-.068,3.531,0,7.061,0,10.592v.611c.068.475-.136.679-.611.679-.679,0-1.29.136-1.969.136-.747,0-.747,0-.747-.747-.068-1.9-.068-3.938-.068-5.907Z" transform="translate(-27.056 -7.625)"/>
    </g>
    <g id="Group_139" data-name="Group 139" transform="translate(1.289 1.459)">
      <path id="Path_261" data-name="Path 261" class="cls-2" d="M23.227,24.436a16.593,16.593,0,0,1-.068-2.58c0-.2.068-.407.339-.407h.2c1.7-.339,2.1-.883,2.173-2.648V7.869a10.227,10.227,0,0,0-.068-2.037,1.238,1.238,0,0,0-1.63-1.086C17.931,5.9,11.617,6.986,5.37,8.141c-1.154.068-1.562.475-1.7,1.494a4.175,4.175,0,0,0-.068.951V21.856c.068,1.222.543,1.63,1.765,1.494,1.562-.136,3.191-.272,4.753-.543A2.027,2.027,0,0,1,12.5,23.961c.068.136.2.272.339.543a2.881,2.881,0,0,0,.136-1.494c0-.339.068-.543.407-.543,1.358-.136,2.648-.272,4.006-.475.339-.068.543.068.475.407v2.037c0,.339-.136.475-.475.475-.543,0-1.018.136-1.562.136-.475,0-.611.2-.611.611v3.055c0,.475-.136.747-.543.883-.068,0-.136.068-.2.068-.475.136-.883.679-1.426.475-.543-.136-.475-.747-.747-1.154a28.889,28.889,0,0,1-1.833-3.123c-.2-.407-.475-.339-.747-.339-1.358.136-2.648.272-4.006.339-.475.068-.951.068-1.426.136a2.325,2.325,0,0,1-1.833-.815A3.2,3.2,0,0,1,1.364,23.01c0-3.531-.068-7.061-.068-10.592a19.823,19.823,0,0,1,.2-4.006c.272-.475.611-1.018.951-1.562A4.43,4.43,0,0,1,5.506,5.085c5.7-1.018,11.339-2.1,16.974-3.191A7.894,7.894,0,0,0,23.7,1.623c2.173-.611,3.734.543,4.413,2.58a5.169,5.169,0,0,1,.2,1.426c0,4.481.068,8.962,0,13.511a5.44,5.44,0,0,1-2.512,4.685A4.693,4.693,0,0,1,23.227,24.436Z" transform="translate(-1.289 -1.459)"/>
      <path id="Path_262" data-name="Path 262" class="cls-2" d="M3.568,59.036v4.277h0a2.587,2.587,0,0,0,.2.679,1.247,1.247,0,0,0,1.29.883c1.7,0,3.463.136,5.16.136a2.1,2.1,0,0,1,2.241,1.426,4.345,4.345,0,0,0,.407.747c.068-.339.068-.543.136-.747.475-1.222.747-1.358,2.1-1.29.747,0,1.494.068,2.308.068.407,0,.543.136.543.543,0,.815-.068,1.562-.136,2.376H15.857c-.407,0-.543.136-.543.543v3.055a.778.778,0,0,1-.679.883c-.475.136-1.018.475-1.426.339-.475-.136-.475-.815-.747-1.222a14.142,14.142,0,0,1-1.833-3.463c-.136-.407-.475-.339-.747-.339-1.63-.068-3.259-.2-4.889-.2A3,3,0,0,1,2.481,66.64,4.14,4.14,0,0,1,1.463,64.2c-.136-4.549-.068-9.1,0-13.647a4.434,4.434,0,0,1,1.29-2.784,3.082,3.082,0,0,1,2.376-1.018c5.024-.272,9.981-.611,15.005-.883,1.358-.068,2.716-.136,4.006-.272a3.433,3.433,0,0,1,3.395,1.833,5.407,5.407,0,0,1,.815,2.92V63.517A5.276,5.276,0,0,1,27.2,66.912a3.777,3.777,0,0,1-3.734,1.426c-.272,0-.339-.136-.339-.407V65.758c0-.339.2-.543.475-.475,1.222.2,1.7-.543,2.1-1.426l.068-.068-.068-.068c0-1.358.068-2.648.068-4.006V51.432h0v-.611h0a2.164,2.164,0,0,0-.679-1.765,2.017,2.017,0,0,0-1.426-.475c-5.568.272-11.067.543-16.635.815-.679,0-1.29.068-1.969.068-1.018.068-1.358.339-1.494,1.29A14.708,14.708,0,0,0,3.5,53.2V57.95a6.61,6.61,0,0,1,.068,1.086Z" transform="translate(-1.32 -15.622)"/>
      <path id="Path_263" data-name="Path 263" class="cls-2" d="M3.573,98.456V100.9a.433.433,0,0,0,0,.407v.883a19.08,19.08,0,0,0,.068,1.969,1.781,1.781,0,0,0,1.7,1.765c1.765.272,3.531.611,5.3.815a2.131,2.131,0,0,1,1.7,1.29,3.989,3.989,0,0,0,.679,1.086c-.136-.815.543-1.154.815-1.7.068-.2.339-.2.543-.136,3.123.475,6.179.951,9.3,1.494,1.494.272,2.1-.2,2.173-1.7.068-.747,0-1.494,0-2.241,0-.2-.068-.407.136-.611.611.068,1.29.136,1.9.2.339.068.475.2.475.543a20.5,20.5,0,0,1-.2,4.074,4.769,4.769,0,0,1-1.358,2.241,3.423,3.423,0,0,1-2.92.679c-2.648-.475-5.228-.883-7.876-1.358-.2-.068-.407,0-.679-.068a9.827,9.827,0,0,0-.068,2.444v1.222c0,.407-.136.543-.543.611l-1.018.2a.653.653,0,0,1-.883-.407c-.339-.679-.679-1.426-1.018-2.1-.407-.815-.883-1.7-1.29-2.512a.979.979,0,0,0-.747-.475c-1.7-.272-3.395-.611-5.092-.815a3.326,3.326,0,0,1-2.444-1.765,5.568,5.568,0,0,1-.815-3.259c0-4.21,0-8.419.068-12.629A3.113,3.113,0,0,1,5,87.8c5.7.407,11.339.815,17.042,1.154.679.068,1.358.136,2.037.136A3.654,3.654,0,0,1,27.2,90.919a6.165,6.165,0,0,1,1.086,3.734V97.03c0,.475-.136.679-.679.407s-1.222,0-1.833-.272h0a12.366,12.366,0,0,1-.068-2.241,3.983,3.983,0,0,0-.272-1.562,1.838,1.838,0,0,0-1.562-1.222L9,90.919c-1.29-.136-2.512-.2-3.8-.339-1.154-.068-1.562.272-1.7,1.358-.068.543,0,1.018-.068,1.562h0v4.142C3.5,97.912,3.5,98.184,3.573,98.456Z" transform="translate(-1.325 -29.173)"/>
    </g>
  </g>
</svg>
