<svg xmlns="http://www.w3.org/2000/svg" viewBox="0 0 150 108.404">
  <defs>
    <style>
      .cls-1 {
        fill: #fff;
      }

      .cls-2 {
        fill: #87c930;
      }

      .cls-3 {
        fill: #f68e35;
      }

      .cls-4 {
        fill: #018ecf;
      }
    </style>
  </defs>
  <g id="customer_page_exl_logo_neon" data-name="customer_page_exl logo_neon" transform="translate(-0.014)">
    <path id="Path_465" data-name="Path 465" class="cls-1" d="M521.766,442.41c4.067,0,8.145,0,12.212-.01.3,0,.4.073.387.387-.01,1.8-.021,3.607,0,5.406,0,.324-.094.376-.4.376-7.957-.01-15.9,0-23.86-.021-.376,0-.45.1-.45.46q.016,3.842,0,7.685c0,.3.063.387.376.387q11.935-.016,23.86-.01c.45,0,.45,0,.45.45,0,1.777-.011,3.555.01,5.332,0,.324-.084.408-.408.408q-11.92-.016-23.828-.01c-.533,0-.46-.073-.46.46q0,3.858-.01,7.716c0,.293.084.366.376.366,7.967-.01,15.934,0,23.891-.01.366,0,.439.094.439.45-.021,1.788-.01,3.576,0,5.364,0,.272-.052.376-.356.376-8.051-.01-16.091,0-24.142-.01a6.377,6.377,0,0,1-6.357-6.4V448.715a6.279,6.279,0,0,1,6.326-6.315C513.809,442.41,517.782,442.41,521.766,442.41Z" transform="translate(-450.843 -396.144)"/>
    <path id="Path_466" data-name="Path 466" class="cls-1" d="M855.534,477.881h-.314q-3.278,0-6.566.01a.535.535,0,0,1-.5-.282q-3.905-5.928-7.831-11.846c-.052-.073-.1-.146-.167-.23-.136.052-.167.167-.23.261q-3.89,5.85-7.769,11.721a.713.713,0,0,1-.7.376c-2.112-.021-4.235-.01-6.347-.01H824.7c.366-.554.69-1.056,1.025-1.558q5.3-7.967,10.613-15.934a.45.45,0,0,0,0-.606q-5.693-8.516-11.355-17.043a.991.991,0,0,1-.23-.429h.3c2.164,0,4.329.01,6.493-.01a.572.572,0,0,1,.554.314q3.874,5.85,7.758,11.679c.073.115.157.23.251.376.282-.418.544-.816.805-1.213q3.607-5.442,7.225-10.905a.441.441,0,0,1,.408-.251q3.388.016,6.775.01c.052,0,.1.01.167.01a.552.552,0,0,1-.178.345q-5.678,8.532-11.376,17.074a.509.509,0,0,0-.01.669q5.693,8.532,11.365,17.074A.553.553,0,0,1,855.534,477.881Z" transform="translate(-738.459 -396.055)"/>
    <path id="Path_467" data-name="Path 467" class="cls-1" d="M1162.414,456.6q0,6.885-.01,13.76c0,.345.094.418.429.418,5.907-.01,11.815,0,17.722-.021.345,0,.428.084.418.418-.021,2.143-.021,4.276,0,6.42,0,.324-.094.376-.4.376q-9.457-.016-18.914-.01a6.4,6.4,0,0,1-6.451-6.42q-.015-14.4-.01-28.805c0-.293.094-.335.355-.335q3.246.016,6.493,0c.293,0,.366.084.366.376Z" transform="translate(-1034.403 -396.144)"/>
    <path id="Path_468" data-name="Path 468" class="cls-1" d="M28.585,57.35c-.115.816-.209,1.642-.335,2.457a46.483,46.483,0,0,1-3.984,13.07,51.024,51.024,0,0,1-8.96,13.185,15.573,15.573,0,0,1-1.945,1.861h0c-.042-.188.1-.3.178-.439a77.019,77.019,0,0,0,7.078-17.252,67.684,67.684,0,0,0,2.028-11.188,62.728,62.728,0,0,0,.24-8.406,66.084,66.084,0,0,0-1.37-11.188,74.329,74.329,0,0,0-6.441-18.308A82.244,82.244,0,0,0,3.052,3.336.584.584,0,0,1,3,3.252c.021-.021.042-.031.063-.052A19.5,19.5,0,0,1,4.694,4.789C6.45,6.577,8.165,8.407,9.828,10.3A91.537,91.537,0,0,1,21.977,27.624,59.164,59.164,0,0,1,27.8,43.58c.335,1.673.575,3.356.753,5.061.125,1.506.2,3.022.2,4.538C28.752,54.579,28.648,55.959,28.585,57.35Z" transform="translate(-2.674 -2.865)"/>
    <path id="Path_469" data-name="Path 469" class="cls-2" d="M247.431,264.905c.063-1.391.167-2.771.167-4.161,0-1.516-.073-3.032-.2-4.538a24.338,24.338,0,0,1,2.227-6.9,27.746,27.746,0,0,1,7.1-8.8,34.962,34.962,0,0,1,8.73-5.4.755.755,0,0,1,.366-.115c.01.01.021.021.021.031-.711.585-1.443,1.15-2.143,1.746a28.25,28.25,0,0,0-10.309,20.148,41.987,41.987,0,0,0,1.715,14.366,78.446,78.446,0,0,0,7.685,17.482,121.4,121.4,0,0,0,10.445,15.182c.868,1.087,1.777,2.133,2.666,3.21a.457.457,0,0,1,.178.335,8.2,8.2,0,0,1-.993-.868c-2.206-2.081-4.36-4.2-6.441-6.4a109.768,109.768,0,0,1-14.293-18.057,53.324,53.324,0,0,1-5.813-12.557,34.174,34.174,0,0,1-1.046-4.465A1.337,1.337,0,0,0,247.431,264.905Z" transform="translate(-221.52 -210.421)"/>
    <path id="Path_470" data-name="Path 470" class="cls-1" d="M238.171,225.183a6.7,6.7,0,0,1-2.8,5.531,3.139,3.139,0,0,1-4.14-.24,4.124,4.124,0,0,1-1.171-2.415,6.809,6.809,0,0,1,2.133-6.232,3.726,3.726,0,0,1,2.248-1.046,3.158,3.158,0,0,1,3.22,1.955A5.773,5.773,0,0,1,238.171,225.183Z" transform="translate(-205.913 -197.685)"/>
    <path id="Path_471" data-name="Path 471" class="cls-2" d="M911.176,887.975v-2.185c0-.554.01-1.1,0-1.652,0-.2.052-.272.251-.272.314.01.711-.209.91-.021.219.2.073.617.073.941.01,2.3,0,4.6,0,6.911,0,1.485,0,2.969.115,4.444.01.167-.01.24-.188.24a1.456,1.456,0,0,0-.209.031c-.7.073-.721.073-.815-.627-.042-.3-.126-.282-.345-.136a5.171,5.171,0,0,1-2.959.931,2.363,2.363,0,0,1-2.52-1.976,6.26,6.26,0,0,1-.157-1.527,18.216,18.216,0,0,1,.125-3.461,2.264,2.264,0,0,1,2.436-2.081,7.512,7.512,0,0,1,3,.408C910.988,887.964,911.051,888.027,911.176,887.975Zm.01,3.827h0c-.01-.816-.021-1.631,0-2.457a.321.321,0,0,0-.272-.366,8.213,8.213,0,0,0-2.8-.334,1.258,1.258,0,0,0-1.359,1.234,14.986,14.986,0,0,0-.063,4.046c.125,1.087.659,1.516,1.757,1.526a4.724,4.724,0,0,0,2.436-.774.547.547,0,0,0,.3-.565C911.166,893.349,911.187,892.575,911.187,891.8Z" transform="translate(-810.643 -791.364)"/>
    <path id="Path_472" data-name="Path 472" class="cls-2" d="M1167.056,928.076c0,1.192-.011,2.321.01,3.461,0,.261-.052.387-.345.355s-.669.094-.847-.052c-.2-.167-.063-.565-.063-.868q0-5.364-.01-10.738c0-.324.052-.491.408-.418h.031c.585,0,.606,0,.669.565.031.293.1.282.324.146a5.673,5.673,0,0,1,3.409-.847,2.172,2.172,0,0,1,2.143,2.175,18.567,18.567,0,0,1-.042,4.506,3.5,3.5,0,0,1-.324,1.067,2.4,2.4,0,0,1-2.217,1.276A5.8,5.8,0,0,1,1167.056,928.076Zm0-3.743v2.415c0,.157,0,.282.188.366a6.173,6.173,0,0,0,2.813.47,1.33,1.33,0,0,0,1.38-1.192,7.142,7.142,0,0,0,.167-1.631,10.743,10.743,0,0,0-.157-2.9,1.18,1.18,0,0,0-1.2-1.014,5.306,5.306,0,0,0-2.928.669.415.415,0,0,0-.251.439C1167.066,922.744,1167.056,923.538,1167.056,924.333Z" transform="translate(-1043.865 -823.509)"/>
    <path id="Path_473" data-name="Path 473" class="cls-2" d="M996.317,924.489a20.13,20.13,0,0,1-3.178-.1c-.125-.021-.24-.021-.23.157a6.124,6.124,0,0,0,.3,1.892,1.734,1.734,0,0,0,1.516,1.025,6.627,6.627,0,0,0,3.367-.449c.272-.1.345-.042.429.209.272.9.429.721-.512,1a8.846,8.846,0,0,1-3.984.24,2.427,2.427,0,0,1-2.206-2.227,12.759,12.759,0,0,1-.021-4.182,2.689,2.689,0,0,1,2.332-2.4,7.147,7.147,0,0,1,2.583-.031,2.351,2.351,0,0,1,2.081,2.258,15.494,15.494,0,0,1,.063,2.311c-.01.22-.084.314-.314.3Zm-1.066-1.025h2.1c.178,0,.251-.042.251-.23a7.226,7.226,0,0,0-.084-1.255,1.477,1.477,0,0,0-1.171-1.286,4.15,4.15,0,0,0-2.175.063,1.506,1.506,0,0,0-1.056,1.035,6.781,6.781,0,0,0-.219,1.443c-.021.23.125.23.282.23Z" transform="translate(-887.942 -823.373)"/>
    <path id="Path_474" data-name="Path 474" class="cls-2" d="M1254.989,924.5a18.594,18.594,0,0,1-3.147-.115c-.178-.031-.219.042-.219.209a6.535,6.535,0,0,0,.188,1.558,1.751,1.751,0,0,0,1.631,1.317,6.862,6.862,0,0,0,3.367-.449c.251-.094.324-.052.408.188.272.816.282.816-.564,1.046a8.449,8.449,0,0,1-4.36.115,2.151,2.151,0,0,1-1.662-1.673,11.6,11.6,0,0,1-.094-4.8,2.607,2.607,0,0,1,2.258-2.227,6.713,6.713,0,0,1,2.813.01,2.245,2.245,0,0,1,1.809,1.872,12.82,12.82,0,0,1,.1,2.76c0,.219-.167.2-.293.2C1256.484,924.509,1255.731,924.5,1254.989,924.5Zm-1.056-1.025c.408,0,.816.01,1.223,0,.366-.01.868.167,1.067-.084s.063-.742.031-1.119a1.547,1.547,0,0,0-1.276-1.579,4.14,4.14,0,0,0-2.112.073,1.492,1.492,0,0,0-1.056,1.067,5.828,5.828,0,0,0-.2,1.349c-.01.22.052.3.293.3C1252.584,923.463,1253.264,923.474,1253.933,923.474Z" transform="translate(-1119.586 -823.382)"/>
    <path id="Path_475" data-name="Path 475" class="cls-2" d="M1082.389,924.51a18.62,18.62,0,0,1-3.147-.115c-.188-.031-.219.052-.219.209a5.8,5.8,0,0,0,.178,1.527,1.749,1.749,0,0,0,1.642,1.349,6.867,6.867,0,0,0,3.367-.46c.261-.1.324-.042.408.2.272.805.282.816-.533,1.035a8.564,8.564,0,0,1-4.36.136,2.172,2.172,0,0,1-1.694-1.683,11.607,11.607,0,0,1-.094-4.8,2.607,2.607,0,0,1,2.258-2.227,6.739,6.739,0,0,1,2.854.021,2.238,2.238,0,0,1,1.767,1.83,12.468,12.468,0,0,1,.115,2.792c0,.219-.167.188-.3.188C1083.884,924.521,1083.142,924.51,1082.389,924.51Zm-1.035-1.025c.69,0,1.38-.01,2.07,0,.209,0,.293-.063.282-.282-.021-.324,0-.659-.031-.983a1.543,1.543,0,0,0-1.317-1.547,4.328,4.328,0,0,0-1.9.042,1.582,1.582,0,0,0-1.244,1.192,6.15,6.15,0,0,0-.178,1.317c-.01.209.073.251.261.251C1079.984,923.486,1080.664,923.486,1081.354,923.486Z" transform="translate(-965.033 -823.394)"/>
    <path id="Path_476" data-name="Path 476" class="cls-2" d="M813.262,887.669a2.57,2.57,0,0,1-.533.816,20.442,20.442,0,0,1-2.938,3c-.094.073-.2.136-.021.22a5.181,5.181,0,0,1,1.537,1.516c.774.972,1.547,1.934,2.311,2.907.063.084.125.167.219.3h-1.464c-.167,0-.219-.157-.3-.272-.763-.972-1.474-1.987-2.279-2.928a4.991,4.991,0,0,0-.763-.721,1.6,1.6,0,0,0-.491-.261c-.387-.115-.46-.052-.46.355,0,1.182-.01,2.363.01,3.544,0,.23-.073.314-.293.282-.314-.031-.711.136-.91-.073-.178-.188-.052-.575-.052-.878q0-5.6-.01-11.2c0-.314.1-.429.387-.408s.627-.2.805-.031.063.554.063.847c.01,2.1,0,4.214.01,6.315,0,.115-.073.282.052.356s.272-.021.387-.1a11.162,11.162,0,0,0,1.777-1.736,20.942,20.942,0,0,0,1.37-1.683c.063-.084.115-.178.241-.178C812.352,887.669,812.791,887.669,813.262,887.669Z" transform="translate(-722.421 -791.373)"/>
    <path id="Path_477" data-name="Path 477" class="cls-2" d="M639.54,923.716a14.117,14.117,0,0,1-.188,2.687,2.5,2.5,0,0,1-2.185,2.154,6.945,6.945,0,0,1-2.823-.052,2.42,2.42,0,0,1-2.007-2.457,15.259,15.259,0,0,1,.042-4.025,2.556,2.556,0,0,1,2.478-2.342,8.56,8.56,0,0,1,2.133-.01,2.489,2.489,0,0,1,2.478,2.614A13.034,13.034,0,0,1,639.54,923.716Zm-1.255.324c-.021-.544-.031-1.067-.084-1.589a1.625,1.625,0,0,0-1.38-1.694,4.427,4.427,0,0,0-1.777.01,1.593,1.593,0,0,0-1.412,1.443,12.458,12.458,0,0,0,.031,3.942,1.553,1.553,0,0,0,1.244,1.359,4.092,4.092,0,0,0,1.631.073,1.657,1.657,0,0,0,1.61-1.631C638.254,925.305,638.233,924.657,638.286,924.04Z" transform="translate(-566.108 -823.457)"/>
    <path id="Path_478" data-name="Path 478" class="cls-2" d="M725.629,923.782a13.559,13.559,0,0,1-.157,2.394,2.472,2.472,0,0,1-2.175,2.238,6.577,6.577,0,0,1-2.854-.042,2.33,2.33,0,0,1-1.924-1.987,13.5,13.5,0,0,1-.031-4.538,2.494,2.494,0,0,1,2.5-2.311,7.424,7.424,0,0,1,2.4.042,2.363,2.363,0,0,1,2.143,2.353C725.629,922.579,725.6,923.227,725.629,923.782Zm-1.276.115a12.939,12.939,0,0,0-.063-1.683,1.558,1.558,0,0,0-1.328-1.579,4.126,4.126,0,0,0-2.049.052,1.5,1.5,0,0,0-1.129,1.129,6.224,6.224,0,0,0-.157,1.391,12.187,12.187,0,0,0,.157,2.9,1.545,1.545,0,0,0,1.244,1.265,4.463,4.463,0,0,0,1.537.084,1.756,1.756,0,0,0,1.725-1.851C724.332,925.036,724.363,924.472,724.353,923.9Z" transform="translate(-643.194 -823.324)"/>
    <path id="Path_479" data-name="Path 479" class="cls-2" d="M600.423,890.443c0,2,0,3.994.01,5.991,0,.261-.052.335-.324.335-.9-.01-.9,0-.9-.91,0-3.743,0-7.476-.01-11.219,0-.314.084-.46.408-.439.261.021.606-.167.774,0s.052.512.052.774C600.434,886.794,600.423,888.614,600.423,890.443Z" transform="translate(-536.537 -791.69)"/>
    <path id="Path_480" data-name="Path 480" class="cls-2" d="M1340.513,920.824a5.271,5.271,0,0,1,.836-.836,2.294,2.294,0,0,1,1.913-.293.176.176,0,0,1,.167.22.205.205,0,0,1-.01.073c-.031.293.031.659-.125.847s-.533.021-.816.021a2.692,2.692,0,0,0-1.809.816c-.136.115-.115.272-.115.418,0,2.018-.01,4.046.01,6.064,0,.335-.1.408-.408.4-.847-.021-.847-.01-.847-.857q0-3.764-.01-7.539c0-.293.042-.408.376-.4.69.031.69.01.784.7A1.322,1.322,0,0,0,1340.513,920.824Z" transform="translate(-1199.255 -823.461)"/>
    <path id="Path_481" data-name="Path 481" class="cls-2" d="M1403.471,885.634v.627a1.065,1.065,0,0,1-.931,1.171,3.889,3.889,0,0,1-1.736,0,1.145,1.145,0,0,1-.92-1.025,5.969,5.969,0,0,1-.01-1.432,1.1,1.1,0,0,1,1.056-1.15,4.291,4.291,0,0,1,1.673.031,1.01,1.01,0,0,1,.868,1.067C1403.482,885.164,1403.471,885.394,1403.471,885.634Zm-1.767-1.5c-.188,0-.376-.01-.565,0a.81.81,0,0,0-.868.784,4.837,4.837,0,0,0,0,1.4.846.846,0,0,0,.732.784,3.775,3.775,0,0,0,1.328.021.818.818,0,0,0,.784-.847,5.684,5.684,0,0,0,.021-.732C1403.126,884.328,1402.927,884.129,1401.7,884.139Z" transform="translate(-1253.462 -791.356)"/>
    <path id="Path_482" data-name="Path 482" class="cls-2" d="M1383.573,988.512c-.052-1,.544-1.087,1.38-.9.021,0,.042.021.063.031.366.293.3.711.293,1.1-.01.324-.084.606-.46.7a1.58,1.58,0,0,1-.826,0C1383.688,989.348,1383.573,989.108,1383.573,988.512Z" transform="translate(-1238.896 -884.279)"/>
    <path id="Path_483" data-name="Path 483" class="cls-3" d="M423.6,234.341c.021-.052.084-.073.1-.031s-.042.052-.084.063C423.61,234.362,423.61,234.351,423.6,234.341Z" transform="translate(-379.297 -209.791)"/>
    <path id="Path_484" data-name="Path 484" class="cls-3" d="M523.063,929.142a.178.178,0,0,0-.021.052.146.146,0,0,0-.042-.021c0-.021.021-.042.031-.073C523.031,929.121,523.052,929.131,523.063,929.142Z" transform="translate(-468.304 -831.956)"/>
    <path id="Path_485" data-name="Path 485" class="cls-4" d="M.055.094C.034.063-.019.042.044,0c.01,0,.042.031.063.052C.086.063.075.084.055.094Z" transform="translate(0)"/>
    <path id="Path_486" data-name="Path 486" class="cls-4" d="M.452.5.525.573A.1.1,0,0,0,.473.615.483.483,0,0,0,.4.542C.421.531.431.51.452.5Z" transform="translate(-0.345 -0.448)"/>
    <path id="Path_487" data-name="Path 487" class="cls-4" d="M1.142,1.2a.455.455,0,0,1,.073.063c-.021.021-.031.042-.052.063A.58.58,0,0,0,1.1,1.242C1.11,1.221,1.131,1.21,1.142,1.2Z" transform="translate(-0.972 -1.075)"/>
    <path id="Path_488" data-name="Path 488" class="cls-4" d="M1.752,1.8l.073.073a.277.277,0,0,0-.052.063L1.7,1.863C1.721,1.842,1.731,1.821,1.752,1.8Z" transform="translate(-1.51 -1.612)"/>
    <path id="Path_489" data-name="Path 489" class="cls-4" d="M2.452,2.5l.073.073a.277.277,0,0,0-.063.052L2.4,2.563A.277.277,0,0,1,2.452,2.5Z" transform="translate(-2.136 -2.239)"/>
    <path id="Path_490" data-name="Path 490" class="cls-4" d="M101.742,813.6c-.01.01-.021.031-.031.042,0-.01-.01-.031-.01-.042Z" transform="translate(-91.054 -728.533)"/>
    <path id="Path_491" data-name="Path 491" class="cls-3" d="M521.82,928.411v.021a.033.033,0,0,1-.021.01c-.031-.021-.031-.031,0-.042A.036.036,0,0,0,521.82,928.411Z" transform="translate(-467.207 -831.33)"/>
    <path id="Path_492" data-name="Path 492" class="cls-2" d="M1411.594,894.306c-.251.073-.439.052-.565-.167-.083-.125-.188-.24-.282-.355a.373.373,0,0,0-.418-.084c-.136.031-.063.178-.073.272a1,1,0,0,0,0,.178c.01.126-.021.2-.167.2-.125,0-.188-.031-.188-.178v-1.537c0-.1.021-.178.146-.188a5.835,5.835,0,0,1,1.046-.021c.219.031.45.084.481.324.042.293.115.648-.219.816-.241.125-.178.2-.052.345C1411.4,894.024,1411.479,894.16,1411.594,894.306Zm-.836-1.568c-.335-.021-.533-.042-.523.334,0,.345.2.314.4.293.24-.01.554.073.554-.345C1411.165,892.644,1410.872,892.759,1410.757,892.738Z" transform="translate(-1262.473 -799.097)"/>
  </g>
</svg>
